<svg viewBox="0 0 142 72" fill="none" xmlns="http://www.w3.org/2000/svg">
<g fill="#A0A1AE">
<path d="M52.2424 3.35791C52.2424 3.69458 52.2013 3.98973 52.1191 4.24338C52.0368 4.49242 51.9226 4.70917 51.7765 4.89364C51.6349 5.07811 51.4659 5.22569 51.2786 5.33637C51.0867 5.44706 50.8903 5.53468 50.6847 5.59002V5.61769C50.936 5.66381 51.1689 5.75143 51.3882 5.88518C51.6075 6.01431 51.7947 6.18033 51.9592 6.37402C52.1191 6.57233 52.2515 6.80292 52.3474 7.0704C52.4479 7.33788 52.4936 7.63304 52.4936 7.95125C52.4936 8.33403 52.4297 8.68452 52.3018 9.00274C52.1693 9.32095 51.9683 9.59766 51.6942 9.83285C51.4202 10.068 51.073 10.2479 50.6573 10.3817C50.2371 10.5108 49.7438 10.58 49.1682 10.58H47.204V0.881393H49.0586C49.625 0.881393 50.1092 0.941345 50.5112 1.05664C50.9131 1.17655 51.2466 1.34258 51.507 1.55933C51.7673 1.77147 51.9546 2.03434 52.0688 2.33873C52.183 2.6431 52.2424 2.97977 52.2424 3.35794V3.35791ZM51.0182 3.39945C51.0182 2.94749 50.8629 2.57855 50.5477 2.288C50.2279 1.99745 49.7346 1.85448 49.0586 1.85448H48.4145V5.19801H49.0449C49.6935 5.19801 50.1823 5.03659 50.5157 4.71838C50.8538 4.40016 51.0182 3.96204 51.0182 3.39939L51.0182 3.39945ZM51.2009 7.86355C51.2009 7.34241 51.0319 6.92736 50.6939 6.62296C50.3559 6.31858 49.8671 6.16639 49.2367 6.16639H48.4145V9.56528H49.1682C49.8808 9.56528 50.4016 9.42232 50.7213 9.13638C51.041 8.85045 51.2009 8.42617 51.2009 7.86355H51.2009ZM58.6602 10.5799H57.6279V9.81898H57.6005C57.5731 9.87432 57.5137 9.95734 57.4223 10.0634C57.3264 10.1695 57.2077 10.2756 57.0661 10.3724C56.9199 10.4692 56.7463 10.5569 56.5453 10.6353C56.3398 10.7091 56.1114 10.746 55.8601 10.746C55.5632 10.746 55.2983 10.6998 55.0608 10.6122C54.8232 10.5246 54.6223 10.3816 54.4578 10.1833C54.2888 9.98963 54.1609 9.73137 54.0741 9.41776C53.9828 9.10416 53.9416 8.71677 53.9416 8.2602V3.83286H55.0699V8.1772C55.0699 8.73523 55.1567 9.13645 55.3394 9.37624C55.5221 9.61605 55.8008 9.73596 56.1799 9.73596C56.5042 9.73596 56.7783 9.65295 57.0021 9.48692C57.2259 9.32551 57.3995 9.16409 57.532 9.00268V3.83285H58.6602V10.5799ZM64.0274 10.5799V6.23553C64.0274 5.66367 63.9361 5.25322 63.7442 5.00415C63.5569 4.75972 63.2646 4.6352 62.8763 4.6352C62.5429 4.6352 62.2642 4.71821 62.0404 4.88885C61.8166 5.05487 61.6384 5.2209 61.5106 5.3777V10.5798H60.3868V3.83273H61.4146V4.59368H61.442C61.4694 4.53835 61.5288 4.45532 61.6247 4.34464C61.7161 4.23857 61.8349 4.13711 61.9856 4.03565C62.1318 3.9388 62.3099 3.85118 62.5109 3.77739C62.7165 3.7036 62.9494 3.6667 63.2098 3.6667C63.5067 3.6667 63.7762 3.70821 64.0138 3.80044C64.2558 3.88807 64.4614 4.03103 64.6304 4.22474C64.7949 4.42305 64.9273 4.68131 65.0187 4.9903C65.11 5.3039 65.1557 5.69129 65.1557 6.15248V10.5798L64.0274 10.5799ZM66.5352 7.30547C66.5352 6.61832 66.622 6.04646 66.8002 5.58991C66.9737 5.12874 67.2021 4.7598 67.4808 4.47846C67.7594 4.19715 68.0746 3.99884 68.4263 3.88354C68.7781 3.76363 69.1344 3.70828 69.4861 3.70828C69.7008 3.70828 69.8835 3.72212 70.0434 3.7544C70.1987 3.79129 70.3311 3.82819 70.4316 3.8743V0.646013L71.5599 0.516876V10.5798H70.5275V9.86034H70.5001C70.4727 9.91568 70.4225 9.99408 70.3494 10.0909C70.2717 10.1924 70.1713 10.2892 70.0433 10.3861C69.9109 10.4875 69.751 10.5706 69.5546 10.6397C69.3582 10.7089 69.1343 10.7458 68.874 10.7458C68.5588 10.7458 68.2573 10.6812 67.9741 10.5567C67.6909 10.4322 67.4442 10.2293 67.2295 9.95256C67.0194 9.67584 66.8458 9.32074 66.7225 8.88262C66.5992 8.44911 66.5352 7.92336 66.5352 7.30543L66.5352 7.30547ZM69.18 9.73586C69.3536 9.73586 69.5135 9.7128 69.6505 9.66207C69.7921 9.61595 69.9109 9.5606 70.0113 9.48681C70.1164 9.41764 70.2032 9.34385 70.2717 9.27006C70.3402 9.19627 70.395 9.13171 70.4316 9.07176V4.91656C70.3311 4.84738 70.2123 4.79204 70.0753 4.74592C69.9428 4.69981 69.7738 4.67675 69.5683 4.67675C69.3079 4.67675 69.0658 4.71826 68.8374 4.81049C68.609 4.89812 68.4126 5.04569 68.2481 5.25322C68.0791 5.45615 67.9467 5.72363 67.8507 6.05568C67.7548 6.38311 67.7046 6.78435 67.7046 7.25932C67.7046 7.72973 67.7457 8.12173 67.8233 8.43533C67.901 8.74893 68.0106 9.00258 68.1476 9.19166C68.2892 9.38535 68.4446 9.52371 68.6227 9.60672C68.7963 9.69434 68.9836 9.73586 69.18 9.73586H69.18ZM77.5712 6.11099C77.5712 6.40153 77.5619 6.65057 77.5438 6.86272C77.521 7.07025 77.5027 7.25472 77.489 7.41613H74.0767C74.1132 8.20937 74.2823 8.7951 74.5838 9.17325C74.8853 9.54681 75.3192 9.73589 75.8857 9.73589C76.0821 9.73589 76.2557 9.71283 76.4155 9.6621C76.5708 9.61598 76.7079 9.56064 76.8266 9.49607C76.9409 9.4315 77.0368 9.36233 77.119 9.29776C77.1966 9.23319 77.256 9.18246 77.2926 9.14557L77.7082 9.94341C77.6625 9.99414 77.594 10.0587 77.4981 10.1509C77.4068 10.2386 77.2834 10.3262 77.1236 10.4138C76.9682 10.5061 76.7718 10.5844 76.5389 10.649C76.3059 10.7136 76.0364 10.7459 75.7167 10.7459C75.301 10.7459 74.9218 10.6767 74.5838 10.5337C74.2458 10.3954 73.958 10.174 73.7205 9.87884C73.483 9.5883 73.3048 9.21012 73.1723 8.75817C73.0399 8.3016 72.9759 7.7574 72.9759 7.121C72.9759 6.52147 73.0445 6.00495 73.1815 5.56683C73.3139 5.13332 73.4967 4.7736 73.7296 4.49228C73.9626 4.21096 74.2321 4.00343 74.5381 3.86969C74.8442 3.73133 75.1731 3.66676 75.5248 3.66676C76.1643 3.66676 76.6668 3.86969 77.0277 4.27553C77.3886 4.68137 77.5712 5.29473 77.5712 6.11104L77.5712 6.11099ZM75.4563 4.5937C75.0543 4.5937 74.7346 4.75972 74.4925 5.09639C74.255 5.43306 74.1134 5.9219 74.0768 6.55835H76.5115C76.5208 6.51224 76.5297 6.44305 76.5343 6.35543C76.5389 6.2678 76.5389 6.17096 76.5389 6.06949C76.5389 5.59909 76.4476 5.23476 76.2603 4.9765C76.0776 4.71824 75.8081 4.59372 75.4563 4.59372L75.4563 4.5937ZM81.9519 5.19786C81.8788 5.11024 81.7463 4.99494 81.5499 4.85198C81.3535 4.7044 81.1023 4.63523 80.7825 4.63523C80.4856 4.63523 80.2618 4.7044 80.1019 4.84276C79.9466 4.98572 79.8644 5.15175 79.8644 5.35006C79.8644 5.6037 79.9374 5.81123 80.0836 5.97726C80.2252 6.13868 80.4445 6.31393 80.7414 6.50301L81.1616 6.75665C81.6139 7.02875 81.9702 7.31929 82.2305 7.6329C82.4909 7.94649 82.6234 8.35233 82.6234 8.85035C82.6234 9.38071 82.4361 9.83267 82.0706 10.197C81.7052 10.5613 81.1799 10.7458 80.4901 10.7458C80.2252 10.7458 79.9876 10.7181 79.7821 10.6628C79.5765 10.6028 79.3984 10.5382 79.2477 10.4645C79.0923 10.3907 78.9644 10.3077 78.864 10.22C78.7635 10.1278 78.6767 10.0494 78.6127 9.97099L79.1563 9.07168C79.2111 9.13164 79.2796 9.1962 79.3573 9.26999C79.4395 9.34378 79.5309 9.41757 79.6451 9.48674C79.7546 9.56053 79.878 9.61588 80.0196 9.66199C80.1567 9.71273 80.3211 9.73578 80.5038 9.73578C80.8373 9.73578 81.0977 9.65738 81.2712 9.5098C81.4494 9.35761 81.5362 9.17775 81.5362 8.961C81.5362 8.79959 81.5134 8.66585 81.4722 8.54594C81.431 8.43064 81.3672 8.32457 81.2849 8.23234C81.2027 8.1355 81.1022 8.04787 80.9789 7.96486C80.8601 7.88185 80.7185 7.78501 80.5632 7.68354L80.1429 7.41606C79.7273 7.14396 79.3984 6.85803 79.1654 6.55827C78.9279 6.2585 78.8091 5.87573 78.8091 5.40532C78.8091 5.15168 78.8594 4.92108 78.9553 4.70894C79.0512 4.50141 79.1883 4.31694 79.3664 4.16475C79.54 4.00795 79.7455 3.88804 79.9831 3.80042C80.2206 3.70818 80.4718 3.66668 80.7413 3.66668C81.0017 3.66668 81.2255 3.68974 81.4082 3.74047C81.5955 3.79582 81.7554 3.86037 81.8924 3.93878C82.0249 4.01718 82.1346 4.10019 82.2259 4.17858C82.3127 4.25699 82.3858 4.32616 82.4406 4.38151L81.9519 5.19786ZM87.4516 10.5798V6.23544C87.4516 5.68202 87.3694 5.28541 87.2141 5.04101C87.0542 4.79658 86.803 4.67668 86.4467 4.67668C86.264 4.67668 86.0995 4.69974 85.9533 4.74585C85.8117 4.79197 85.6838 4.85192 85.5697 4.9211C85.4601 4.99028 85.3641 5.06868 85.2773 5.15169C85.1951 5.23931 85.1266 5.3131 85.0718 5.37767V10.5797H83.9435V3.83271H84.9713V4.59366H85.0032C85.0489 4.51525 85.1174 4.42302 85.2087 4.31694C85.3001 4.21088 85.4189 4.10941 85.5559 4.00795C85.6975 3.9111 85.8574 3.8281 86.0447 3.76353C86.2319 3.69896 86.4375 3.66668 86.6705 3.66668C87.4333 3.66668 87.9678 3.96645 88.2829 4.56137C88.3469 4.46912 88.4382 4.36767 88.5479 4.2616C88.6621 4.15553 88.7899 4.05407 88.9407 3.96644C89.0869 3.87881 89.2559 3.80503 89.4386 3.74969C89.6259 3.69435 89.8314 3.66668 90.0507 3.66668C91.4074 3.66668 92.0834 4.45992 92.0834 6.05555V10.5797H90.9552V6.23536C90.9552 5.68194 90.8593 5.28533 90.6628 5.04092C90.4709 4.7965 90.1832 4.6766 89.7995 4.6766C89.4843 4.6766 89.2239 4.755 89.0138 4.90718C88.8082 5.06398 88.6392 5.21156 88.5205 5.34992C88.5387 5.45138 88.5524 5.56206 88.5616 5.68197C88.571 5.79726 88.5753 5.92177 88.5753 6.05553V10.5797L87.4516 10.5798ZM94.8926 10.5797H93.7689V3.83265H94.8926V10.5797ZM94.3354 2.20458C94.107 2.20458 93.9197 2.13079 93.7826 1.97859C93.641 1.83101 93.5725 1.63271 93.5725 1.38828C93.5725 1.15308 93.641 0.963989 93.7826 0.811806C93.9197 0.664229 94.107 0.585824 94.3354 0.585824C94.5592 0.585824 94.7419 0.664229 94.8835 0.811806C95.0205 0.964 95.0891 1.15308 95.0891 1.38828C95.0891 1.63271 95.0205 1.83101 94.8835 1.97859C94.7419 2.13079 94.5592 2.20458 94.3354 2.20458ZM100.264 10.5797V6.23533C100.264 5.66346 100.173 5.25302 99.9812 5.00395C99.7894 4.75952 99.5016 4.635 99.1088 4.635C98.7753 4.635 98.5013 4.71801 98.2774 4.88865C98.0536 5.05467 97.8755 5.2207 97.7476 5.3775V10.5795H96.6193V3.83253H97.6516V4.59348H97.679C97.7064 4.53814 97.7658 4.45512 97.8571 4.34444C97.953 4.23837 98.0718 4.13691 98.2226 4.03545C98.3687 3.9386 98.5469 3.85098 98.7479 3.77719C98.9534 3.7034 99.1864 3.6665 99.4468 3.6665C99.7437 3.6665 100.013 3.70801 100.251 3.80024C100.493 3.88787 100.698 4.03083 100.863 4.22454C101.032 4.42285 101.16 4.68111 101.256 4.9901C101.347 5.30369 101.393 5.69109 101.393 6.15228V10.5796L100.264 10.5797ZM104.206 10.5796H103.078V3.83259H104.206V10.5796ZM103.649 2.20451C103.416 2.20451 103.229 2.13073 103.092 1.97853C102.95 1.83095 102.882 1.63265 102.882 1.38822C102.882 1.15302 102.95 0.96393 103.092 0.811748C103.229 0.66417 103.416 0.585765 103.649 0.585765C103.868 0.585765 104.051 0.66417 104.193 0.811748C104.33 0.963942 104.398 1.15302 104.398 1.38822C104.398 1.63265 104.33 1.83095 104.193 1.97853C104.051 2.13073 103.868 2.20451 103.649 2.20451ZM108.811 5.19763C108.738 5.11 108.601 4.9947 108.404 4.85174C108.212 4.70416 107.957 4.63499 107.642 4.63499C107.345 4.63499 107.116 4.70416 106.961 4.84252C106.801 4.98548 106.723 5.15151 106.723 5.34982C106.723 5.60347 106.796 5.811 106.938 5.97703C107.084 6.13844 107.303 6.31369 107.6 6.50277L108.016 6.75641C108.473 7.02851 108.829 7.31905 109.09 7.63266C109.35 7.94626 109.478 8.35209 109.478 8.85012C109.478 9.38048 109.295 9.83243 108.93 10.1967C108.56 10.5611 108.034 10.7455 107.349 10.7455C107.08 10.7455 106.842 10.7179 106.641 10.6625C106.436 10.6026 106.257 10.538 106.102 10.4642C105.951 10.3904 105.823 10.3074 105.723 10.2198C105.618 10.1275 105.536 10.0492 105.472 9.97075L106.015 9.07145C106.07 9.1314 106.139 9.19597 106.216 9.26976C106.294 9.34355 106.39 9.41733 106.499 9.48651C106.609 9.5603 106.737 9.61564 106.874 9.66176C107.016 9.71249 107.176 9.73555 107.363 9.73555C107.696 9.73555 107.952 9.65714 108.126 9.50956C108.304 9.35737 108.391 9.17751 108.391 8.96076C108.391 8.79935 108.372 8.66561 108.331 8.54571C108.29 8.43041 108.226 8.32434 108.144 8.23211C108.057 8.13526 107.957 8.04764 107.833 7.96463C107.715 7.88162 107.577 7.78477 107.418 7.68331L107.002 7.41583C106.582 7.14373 106.257 6.85779 106.02 6.55803C105.782 6.25826 105.664 5.87549 105.664 5.40509C105.664 5.15144 105.714 4.92084 105.81 4.70871C105.91 4.50118 106.047 4.31671 106.221 4.16451C106.399 4.00771 106.605 3.8878 106.842 3.80019C107.08 3.70794 107.331 3.66644 107.6 3.66644C107.861 3.66644 108.08 3.6895 108.267 3.74023C108.455 3.79558 108.614 3.86014 108.747 3.93854C108.884 4.01695 108.994 4.09996 109.08 4.17835C109.172 4.25676 109.24 4.32593 109.295 4.38127L108.811 5.19763ZM113.653 4.75944H112.191V8.49504C112.191 8.97467 112.251 9.30211 112.374 9.47274C112.493 9.64799 112.698 9.73562 112.986 9.73562C113.15 9.73562 113.297 9.71256 113.415 9.66183C113.534 9.61571 113.625 9.5742 113.68 9.53731L113.831 10.4504C113.79 10.4873 113.676 10.5473 113.502 10.6257C113.324 10.7041 113.086 10.7456 112.789 10.7456C112.214 10.7456 111.785 10.5842 111.497 10.2614C111.209 9.93853 111.063 9.40357 111.063 8.65182V4.75943H110.259V4.0031L111.063 3.83246L111.191 1.95079H112.191V3.83246H113.794L113.653 4.75944ZM119.121 6.11071C119.121 6.40125 119.111 6.65029 119.093 6.86243C119.075 7.06996 119.057 7.25444 119.038 7.41585H115.626C115.667 8.20909 115.836 8.79482 116.138 9.17297C116.439 9.54653 116.873 9.73561 117.435 9.73561C117.631 9.73561 117.81 9.71255 117.965 9.66182C118.125 9.6157 118.262 9.56036 118.376 9.49579C118.495 9.43122 118.591 9.36205 118.668 9.29748C118.746 9.23291 118.805 9.18218 118.842 9.14528L119.262 9.94313C119.216 9.99386 119.143 10.0584 119.052 10.1507C118.961 10.2383 118.833 10.3259 118.677 10.4135C118.518 10.5058 118.326 10.5842 118.093 10.6487C117.86 10.7133 117.586 10.7456 117.271 10.7456C116.855 10.7456 116.476 10.6764 116.138 10.5334C115.8 10.3951 115.512 10.1737 115.274 9.87856C115.037 9.58802 114.854 9.20984 114.726 8.75789C114.594 8.30132 114.53 7.75712 114.53 7.12072C114.53 6.52119 114.598 6.00467 114.731 5.56655C114.868 5.13304 115.051 4.77331 115.279 4.49199C115.512 4.21068 115.781 4.00315 116.087 3.8694C116.394 3.73105 116.722 3.66648 117.074 3.66648C117.714 3.66648 118.216 3.8694 118.577 4.27524C118.942 4.68108 119.121 5.29445 119.121 6.11075L119.121 6.11071ZM117.006 4.59342C116.608 4.59342 116.289 4.75944 116.046 5.09611C115.804 5.43277 115.667 5.92162 115.626 6.55807H118.065C118.075 6.51196 118.079 6.44277 118.084 6.35514C118.088 6.26752 118.093 6.17067 118.093 6.06921C118.093 5.5988 117.997 5.23447 117.814 4.97621C117.627 4.71795 117.358 4.59343 117.006 4.59343L117.006 4.59342ZM123.561 4.82864C123.533 4.81018 123.474 4.78712 123.378 4.75946C123.287 4.73179 123.163 4.71795 123.003 4.71795C122.652 4.71795 122.378 4.8148 122.177 5.00389C121.976 5.19758 121.834 5.40511 121.752 5.63109V10.5795H120.624V3.83253H121.656V4.74567H121.683C121.729 4.61654 121.788 4.48741 121.861 4.35829C121.939 4.23377 122.03 4.11848 122.14 4.02162C122.254 3.92478 122.387 3.84637 122.537 3.79104C122.693 3.7357 122.876 3.70803 123.086 3.70803C123.246 3.70803 123.373 3.72186 123.469 3.74954C123.565 3.77721 123.643 3.80027 123.698 3.81871L123.561 4.82864ZM125.799 10.5797H124.675V3.83264H125.799V10.5797ZM125.246 2.20456C125.013 2.20456 124.826 2.13077 124.689 1.97858C124.547 1.831 124.479 1.63269 124.479 1.38827C124.479 1.15306 124.547 0.963977 124.689 0.811795C124.826 0.664217 125.013 0.585812 125.246 0.585812C125.466 0.585812 125.648 0.664217 125.785 0.811795C125.927 0.963989 125.995 1.15306 125.995 1.38827C125.995 1.63269 125.927 1.831 125.785 1.97858C125.648 2.13077 125.466 2.20456 125.246 2.20456ZM132.203 10.5797H131.171V9.81871H131.143C131.116 9.87405 131.057 9.95707 130.965 10.0631C130.869 10.1692 130.755 10.2753 130.609 10.3721C130.467 10.469 130.289 10.5566 130.088 10.635C129.883 10.7088 129.654 10.7457 129.403 10.7457C129.111 10.7457 128.841 10.6996 128.604 10.6119C128.371 10.5243 128.165 10.3814 128.001 10.1831C127.832 9.98936 127.704 9.7311 127.617 9.41749C127.53 9.10389 127.484 8.71649 127.484 8.25992V3.83259H128.613V8.17693C128.613 8.73496 128.704 9.13618 128.882 9.37597C129.065 9.61577 129.344 9.73569 129.727 9.73569C130.052 9.73569 130.326 9.65268 130.545 9.48665C130.769 9.32523 130.947 9.16382 131.075 9.0024V3.83258H132.203L132.203 10.5797ZM137.433 10.5796V6.23526C137.433 5.68185 137.356 5.28523 137.196 5.04083C137.04 4.79641 136.785 4.6765 136.433 4.6765C136.246 4.6765 136.081 4.69956 135.94 4.74567C135.793 4.79179 135.666 4.85174 135.556 4.92093C135.446 4.9901 135.346 5.0685 135.264 5.15151C135.181 5.23914 135.108 5.31293 135.053 5.3775V10.5795H133.93V3.83253H134.958V4.59348H134.985C135.031 4.51508 135.104 4.42284 135.195 4.31677C135.286 4.2107 135.401 4.10924 135.542 4.00777C135.679 3.91093 135.844 3.82792 136.031 3.76335C136.214 3.69878 136.424 3.6665 136.657 3.6665C137.415 3.6665 137.954 3.96627 138.269 4.56119C138.333 4.46895 138.425 4.3675 138.534 4.26142C138.644 4.15535 138.776 4.05389 138.922 3.96626C139.073 3.87864 139.238 3.80485 139.425 3.74951C139.612 3.69418 139.813 3.6665 140.037 3.6665C141.389 3.6665 142.07 4.45974 142.07 6.05537V10.5795H140.941V6.23518C140.941 5.68176 140.846 5.28515 140.649 5.04075C140.453 4.79632 140.165 4.67642 139.786 4.67642C139.471 4.67642 139.21 4.75482 139 4.90701C138.79 5.0638 138.626 5.21138 138.507 5.34974C138.525 5.4512 138.539 5.56189 138.548 5.68179C138.557 5.79709 138.562 5.9216 138.562 6.05535V10.5795L137.433 10.5796ZM49.7801 18.9268H48.4143V24.747H47.2906V18.9268H46.4821V18.1705L47.2906 18.0137V16.6671C47.2906 16.3028 47.3408 15.9892 47.4413 15.7263C47.5464 15.4634 47.6788 15.2467 47.8479 15.076C48.0123 14.91 48.2087 14.7855 48.428 14.7117C48.6518 14.6379 48.8893 14.601 49.1406 14.601C49.3827 14.601 49.5837 14.6333 49.7527 14.6979C49.9217 14.767 50.0313 14.8178 50.0861 14.8547L49.8486 15.7955C49.7938 15.7586 49.7161 15.7171 49.6111 15.6756C49.5106 15.634 49.3872 15.611 49.2365 15.611C48.967 15.611 48.766 15.6986 48.6244 15.8646C48.4874 16.0353 48.4143 16.3443 48.4143 16.7916V17.9999H49.9217L49.7801 18.9268ZM55.5676 24.7469H54.5398V23.9859H54.5124C54.485 24.0413 54.421 24.1243 54.3297 24.2304C54.2383 24.3364 54.1195 24.4425 53.9779 24.5394C53.8318 24.6362 53.6582 24.7238 53.4526 24.8022C53.2517 24.876 53.0233 24.9129 52.772 24.9129C52.4751 24.9129 52.2102 24.8668 51.9726 24.7792C51.7351 24.6915 51.5341 24.5486 51.3651 24.3503C51.2007 24.1566 51.0728 23.8983 50.986 23.5847C50.8946 23.2711 50.8535 22.8837 50.8535 22.4271V17.9998H51.9772V22.3442C51.9772 22.9022 52.0686 23.3034 52.2513 23.5432C52.4294 23.783 52.7126 23.9029 53.0918 23.9029C53.4161 23.9029 53.6902 23.8199 53.914 23.6539C54.1333 23.4925 54.3114 23.331 54.4439 23.1696V17.9998H55.5676L55.5676 24.7469ZM52.7994 16.0629C52.7994 16.275 52.7355 16.4503 52.603 16.584C52.4751 16.7131 52.3152 16.7777 52.1325 16.7777C51.9452 16.7777 51.7899 16.7131 51.6575 16.584C51.5296 16.4503 51.4656 16.275 51.4656 16.0629C51.4656 15.8461 51.5296 15.6709 51.6575 15.5417C51.7899 15.4126 51.9452 15.3434 52.1325 15.3434C52.3152 15.3434 52.4751 15.4126 52.603 15.5417C52.7355 15.6709 52.7994 15.8461 52.7994 16.0629ZM54.9417 16.0629C54.9417 16.275 54.8778 16.4503 54.7499 16.584C54.6174 16.7131 54.4621 16.7777 54.2748 16.7777C54.0875 16.7777 53.9322 16.7131 53.7998 16.584C53.6718 16.4503 53.6079 16.275 53.6079 16.0629C53.6079 15.8461 53.6719 15.6709 53.7998 15.5417C53.9322 15.4126 54.0875 15.3434 54.2748 15.3434C54.4621 15.3434 54.6174 15.4126 54.7499 15.5417C54.8778 15.6709 54.9417 15.8461 54.9417 16.0629ZM60.2313 18.996C60.2039 18.9776 60.1445 18.9545 60.0486 18.9268C59.9572 18.8992 59.8339 18.8853 59.674 18.8853C59.3223 18.8853 59.0436 18.9822 58.8472 19.1713C58.6462 19.365 58.5046 19.5725 58.4224 19.7985V24.7469H57.2941V17.9999H58.3219V18.9131H58.3539C58.3996 18.7839 58.459 18.6548 58.532 18.5257C58.6051 18.4011 58.701 18.2859 58.8107 18.189C58.9249 18.0922 59.0528 18.0137 59.2081 17.9584C59.3634 17.9031 59.5415 17.8754 59.7562 17.8754C59.9161 17.8754 60.044 17.8892 60.1399 17.9169C60.2404 17.9446 60.3135 17.9676 60.3683 17.9861L60.2313 18.996ZM69.2483 17.5249C69.2483 17.8616 69.2072 18.1567 69.125 18.4104C69.0382 18.6594 68.924 18.8762 68.7824 19.0606C68.6362 19.2451 68.4718 19.3927 68.2799 19.5034C68.0926 19.6141 67.8917 19.7017 67.6907 19.757V19.7847C67.9419 19.8308 68.1749 19.9184 68.3941 20.0522C68.6088 20.1813 68.8007 20.3473 68.9651 20.541C69.125 20.7393 69.2575 20.9699 69.3534 21.2374C69.4493 21.5049 69.4996 21.8 69.4996 22.1182C69.4996 22.501 69.4356 22.8515 69.3031 23.1697C69.1752 23.4879 68.9742 23.7647 68.7002 23.9999C68.4261 24.235 68.0789 24.4149 67.6633 24.5487C67.243 24.6778 66.7497 24.747 66.1742 24.747H64.21V15.0484H66.0599C66.6264 15.0484 67.1105 15.1083 67.5171 15.2236C67.9191 15.3435 68.2525 15.5096 68.5083 15.7263C68.7687 15.9385 68.956 16.2013 69.0747 16.5057C69.189 16.8101 69.2483 17.1468 69.2483 17.5249V17.5249ZM68.0241 17.5664C68.0241 17.1145 67.8642 16.7455 67.549 16.455C67.2339 16.1644 66.7405 16.0215 66.06 16.0215H65.4205V19.365H66.0463C66.6949 19.365 67.1882 19.2036 67.5217 18.8854C67.8551 18.5672 68.0241 18.129 68.0241 17.5664L68.0241 17.5664ZM68.2023 22.0305C68.2023 21.5094 68.0333 21.0943 67.6953 20.7899C67.3572 20.4856 66.873 20.3334 66.2427 20.3334H65.4204V23.7323H66.1741C66.8867 23.7323 67.4029 23.5893 67.7226 23.3034C68.0424 23.0174 68.2023 22.5932 68.2023 22.0305H68.2023ZM72.1124 24.7469H70.9887V17.9999H72.1124V24.7469ZM71.5597 16.3718C71.3267 16.3718 71.1395 16.298 71.0024 16.1458C70.8608 15.9983 70.7923 15.8 70.7923 15.5555C70.7923 15.3203 70.8608 15.1312 71.0024 14.9791C71.1395 14.8315 71.3267 14.7531 71.5597 14.7531C71.779 14.7531 71.9617 14.8315 72.0987 14.9791C72.2403 15.1312 72.3089 15.3203 72.3089 15.5555C72.3089 15.8 72.2403 15.9983 72.0987 16.1458C71.9617 16.298 71.779 16.3718 71.5597 16.3718ZM74.9536 23.1696C74.9536 23.4509 74.9901 23.6492 75.0724 23.7599C75.15 23.8752 75.2871 23.9306 75.4835 23.9306C75.5839 23.9306 75.6708 23.9213 75.7393 23.9029C75.8078 23.8844 75.8626 23.866 75.8992 23.8429L75.995 24.6869C75.9402 24.7146 75.8397 24.7514 75.689 24.8022C75.5428 24.8483 75.3418 24.8714 75.0906 24.8714C74.7115 24.8714 74.4054 24.7514 74.1725 24.5209C73.9441 24.2856 73.8253 23.8706 73.8253 23.271V14.813L74.9536 14.6838L74.9536 23.1696ZM76.7076 21.4724C76.7076 20.7852 76.7944 20.2134 76.9726 19.7568C77.1461 19.2957 77.3745 18.9267 77.6532 18.6454C77.9318 18.3641 78.247 18.1658 78.5987 18.0505C78.9505 17.9306 79.3022 17.8752 79.6585 17.8752C79.8686 17.8752 80.0559 17.889 80.2112 17.9213C80.3711 17.9582 80.499 17.9951 80.604 18.0412V14.8129L81.7323 14.6838V24.7467H80.7V24.0273H80.6726C80.6452 24.0826 80.5949 24.161 80.5218 24.2578C80.4442 24.3593 80.3437 24.4562 80.2112 24.553C80.0833 24.6545 79.9189 24.7375 79.727 24.8066C79.5306 24.8758 79.3022 24.9127 79.0419 24.9127C78.7312 24.9127 78.4298 24.8481 78.1465 24.7236C77.8633 24.5991 77.6167 24.3962 77.402 24.1195C77.1873 23.8428 77.0183 23.4877 76.895 23.0495C76.7716 22.616 76.7077 22.0903 76.7077 21.4723L76.7076 21.4724ZM79.3524 23.9028C79.526 23.9028 79.6859 23.8797 79.8229 23.829C79.9645 23.7829 80.0833 23.7275 80.1838 23.6537C80.2888 23.5846 80.3756 23.5108 80.4442 23.437C80.5127 23.3632 80.5675 23.2986 80.604 23.2387V19.0835C80.499 19.0143 80.3848 18.959 80.2478 18.9128C80.1153 18.8667 79.9463 18.8437 79.7407 18.8437C79.4804 18.8437 79.2382 18.8852 79.0099 18.9774C78.7815 19.065 78.585 19.2126 78.4206 19.4201C78.2516 19.6231 78.1191 19.8905 78.0232 20.2226C77.9227 20.55 77.877 20.9513 77.877 21.4262C77.877 21.8966 77.9135 22.2886 77.9958 22.6022C78.0734 22.9158 78.1831 23.1695 78.3201 23.3586C78.4617 23.5523 78.617 23.6906 78.7952 23.7736C78.9687 23.8613 79.156 23.9028 79.3524 23.9028ZM88.1319 24.7467H87.0996V23.9858H87.0722C87.0448 24.0411 86.9854 24.1241 86.8941 24.2302C86.8027 24.3363 86.6794 24.4424 86.5378 24.5392C86.3962 24.636 86.2226 24.7237 86.017 24.8021C85.8115 24.8759 85.5831 24.9128 85.3364 24.9128C85.0349 24.9128 84.77 24.8666 84.5325 24.779C84.2995 24.6914 84.0939 24.5484 83.9295 24.3501C83.7605 24.1564 83.6326 23.8982 83.5458 23.5846C83.459 23.271 83.4133 22.8836 83.4133 22.427V17.9997H84.5416V22.344C84.5416 22.902 84.6329 23.3033 84.8111 23.543C84.9938 23.7828 85.2724 23.9028 85.6561 23.9028C85.9804 23.9028 86.2545 23.8197 86.4738 23.6537C86.6976 23.4923 86.8757 23.3309 87.0036 23.1695V17.9997H88.1319V24.7467ZM93.5038 24.7467V20.4023C93.5038 19.8305 93.4079 19.42 93.216 19.1709C93.0287 18.9265 92.7364 18.802 92.3481 18.802C92.0147 18.802 91.736 18.885 91.5122 19.0556C91.2884 19.2217 91.1148 19.3877 90.9869 19.5445V24.7465H89.8586V17.9995H90.8864V18.7605H90.9138C90.9411 18.7051 91.0005 18.6221 91.0965 18.5114C91.1878 18.4054 91.3066 18.3039 91.4573 18.2024C91.6035 18.1056 91.7817 18.018 91.9872 17.9442C92.1882 17.8704 92.4212 17.8335 92.6815 17.8335C92.9784 17.8335 93.2479 17.875 93.49 17.9672C93.7321 18.0549 93.9331 18.1978 94.1021 18.3915C94.2666 18.5898 94.3991 18.8481 94.4904 19.1571C94.5817 19.4707 94.6274 19.8581 94.6274 20.3193V24.7466L93.5038 24.7467ZM101.1 18.8851H100.264C100.479 19.2402 100.589 19.646 100.589 20.0933C100.589 20.4484 100.529 20.7712 100.41 21.0572C100.296 21.3431 100.132 21.5829 99.9262 21.7812C99.7161 21.9749 99.4694 22.1271 99.1862 22.2286C98.903 22.3346 98.6016 22.3854 98.2772 22.3854H98.0945C98.0397 22.3854 97.9803 22.3762 97.9164 22.3669C97.8021 22.4177 97.688 22.4914 97.5646 22.5929C97.4459 22.699 97.3865 22.8327 97.3865 23.0034C97.3865 23.1417 97.4368 23.257 97.5464 23.3446C97.6514 23.4369 97.825 23.4784 98.0671 23.4784H98.9167C99.2319 23.4784 99.5243 23.5107 99.7938 23.5798C100.063 23.6444 100.296 23.7505 100.497 23.8934C100.694 24.041 100.849 24.2255 100.963 24.4515C101.073 24.6728 101.128 24.9449 101.128 25.2631C101.128 25.6275 101.05 25.9595 100.899 26.2593C100.744 26.5591 100.529 26.8173 100.251 27.0341C99.9719 27.2508 99.6339 27.4169 99.2365 27.5414C98.8391 27.6613 98.3914 27.7212 97.8981 27.7212C97.1855 27.7212 96.642 27.5644 96.272 27.2508C95.902 26.9372 95.7147 26.4853 95.7147 25.895C95.7147 25.6414 95.7604 25.4246 95.8472 25.2447C95.934 25.0603 96.039 24.9035 96.1624 24.7651C96.2811 24.6268 96.4045 24.5207 96.5278 24.4423C96.6557 24.3639 96.7562 24.2993 96.8293 24.2532V24.2255C96.5415 24.0088 96.3999 23.6952 96.3999 23.2847C96.3999 23.1048 96.4318 22.948 96.5004 22.8189C96.5734 22.6898 96.6511 22.5791 96.7379 22.4961C96.8247 22.4131 96.916 22.3439 97.0028 22.2932C97.0896 22.2424 97.1581 22.2055 97.2038 22.1871V22.1594C96.8612 21.998 96.5826 21.749 96.377 21.4077C96.1669 21.0664 96.0618 20.6283 96.0618 20.0933C96.0618 19.7197 96.1258 19.3877 96.2446 19.1018C96.3633 18.8158 96.5278 18.5806 96.7288 18.3916C96.9343 18.2071 97.1764 18.0641 97.4459 17.9719C97.72 17.8796 98.0169 17.8335 98.3321 17.8335C98.6473 17.8335 98.9442 17.8889 99.2228 17.9996H101.256L101.1 18.8851ZM97.9986 24.5345C97.8022 24.5345 97.6332 24.5207 97.4824 24.4884C97.4002 24.5392 97.318 24.5945 97.2403 24.6591C97.1581 24.7236 97.0896 24.8066 97.0211 24.8989C96.9571 24.9911 96.9068 25.1018 96.8612 25.2263C96.82 25.3554 96.8018 25.503 96.8018 25.669C96.8018 26.3931 97.1946 26.7528 97.9849 26.7528C98.6609 26.7528 99.1634 26.6191 99.4877 26.3516C99.8121 26.0841 99.9719 25.7797 99.9719 25.4338C99.9719 25.1064 99.8715 24.8712 99.6659 24.7375C99.4649 24.6037 99.1908 24.5345 98.8482 24.5345L97.9986 24.5345ZM99.4877 20.0934C99.4877 19.6046 99.3735 19.2587 99.1451 19.0557C98.9168 18.8482 98.6518 18.7467 98.3458 18.7467C98.0214 18.7467 97.7428 18.8482 97.5098 19.0557C97.2769 19.2587 97.1627 19.6045 97.1627 20.0934C97.1627 20.5823 97.2769 20.9281 97.5098 21.1311C97.7428 21.3386 98.0123 21.4401 98.3184 21.4401C98.6427 21.4401 98.9168 21.3386 99.1451 21.1311C99.3735 20.9281 99.4877 20.5823 99.4877 20.0934V20.0934ZM51.6438 38.9137H50.616V38.1527H50.5886C50.5612 38.2081 50.4973 38.2911 50.4059 38.3972C50.3146 38.5032 50.1958 38.6093 50.0496 38.7062C49.908 38.803 49.7344 38.8906 49.5289 38.969C49.3279 39.0428 49.0995 39.0797 48.8483 39.0797C48.5514 39.0797 48.2819 39.0336 48.0489 38.946C47.8114 38.8584 47.6104 38.7154 47.4414 38.5171C47.2769 38.3234 47.149 38.0651 47.0577 37.7515C46.9709 37.4379 46.9252 37.0505 46.9252 36.594V32.1666H48.0535V36.511C48.0535 37.069 48.1448 37.4702 48.3275 37.71C48.5057 37.9498 48.7889 38.0697 49.168 38.0697C49.4923 38.0697 49.7664 37.9867 49.9902 37.8207C50.2141 37.6593 50.3876 37.4979 50.5155 37.3364V32.1666H51.6438L51.6438 38.9137ZM57.0157 38.9136V34.5693C57.0157 33.9974 56.9198 33.587 56.7325 33.3379C56.5406 33.0935 56.2528 32.969 55.86 32.969C55.5266 32.969 55.2479 33.052 55.0287 33.2226C54.8048 33.3886 54.6267 33.5547 54.4988 33.7115V38.9135H53.3705V32.1665H54.3983V32.9274H54.4257C54.4577 32.8721 54.5171 32.7891 54.6084 32.6784C54.6998 32.5723 54.8231 32.4709 54.9693 32.3694C55.12 32.2726 55.2936 32.1849 55.4992 32.1111C55.7047 32.0374 55.9377 32.0005 56.1981 32.0005C56.4904 32.0005 56.7599 32.042 57.002 32.1342C57.2441 32.2218 57.4497 32.3648 57.6141 32.5585C57.7831 32.7568 57.911 33.0151 58.0069 33.3241C58.0983 33.6377 58.144 34.0251 58.144 34.4862V38.9136L57.0157 38.9136ZM59.5235 35.6392C59.5235 34.9521 59.6103 34.3802 59.7839 33.9237C59.962 33.4625 60.1904 33.0936 60.4691 32.8122C60.7477 32.5309 61.0629 32.3326 61.4146 32.2173C61.7663 32.0974 62.1181 32.042 62.4698 32.042C62.6845 32.042 62.8717 32.0559 63.0271 32.0882C63.1869 32.1251 63.3148 32.1619 63.4199 32.2081V28.9798L64.5436 28.8506V38.9136H63.5158V38.1941H63.4884C63.461 38.2494 63.4108 38.3278 63.3331 38.4247C63.26 38.5262 63.1595 38.623 63.0271 38.7198C62.8992 38.8213 62.7347 38.9043 62.5429 38.9735C62.3464 39.0427 62.118 39.0796 61.8577 39.0796C61.5425 39.0796 61.2456 39.015 60.9624 38.8905C60.6792 38.7659 60.4279 38.563 60.2178 38.2863C60.0031 38.0096 59.8341 37.6545 59.7108 37.2164C59.5829 36.7829 59.5235 36.2571 59.5235 35.6392V35.6392ZM62.1637 38.0696C62.3419 38.0696 62.4972 38.0466 62.6388 37.9958C62.7758 37.9497 62.8992 37.8944 62.9996 37.8206C63.1001 37.7514 63.1869 37.6776 63.2554 37.6038C63.3285 37.53 63.3788 37.4655 63.4199 37.4055V33.2503C63.3148 33.1811 63.196 33.1258 63.0636 33.0797C62.9265 33.0336 62.7575 33.0105 62.5565 33.0105C62.2962 33.0105 62.0495 33.052 61.8257 33.1443C61.5973 33.2319 61.4009 33.3795 61.2319 33.587C61.0674 33.7899 60.9349 34.0574 60.8345 34.3894C60.7385 34.7123 60.6883 35.1181 60.6883 35.5931C60.6883 36.0635 60.7294 36.4555 60.8071 36.7691C60.8893 37.0827 60.9943 37.3363 61.1359 37.5254C61.273 37.7191 61.4329 37.8575 61.611 37.9405C61.7846 38.0281 61.9719 38.0696 62.1637 38.0696V38.0696ZM69.4586 38.9136V29.215H74.1726L74.0904 30.1881H70.6691V33.7668H73.8255V34.7399H70.6691V38.9136L69.4586 38.9136ZM75.0223 35.5378C75.0223 34.9198 75.0954 34.3894 75.237 33.9374C75.3832 33.4855 75.575 33.1211 75.8217 32.8352C76.0684 32.5493 76.3516 32.3371 76.6713 32.2034C76.9911 32.065 77.3337 32.0005 77.6945 32.0005C78.0645 32.0005 78.4071 32.065 78.7269 32.2034C79.0375 32.3371 79.3115 32.5493 79.5445 32.8352C79.7775 33.1211 79.9602 33.4855 80.0972 33.9374C80.2297 34.3894 80.2982 34.9197 80.2982 35.5378C80.2982 36.165 80.2297 36.7045 80.0881 37.1565C79.9511 37.6039 79.7546 37.9728 79.5125 38.2587C79.2659 38.5447 78.9781 38.7522 78.6538 38.8813C78.3295 39.015 77.9869 39.0796 77.626 39.0796C77.256 39.0796 76.9134 39.015 76.5937 38.8813C76.2785 38.7522 76.0044 38.5446 75.776 38.2587C75.543 37.9728 75.3603 37.6085 75.2233 37.1611C75.0908 36.7184 75.0223 36.1742 75.0223 35.5378ZM79.1288 35.5378C79.1288 34.6384 79.0009 33.9882 78.7405 33.5777C78.4802 33.1718 78.1148 32.9689 77.6534 32.9689C77.1875 32.9689 76.8312 33.1719 76.5754 33.5777C76.3196 33.9881 76.1917 34.6384 76.1917 35.5378C76.1917 36.4371 76.3241 37.0827 76.5799 37.4793C76.8403 37.8713 77.2057 38.0696 77.6671 38.0696C78.133 38.0696 78.4893 37.8713 78.7451 37.4793C79.0009 37.0827 79.1288 36.437 79.1288 35.5378ZM84.6514 33.1627C84.6241 33.1442 84.5647 33.1212 84.4733 33.0935C84.3774 33.0658 84.254 33.052 84.0942 33.052C83.7424 33.052 83.4684 33.1489 83.2674 33.3379C83.0664 33.5316 82.9248 33.7392 82.8426 33.9651V38.9136H81.7143V32.1666H82.7466V33.0797H82.774C82.8197 32.9506 82.879 32.8215 82.9567 32.6923C83.0298 32.5678 83.1212 32.4525 83.2308 32.3557C83.345 32.2588 83.4774 32.1804 83.6282 32.1251C83.7835 32.0698 83.9662 32.0421 84.1809 32.0421C84.3362 32.0421 84.4641 32.0559 84.5646 32.0836C84.6605 32.1113 84.7336 32.1343 84.793 32.1528L84.6514 33.1627ZM88.5889 33.5317C88.5158 33.4441 88.3833 33.3288 88.1869 33.1858C87.9905 33.0383 87.7393 32.9691 87.4195 32.9691C87.1226 32.9691 86.8988 33.0383 86.7389 33.1766C86.5836 33.3196 86.5059 33.4856 86.5059 33.6839C86.5059 33.9376 86.5745 34.1451 86.7206 34.3111C86.8622 34.4725 87.0815 34.6478 87.383 34.8369L87.7987 35.0905C88.2509 35.3626 88.6117 35.6532 88.8675 35.9668C89.1279 36.2804 89.2604 36.6862 89.2604 37.1842C89.2604 37.7146 89.0731 38.1665 88.7077 38.5308C88.3422 38.8952 87.8169 39.0796 87.1271 39.0796C86.8622 39.0796 86.6247 39.052 86.4191 38.9966C86.2181 38.9367 86.0354 38.8721 85.8847 38.7983C85.7294 38.7245 85.6015 38.6415 85.501 38.5539C85.4005 38.4617 85.3137 38.3833 85.2497 38.3049L85.7933 37.4056C85.8482 37.4655 85.9166 37.5301 85.9943 37.6039C86.0765 37.6776 86.1679 37.7514 86.2821 37.8206C86.3916 37.8944 86.5196 37.9497 86.6566 37.9959C86.7982 38.0466 86.9581 38.0697 87.1454 38.0697C87.4789 38.0697 87.7347 37.9912 87.9082 37.8437C88.0864 37.6915 88.1732 37.5116 88.1732 37.2949C88.1732 37.1335 88.1504 36.9997 88.1092 36.8798C88.068 36.7645 88.0042 36.6584 87.9219 36.5662C87.8397 36.4694 87.7392 36.3817 87.6159 36.2987C87.4971 36.2157 87.3555 36.1189 87.2002 36.0174L86.78 35.7499C86.3643 35.4778 86.0354 35.1919 85.8024 34.8921C85.5649 34.5924 85.4461 34.2096 85.4461 33.7392C85.4461 33.4855 85.4964 33.2549 85.5923 33.0428C85.6882 32.8353 85.8253 32.6508 86.0034 32.4986C86.177 32.3418 86.3871 32.2219 86.6201 32.1343C86.8576 32.042 87.1088 32.0005 87.3829 32.0005C87.6387 32.0005 87.8625 32.0236 88.0498 32.0743C88.2326 32.1297 88.3924 32.1942 88.5295 32.2726C88.6619 32.3511 88.7761 32.4341 88.8629 32.5125C88.9497 32.5909 89.0228 32.66 89.0776 32.7154L88.5889 33.5317ZM94.2986 33.4717C94.2667 33.444 94.2256 33.4025 94.1662 33.3472C94.1022 33.2918 94.0291 33.2365 93.9332 33.1766C93.8419 33.1212 93.7322 33.0751 93.5998 33.029C93.4719 32.9875 93.3211 32.969 93.1567 32.969C92.9146 32.969 92.6908 33.0151 92.4806 33.1028C92.2705 33.1904 92.0924 33.3334 91.937 33.5317C91.7863 33.7254 91.663 33.9836 91.5762 34.2972C91.4894 34.6108 91.4437 34.989 91.4437 35.441C91.4437 35.939 91.4849 36.3541 91.5625 36.6908C91.6401 37.0274 91.7498 37.2995 91.8868 37.4978C92.0284 37.7007 92.1974 37.8437 92.3984 37.9359C92.5948 38.0236 92.8141 38.0697 93.0562 38.0697C93.3988 38.0697 93.6637 38.0051 93.8419 37.8852C94.0246 37.7653 94.1525 37.6638 94.2256 37.59L94.6869 38.3787C94.6412 38.434 94.5727 38.4986 94.4814 38.5816C94.3946 38.66 94.2804 38.7384 94.1433 38.8122C94.0063 38.886 93.8327 38.9505 93.6363 39.0013C93.4353 39.052 93.2069 39.0797 92.9466 39.0797C92.5765 39.0797 92.2294 39.0197 91.9005 38.8952C91.5762 38.7753 91.293 38.5724 91.0554 38.2911C90.8134 38.0097 90.6215 37.6454 90.4845 37.1981C90.3429 36.7461 90.2743 36.1881 90.2743 35.5239C90.2743 34.8783 90.3565 34.3295 90.5256 33.8822C90.6946 33.4302 90.9093 33.0705 91.1788 32.7938C91.4483 32.5171 91.7452 32.3142 92.0787 32.1896C92.4075 32.0605 92.7364 32.0005 93.0699 32.0005C93.3211 32.0005 93.5404 32.0236 93.7322 32.0697C93.9241 32.1158 94.084 32.1758 94.221 32.245C94.3535 32.3141 94.4677 32.3879 94.5544 32.471C94.6412 32.5494 94.7143 32.6185 94.7691 32.6739L94.2986 33.4717ZM99.5974 38.9137V34.5694C99.5974 33.9975 99.5015 33.5871 99.3142 33.338C99.1223 33.0936 98.8345 32.969 98.4417 32.969C98.1082 32.969 97.8296 33.052 97.6058 33.2227C97.3865 33.3887 97.2084 33.5547 97.0805 33.7115V38.9136H95.9522V28.9797L97.0805 28.8506V32.8536H97.1078C97.1443 32.7983 97.2037 32.7245 97.2814 32.6322C97.3591 32.5354 97.4687 32.4431 97.6058 32.3509C97.7474 32.2541 97.9164 32.1757 98.1174 32.1019C98.3138 32.0327 98.5513 32.0004 98.8162 32.0004C99.4009 32.0004 99.8668 32.1895 100.209 32.5769C100.552 32.9597 100.726 33.5961 100.726 34.4862V38.9135L99.5974 38.9137ZM107.084 38.9135H106.056V38.1526H106.024C106.002 38.2079 105.938 38.2909 105.846 38.397C105.755 38.5031 105.636 38.6091 105.49 38.706C105.348 38.8028 105.175 38.8905 104.969 38.9689C104.764 39.0426 104.54 39.0795 104.289 39.0795C103.992 39.0795 103.722 39.0334 103.489 38.9458C103.252 38.8582 103.051 38.7152 102.882 38.5169C102.713 38.3232 102.589 38.065 102.498 37.7513C102.411 37.4377 102.366 37.0504 102.366 36.5938V32.1664H103.494V36.5108C103.494 37.0688 103.585 37.47 103.768 37.7098C103.946 37.9496 104.225 38.0695 104.608 38.0695C104.933 38.0695 105.207 37.9865 105.431 37.8205C105.65 37.6591 105.828 37.4977 105.956 37.3363V32.1664H107.084L107.084 38.9135ZM112.456 38.9135V34.5691C112.456 33.9972 112.36 33.5868 112.168 33.3377C111.981 33.0933 111.693 32.9688 111.3 32.9688C110.967 32.9688 110.688 33.0518 110.464 33.2224C110.245 33.3885 110.067 33.5545 109.939 33.7113V38.9133H108.811V32.1663H109.839V32.9273H109.866C109.898 32.8719 109.957 32.7889 110.049 32.6782C110.14 32.5722 110.263 32.4707 110.41 32.3692C110.56 32.2724 110.734 32.1848 110.939 32.111C111.145 32.0372 111.373 32.0003 111.634 32.0003C111.931 32.0003 112.2 32.0418 112.442 32.134C112.684 32.2217 112.885 32.3646 113.054 32.5583C113.223 32.7566 113.351 33.0149 113.443 33.3239C113.534 33.6375 113.584 34.0249 113.584 34.4861V38.9134L112.456 38.9135ZM120.052 33.0518H119.221C119.431 33.407 119.541 33.8128 119.541 34.2601C119.541 34.6152 119.481 34.938 119.367 35.224C119.248 35.5099 119.088 35.7497 118.878 35.948C118.668 36.1417 118.422 36.2939 118.143 36.3954C117.86 36.5014 117.554 36.5522 117.229 36.5522H117.047C116.992 36.5522 116.932 36.543 116.869 36.5337C116.754 36.5844 116.64 36.6582 116.521 36.7597C116.398 36.8658 116.339 36.9995 116.339 37.1701C116.339 37.3085 116.393 37.4238 116.498 37.5114C116.604 37.6037 116.777 37.6452 117.019 37.6452H117.869C118.184 37.6452 118.476 37.6774 118.746 37.7466C119.015 37.8112 119.248 37.9173 119.449 38.0602C119.65 38.2078 119.806 38.3923 119.915 38.6183C120.025 38.8396 120.08 39.1117 120.08 39.4299C120.08 39.7943 120.007 40.1263 119.851 40.4261C119.701 40.7259 119.481 40.9841 119.207 41.2009C118.929 41.4176 118.586 41.5836 118.189 41.7082C117.791 41.8281 117.344 41.888 116.855 41.888C116.138 41.888 115.599 41.7312 115.224 41.4176C114.854 41.104 114.667 40.652 114.667 40.0618C114.667 39.8081 114.713 39.5914 114.799 39.4115C114.891 39.227 114.991 39.0702 115.115 38.9319C115.233 38.7935 115.357 38.6875 115.485 38.6091C115.608 38.5307 115.708 38.4661 115.781 38.42V38.3923C115.494 38.1756 115.352 37.8619 115.352 37.4515C115.352 37.2716 115.384 37.1148 115.457 36.9857C115.526 36.8566 115.603 36.7459 115.69 36.6629C115.777 36.5799 115.868 36.5107 115.955 36.4599C116.042 36.4092 116.11 36.3723 116.156 36.3539V36.3262C115.813 36.1648 115.539 35.9157 115.329 35.5745C115.119 35.2332 115.019 34.7951 115.019 34.2601C115.019 33.8865 115.078 33.5545 115.197 33.2686C115.32 32.9826 115.48 32.7474 115.686 32.5583C115.891 32.3739 116.129 32.2309 116.403 32.1387C116.677 32.0464 116.969 32.0003 117.284 32.0003C117.599 32.0003 117.896 32.0557 118.175 32.1663H120.208L120.052 33.0518ZM116.951 38.7013C116.754 38.7013 116.585 38.6875 116.435 38.6552C116.352 38.7059 116.27 38.7613 116.193 38.8258C116.115 38.8904 116.042 38.9734 115.978 39.0657C115.909 39.1579 115.859 39.2686 115.818 39.3931C115.772 39.5222 115.754 39.6698 115.754 39.8358C115.754 40.5599 116.147 40.9196 116.937 40.9196C117.613 40.9196 118.116 40.7859 118.44 40.5184C118.764 40.2509 118.929 39.9465 118.929 39.6006C118.929 39.2732 118.824 39.038 118.623 38.9043C118.417 38.7705 118.143 38.7013 117.8 38.7013L116.951 38.7013ZM118.44 34.2602C118.44 33.7713 118.326 33.4255 118.097 33.2225C117.869 33.015 117.604 32.9135 117.298 32.9135C116.974 32.9135 116.695 33.015 116.462 33.2225C116.234 33.4255 116.115 33.7713 116.115 34.2602C116.115 34.749 116.234 35.0949 116.462 35.2978C116.695 35.5054 116.965 35.6068 117.271 35.6068C117.595 35.6068 117.869 35.5054 118.097 35.2978C118.326 35.0949 118.44 34.749 118.44 34.2602"/>
<path opacity="0.3" d="M36.7529 48.3549H38.507V71.9674H34.4142V48.3549"/>
<path opacity="0.6" d="M36.7529 24.6268H38.507V48.355H34.4142V24.6268"/>
<path d="M23.7621 9.38499C24.9589 11.2989 25.8953 11.2667 27.3114 11.2667C26.1421 10.3581 25.3655 9.20057 24.9955 8.60566L22.812 5.073C22.5973 3.98 22.0401 2.96536 21.2041 2.20444C21.4828 2.09838 21.7157 1.98308 21.8573 1.87701C20.4321 1.87701 19.0161 1.14374 18.235 1.14374C17.7371 1.14374 17.4127 1.44351 17.4127 1.84473C17.4447 2.28747 17.9015 2.74404 18.7374 2.74404C18.9293 2.74404 19.1714 2.71636 19.4363 2.67486C19.8931 3.31129 20.2585 3.88772 20.2585 4.71332C20.2585 6.25829 18.4268 7.46653 16.5768 7.46653C16.4718 7.46653 16.3713 7.46193 16.2662 7.4527C16.1018 7.06992 15.5445 6.42427 15.5445 5.69558C15.5445 4.46419 16.3393 3.45889 16.3393 2.24131C16.3393 1.48959 15.9693 1.01913 15.8323 0.825513C16.0607 0.613367 16.3074 0.350502 16.3622 0.170634C16.2343 0.22597 16.0744 0.235202 15.846 0.235202C14.9598 0.235202 14.2381 0 13.5346 0C13.1326 0 13.023 0.129136 13.023 0.24904C13.023 0.29055 13.0321 0.336665 13.0413 0.359723C12.8951 0.295155 12.7535 0.258261 12.5845 0.225983C12.3789 0.189088 12.1551 0.166029 11.9176 0.166029C11.0588 0.166029 10.7528 0.530358 10.7528 0.839351C10.7528 1.10223 10.9583 1.58186 11.1913 1.94618C11.5248 1.78016 11.9267 1.66487 12.1094 1.66487C12.5617 1.66487 12.9682 2.10298 13.1829 2.6195C12.8768 2.6564 12.8175 2.67023 12.5069 2.67023C11.6755 2.67023 11.1091 2.36586 10.9903 2.36586C10.9812 2.36586 10.9583 2.37507 10.9583 2.39353C10.9583 2.50883 11.1958 2.82243 11.6618 2.99307C12.2739 3.21905 13.192 3.31589 13.3473 3.33895C13.3473 3.36662 13.192 3.66178 13.0184 3.71712C12.9819 3.72632 12.9499 3.73095 12.9088 3.72172C12.2693 3.59258 12.0866 3.53725 11.2781 3.22826C11.2507 3.21905 11.237 3.23286 11.237 3.26053C11.237 3.58336 12.0683 4.3028 12.813 4.57492C12.1917 5.37738 11.4152 6.19828 11.0452 7.45269C10.9447 7.46189 10.8442 7.46652 10.7392 7.46652C8.8892 7.46652 7.05749 6.25827 7.05749 4.71331C7.05749 3.8878 7.42292 3.31132 7.8797 2.67485C8.14463 2.71636 8.38673 2.74402 8.57859 2.74402C9.41451 2.74402 9.87134 2.28745 9.90326 1.84472C9.90326 1.4435 9.57895 1.14373 9.07648 1.14373C8.29994 1.14373 6.88389 1.877 5.45409 1.877C5.59569 1.98307 5.83323 2.09837 6.11187 2.20443C5.27595 2.96538 4.71867 3.97997 4.50398 5.07299L2.31595 8.60565C1.95052 9.20057 1.17398 10.3582 0 11.2666C1.416 11.2666 2.357 11.2989 3.55386 9.38497L4.67298 7.57248C4.7552 7.80769 4.86027 8.03827 4.97904 8.26426L2.74997 11.8661C2.3754 12.461 1.608 13.614 0.434016 14.5225C1.85001 14.5225 2.78645 14.5548 3.98331 12.6455L5.90179 9.54181C6.04796 9.69861 6.19871 9.8508 6.35857 9.99376L3.64983 14.3703C3.27526 14.9699 2.51242 16.1182 1.33387 17.0267C2.74987 17.0267 3.68631 17.0636 4.88317 15.1498L7.52339 10.8838C7.69697 10.9945 7.87512 11.1006 8.05783 11.202L4.83748 16.4088C4.46292 17.0084 3.70007 18.1521 2.52153 19.0652C3.93753 19.0652 4.87397 19.0975 6.07082 17.1883L9.39162 11.8247C9.58804 11.9031 9.78446 11.9723 9.99002 12.0415L6.23982 18.1014C5.87439 18.6917 5.08872 19.8539 3.92387 20.7578C5.33987 20.7578 6.27631 20.79 7.47317 18.8808L11.4701 12.4196C11.5112 12.4288 11.5523 12.4334 11.5934 12.4427C11.7031 12.7932 11.7761 13.116 11.7761 13.4434C11.7761 15.4727 10.456 17.262 8.87551 18.6455C8.976 18.6916 9.14959 18.7101 9.31402 18.7101C9.64291 18.7101 9.85304 18.6916 9.99921 18.6639C9.63378 19.5033 8.8481 20.5917 8.45072 21.1543C7.92998 21.0621 7.17633 20.9883 6.68297 20.9883C6.1668 20.9883 6.10741 21.2927 6.10741 21.5648C6.10741 22.0398 6.32667 22.4134 6.58247 22.6255C6.6784 22.3811 6.87024 22.0583 7.82494 22.0583C7.84321 22.0583 7.87519 22.0629 7.92086 22.0629C7.64222 22.3765 6.76976 23.0913 6.76976 23.6632C6.76976 24.046 7.18087 24.6132 7.72445 24.6132C7.69248 24.4933 7.69704 24.378 7.69704 24.295C7.69704 23.8292 8.10815 23.285 8.45074 22.9068C8.44162 23.0175 8.44618 23.0083 8.44618 23.1374C8.44618 24.2396 8.54668 24.7424 9.23642 24.7424C9.57444 24.7424 9.80741 24.5579 9.88963 24.4979C9.4374 24.0829 9.41914 23.7554 9.41914 23.1375V22.6026C9.4237 22.4642 9.41914 22.2751 9.3963 22.1414C9.64297 22.1091 9.74347 22.1091 9.93531 22.1091C9.93531 22.1091 10.9174 22.0307 11.155 22.5472C11.4199 22.2982 11.8082 21.9523 11.8082 21.5649C11.8082 21.3113 11.6894 21.0253 11.1824 21.0253C10.9905 21.0253 10.3876 21.1452 9.88506 21.1452C10.0175 20.8409 10.6205 19.9508 11.1458 19.3051C11.2234 19.5542 11.3468 19.8263 11.6208 20.0476C11.6574 19.6326 11.8995 18.3182 12.5435 17.548C12.6166 18.0691 12.7171 18.5995 12.7171 19.7248C12.7171 22.455 12.0685 24.4703 10.689 24.8578C10.8671 25.1714 11.2462 25.4574 11.6436 25.4574C12.1461 25.4574 12.4202 24.8809 12.7034 24.3367C12.8496 24.7379 13.2515 25.7203 13.6581 25.7203C14.0601 25.7203 14.4666 24.7379 14.6128 24.3367C14.8914 24.8809 15.1655 25.4574 15.6725 25.4574C16.0654 25.4574 16.4491 25.1714 16.6272 24.8578C15.2477 24.4704 14.5945 22.455 14.5945 19.7248C14.5945 18.5996 14.695 18.0692 14.7726 17.548C15.4121 18.3182 15.6542 19.6325 15.6908 20.0476C15.9649 19.8263 16.0928 19.5542 16.1704 19.3051C16.6911 19.9508 17.2941 20.8409 17.4311 21.1452C16.9241 21.1452 16.3211 21.0253 16.1338 21.0253C15.6268 21.0253 15.508 21.3113 15.508 21.5649C15.508 21.9523 15.8963 22.2982 16.1612 22.5472C16.3987 22.0307 17.3809 22.1091 17.3809 22.1091C17.5682 22.1091 17.6686 22.1091 17.9199 22.1414C17.897 22.2751 17.8925 22.4642 17.8925 22.6026C17.897 22.8193 17.897 22.9761 17.897 23.1375C17.897 23.7555 17.8742 24.0829 17.4265 24.4979C17.5088 24.5579 17.7417 24.7424 18.0797 24.7424C18.7695 24.7424 18.87 24.2397 18.87 23.1374C18.87 23.0083 18.8746 23.0175 18.8654 22.9068C19.208 23.285 19.6191 23.8292 19.6191 24.295C19.6191 24.378 19.6191 24.4933 19.5872 24.6132C20.1353 24.6132 20.5464 24.046 20.5464 23.6632C20.5464 23.0913 19.6739 22.3766 19.3907 22.0629C19.4364 22.0629 19.473 22.0583 19.4867 22.0583C20.4459 22.0583 20.6378 22.3811 20.7337 22.6255C20.9895 22.4134 21.2087 22.0398 21.2087 21.5648C21.2087 21.2927 21.1494 20.9883 20.6332 20.9883C20.1398 20.9883 19.3862 21.0621 18.8654 21.1543C18.468 20.5917 17.6824 19.5034 17.3124 18.6639C17.4631 18.6916 17.6732 18.7101 17.9976 18.7101C18.162 18.7101 18.3402 18.6916 18.4407 18.6455C16.8556 17.2619 15.5355 15.4726 15.5355 13.4434C15.5355 13.116 15.6131 12.7932 15.7227 12.4427C15.7639 12.4335 15.805 12.4288 15.8461 12.4196L19.843 18.8808C21.0352 20.7901 21.9762 20.7578 23.3876 20.7578C22.2274 19.8538 21.4417 18.6917 21.0762 18.1014L17.326 12.0415C17.527 11.9723 17.728 11.9031 17.9244 11.8247L21.2407 17.1883C22.442 19.0976 23.3784 19.0652 24.7945 19.0652C23.616 18.1521 22.8486 17.0083 22.4786 16.4088L19.2582 11.202C19.4364 11.1006 19.6191 10.9945 19.7927 10.8838L22.4329 15.1498C23.6296 17.0637 24.5661 17.0267 25.9822 17.0267C24.8037 16.1182 24.0408 14.9698 23.6662 14.3703L20.9575 9.99376C21.1174 9.8508 21.2681 9.69861 21.4097 9.54181L23.3328 12.6455C24.5295 14.5548 25.4659 14.5225 26.882 14.5225C25.7035 13.614 24.9361 12.461 24.5661 11.8661L22.337 8.26426C22.4558 8.03827 22.5563 7.80769 22.6431 7.57248L23.7621 9.38499ZM5.86485 5.23887C5.86485 3.89225 6.83324 2.82686 7.17584 2.5271C7.25806 2.54555 7.34028 2.56861 7.41794 2.58705C7.05708 3.02978 6.41757 3.78148 6.41757 4.77309C6.41757 6.74237 8.50047 8.45332 10.8621 8.45332C10.8439 8.61934 10.8393 8.79921 10.8393 8.97906C10.8393 9.2696 10.853 9.5417 10.8804 9.79536C8.21272 9.78152 5.86484 7.59551 5.86484 5.23887H5.86485ZM9.47798 21.3803L9.46427 21.4264H9.50995C10.2591 21.4264 10.6245 21.3711 10.8667 21.3388C10.9946 21.3204 11.0859 21.3065 11.1818 21.3065C11.3737 21.3065 11.5244 21.325 11.5244 21.5648C11.5244 21.7262 11.3372 21.9845 11.1544 22.1321C10.8804 21.8692 10.4967 21.8184 9.93478 21.8184C9.6744 21.8184 9.32725 21.8646 9.14453 21.8922L9.11712 21.8968L9.08515 21.9014L9.09427 21.9891C9.11711 22.1459 9.13995 22.3396 9.13995 22.6024V22.8423L9.13539 23.1374C9.13539 23.7785 9.22218 24.1474 9.446 24.4241C9.38662 24.4471 9.29525 24.4656 9.23587 24.4656C8.83847 24.4656 8.72427 24.2903 8.72427 23.1374C8.72427 22.9068 8.71057 22.6946 8.706 22.5471L8.6923 22.3349L8.64205 22.3718C8.05736 22.8238 7.44987 23.6308 7.41783 24.235C7.23969 24.1197 7.04783 23.8614 7.04783 23.6631C7.04783 23.3357 7.53659 22.8422 8.10758 22.2657L8.47301 21.8968L8.36795 21.8691C8.24462 21.8368 8.01622 21.7768 7.82438 21.7768C7.18944 21.7768 6.78747 21.9014 6.54075 22.1688C6.45396 22.0397 6.38087 21.7399 6.38087 21.5647C6.38087 21.4494 6.40371 21.371 6.44939 21.3249C6.5042 21.2695 6.59099 21.2695 6.66407 21.2695H6.68235C7.3858 21.2695 8.22172 21.3987 8.55067 21.4494L8.56894 21.454L8.58265 21.4402C8.63746 21.3618 9.97584 19.5632 10.323 18.6086C10.4053 18.5763 10.4738 18.5532 10.6154 18.5532C10.8803 18.5532 10.9488 18.7331 11.0265 19.0098C10.1906 20.0336 9.66977 20.8315 9.47799 21.3803L9.47798 21.3803ZM16.6998 18.5533C16.8414 18.5533 16.9054 18.5763 16.9876 18.6086C17.3348 19.5632 18.6731 21.3618 18.7326 21.4402L18.7417 21.454L18.7645 21.4494C19.0888 21.3987 19.9293 21.2696 20.6328 21.2696H20.6465C20.7242 21.2696 20.811 21.2696 20.8658 21.3249C20.9115 21.371 20.9343 21.4494 20.9343 21.5647C20.9343 21.74 20.8612 22.0397 20.7699 22.1689C20.5232 21.9014 20.1258 21.7769 19.4863 21.7769C19.2944 21.7769 19.0706 21.8368 18.9472 21.8691L18.897 21.8783L18.8376 21.8968L19.2076 22.2657C19.774 22.8422 20.2674 23.3356 20.2674 23.6631C20.2674 23.8614 20.0755 24.1197 19.8974 24.235C19.8608 23.6308 19.2578 22.8238 18.6686 22.3718L18.6183 22.3349L18.6092 22.5471C18.6001 22.6947 18.5909 22.9068 18.5909 23.1374C18.5909 24.2903 18.4722 24.4656 18.0793 24.4656C18.0199 24.4656 17.924 24.4471 17.8692 24.4241C18.0885 24.1474 18.1798 23.7784 18.1798 23.1374L18.1753 22.8423L18.1707 22.6025C18.1707 22.3396 18.1981 22.1459 18.2209 21.9891L18.2301 21.9015L18.1707 21.8923C17.9834 21.8646 17.6408 21.8185 17.3804 21.8185C16.8186 21.8185 16.4349 21.8692 16.1608 22.1321C15.9781 21.9845 15.7908 21.7262 15.7908 21.5648C15.7908 21.325 15.9369 21.3066 16.1334 21.3066C16.2293 21.3066 16.3207 21.3204 16.4485 21.3389C16.6906 21.3711 17.0515 21.4265 17.8053 21.4265H17.8509L17.8327 21.3804C17.6454 20.8316 17.1246 20.0337 16.2887 19.0099C16.3618 18.7332 16.4349 18.5533 16.6998 18.5533V18.5533ZM13.6029 2.84989C13.5161 2.49939 13.3379 2.14428 13.1141 1.87219C12.9085 1.62777 12.5659 1.33723 12.1091 1.33723C11.899 1.33723 11.5473 1.43408 11.328 1.53092C11.2413 1.37873 11.0814 1.00518 11.0814 0.83915C11.0814 0.668515 11.3691 0.493263 11.9173 0.493263C13.1232 0.493263 13.8403 1.04668 13.8403 1.96904C13.8403 2.29187 13.717 2.59163 13.6028 2.84989H13.6029ZM14.1418 1.65085C14.1007 1.38797 14.0002 1.15277 13.8495 0.949856C13.8586 0.714652 13.9545 0.484067 14.3382 0.673143C14.1281 0.885289 14.288 1.25884 14.288 1.25884C14.288 1.25884 14.7082 1.06515 14.6215 0.783826C15.2473 0.93602 14.7996 1.77997 14.1418 1.65085ZM16.4897 9.79525C16.5217 9.53238 16.5399 9.26029 16.5399 8.97896C16.5399 8.82676 16.5399 8.65152 16.5217 8.4486C18.8513 8.41632 20.8977 6.72383 20.8977 4.77297C20.8977 3.78144 20.2582 3.02966 19.8928 2.58693C19.975 2.56848 20.0572 2.54542 20.1394 2.52698C20.482 2.82675 21.4504 3.89201 21.4504 5.23875C21.4504 7.57697 19.1345 9.74908 16.4897 9.79524"/>
<path d="M38.507 1.13483V24.7473H34.4142V1.13483"/>
</g>
</svg>
