<svg viewBox="0 0 67 44" fill="#A0A1AE">
    <g>
        <path fill-rule="evenodd" clip-rule="evenodd" d="M6.70255 0H60.0688C63.6697 0 66.7056 2.76196 66.7056 6.33219V38.058C66.7056 41.6282 63.6697 44.4572 60.0688 44.4572H6.70255C3.03589 44.4572 0 41.6282 0 38.058V6.33219C0 2.76196 3.03589 0 6.70255 0ZM60.1184 39.8583C61.1803 39.8583 61.8837 39.0479 61.8837 38.0365V6.31067C61.8837 5.29925 61.1803 4.49098 60.1184 4.49098H6.75216C5.69481 4.49098 4.91882 5.29925 4.91882 6.31067V38.0365C4.91882 39.0479 5.69481 39.8583 6.75216 39.8583H60.1184Z"/>
        <path d="M20.5886 36.7397H9.36621V7.62891H20.5886C28.4937 7.62891 32.7253 12.3467 32.7253 22.0481C32.7253 30.4723 29.9027 36.6684 20.5886 36.7397V36.7397ZM25.46 22.6533C25.46 16.7922 24.8202 12.2106 18.1903 12.2106H16.7041V32.0219H19.3157C23.1979 32.0219 25.46 29.0568 25.46 22.6533"/>
        <path d="M47.8166 36.7397H35.9612V7.62891H48.3816C54.24 7.62891 57.4166 9.91973 57.4166 15.3788C57.4166 18.2099 54.9434 20.2306 52.266 21.51C56.0053 22.5171 58.5466 24.6804 58.5466 28.3133C58.5466 34.2435 53.3211 36.7397 47.8166 36.7397V36.7397ZM43.2287 19.1522H45.7722C48.1705 19.1522 49.9358 18.1429 49.9358 15.6468C49.9358 12.8848 47.6736 12.1414 45.2776 12.1414H43.2287V19.1522ZM50.7799 28.1772C50.7799 25.2142 48.8058 24.54 45.9129 24.54H43.2287V32.0219H45.8426C48.4564 32.0219 50.7799 31.2114 50.7799 28.1772"/>
    </g>
</svg>
