<svg viewBox="0 0 123 21" fill="#A0A1AE" xmlns="http://www.w3.org/2000/svg">
<path d="M0 -1V4.90016C0.433488 4.87044 0.866977 4.80575 1.3186 4.76904C6.15288 4.37568 12.7442 3.48587 19.8613 0.223736V-1H0ZM19.8613 0.70449C12.8579 4.0348 5.86281 5.44734 0 5.94907V8.39654C5.81171 7.31092 12.9107 5.3879 19.8613 1.88452V0.70449ZM19.8613 2.67121C13.0458 6.26025 5.97489 8.48745 0 9.88251V14.0345C5.26285 11.7601 12.6107 8.25144 19.8613 3.67642V2.67121ZM19.8613 5.24979C12.6272 10.2689 5.28098 14.2967 0 16.9627V20.1532C4.72717 17.5693 11.6416 13.3999 19.8613 7.30392V5.24979ZM19.8613 7.78468C13.4678 12.8684 6.95394 17.1008 1.85428 20.1532H4.57388C8.14727 17.905 12.492 14.9767 16.8121 11.5433C17.8208 10.7426 18.8213 9.94894 19.8613 9.09582V7.78468ZM19.8613 9.88251C15.3386 13.9243 10.8916 17.3997 7.12866 20.1532H19.8613V9.88251Z"/>
<path d="M26.5691 20.1636H29.2392V13.968H33.7406V11.7443H29.2392V8.26191H33.9714V6.03471H26.5691V20.1636ZM35.8009 20.1636H38.3557V16.3368C38.3557 14.8369 38.3557 12.0887 40.4374 12.0887C40.8956 12.0887 41.3555 12.1656 41.5813 12.3125V9.58005C41.3143 9.49964 41.0489 9.49964 40.8 9.49964C39.2721 9.49964 38.2238 11.1342 38.1085 12.1062H38.0722V9.74089H35.8009V20.1636ZM43.49 12.6132C44.3471 11.9226 45.4366 11.4803 46.5227 11.4803C48.0292 11.4803 48.7347 12.0468 48.7347 13.725H47.3221C46.2574 13.725 44.9965 13.8264 44.024 14.3334C43.0499 14.8369 42.3428 15.7529 42.3428 17.3071C42.3428 19.2895 44.0421 20.4049 45.7794 20.4049C46.9431 20.4049 48.2221 19.7545 48.8138 18.606H48.8517C48.8699 18.9294 48.8698 19.6164 48.9654 20.1636H51.2153C51.1609 19.349 51.123 18.627 51.1016 17.8315C51.0818 17.0676 51.0637 16.2756 51.0637 15.225V13.8859C51.0637 10.8143 49.8209 9.49964 46.8277 9.49964C45.7431 9.49964 44.4064 9.80207 43.4142 10.2863L43.49 12.6132ZM44.7855 17.1462C44.7855 15.5449 46.4832 15.3456 47.6287 15.3456H48.7347C48.7347 16.1568 48.621 16.9032 48.2023 17.4906C47.8018 18.057 47.1919 18.4207 46.4074 18.4207C45.4909 18.4207 44.7855 18.0361 44.7855 17.1462ZM62.2256 9.74089H59.6691V14.8369C59.6691 16.1742 59.267 18.2983 57.4176 18.2983C55.7743 18.2983 55.7546 16.5798 55.7546 15.3054V9.74089H53.1998V16.3193C53.1998 18.6637 54.2118 20.4049 56.5375 20.4049C57.8759 20.4049 58.9802 19.7545 59.7615 18.7458H59.801V20.1636H62.2256V9.74089ZM64.8578 20.1636H67.411V15.0624C67.411 13.725 67.8131 11.6027 69.6658 11.6027C71.3025 11.6027 71.3255 13.3212 71.3255 14.5974V20.1636H73.882V13.5817C73.882 11.2373 72.8683 9.49964 70.5393 9.49964C69.2059 9.49964 68.1197 9.96466 67.322 11.1552H67.2824V9.74089H64.8578V20.1636ZM76.5142 20.1636H79.0706V15.0624C79.0706 13.725 79.4728 11.6027 81.3238 11.6027C82.9655 11.6027 82.9819 13.3212 82.9819 14.5974V20.1636H85.5351V13.5817C85.5351 11.2373 84.523 9.49964 82.199 9.49964C80.8639 9.49964 79.758 10.143 79.1086 11.1552H79.0706V4.9858H76.5142V20.1636ZM87.1586 15.0222C87.1586 18.0151 89.0491 20.4049 92.2912 20.4049C95.5498 20.4049 97.4387 18.0151 97.4387 15.0222C97.4387 11.5817 95.2103 9.49964 92.2912 9.49964C89.392 9.49964 87.1586 11.5817 87.1586 15.0222ZM89.8304 14.697C89.8304 13.1394 90.6347 11.6027 92.2912 11.6027C93.9675 11.6027 94.7702 13.1009 94.7702 14.697C94.7702 16.44 94.2543 18.2983 92.2912 18.2983C90.3463 18.2983 89.8304 16.4172 89.8304 14.697ZM99.9984 20.1636H102.555V11.7251H104.787V9.74089H102.555V8.44722C102.555 7.63606 102.82 6.84762 103.679 6.84762C104.233 6.84762 104.557 7.07139 104.787 7.213L104.998 4.96482C104.501 4.84245 103.775 4.7428 103.123 4.7428C101.106 4.7428 99.9984 6.20079 99.9984 8.28289V9.74089H98.1079V11.7251H99.9984V20.1636ZM108.162 13.9261C108.279 12.531 108.998 11.4803 110.43 11.4803C111.861 11.4803 112.436 12.6132 112.512 13.9261H108.162ZM114.231 17.3683C113.277 17.9382 112.21 18.4207 110.966 18.4207C109.385 18.4207 108.279 17.4697 108.162 15.7914H114.956C114.956 12.1482 113.926 9.49964 110.275 9.49964C107.231 9.49964 105.721 11.9873 105.721 15.0012C105.721 18.4207 107.61 20.4049 110.852 20.4049C112.228 20.4049 113.295 20.1199 114.231 19.5745V17.3683ZM116.786 20.1636H119.342V16.3368C119.342 14.8369 119.342 12.0887 121.424 12.0887C121.877 12.0887 122.337 12.1656 122.571 12.3125V9.58005C122.301 9.49964 122.031 9.49964 121.785 9.49964C120.257 9.49964 119.207 11.1342 119.1 12.1062H119.059V9.74089H116.786V20.1636Z"/>
</svg>
