<svg viewBox="0 0 194 26" fill="#A0A1AE" xmlns="http://www.w3.org/2000/svg">
<path d="M76.2733 19H74.5164V5.32708H76.6552L83.3007 15.9637H83.3771L83.3007 13.3284V5.32708H85.0575V19H83.2243L76.2733 7.84779H76.1969L76.2733 10.4831V19ZM91.7086 19.3055C90.3336 19.3055 89.2006 18.8345 88.3094 17.8924C87.4183 16.9503 86.9727 15.76 86.9727 14.3214C86.9727 12.8956 87.4055 11.7116 88.2712 10.7695C89.1369 9.8147 90.2445 9.3373 91.594 9.3373C92.9816 9.3373 94.0829 9.78924 94.8976 10.6931C95.7251 11.5843 96.1389 12.8383 96.1389 14.4551L96.1198 14.6461H88.7677C88.7932 15.5627 89.0987 16.3011 89.6844 16.8612C90.27 17.4214 90.9702 17.7015 91.7849 17.7015C92.9053 17.7015 93.7837 17.1413 94.4202 16.021L95.9861 16.7848C95.566 17.5741 94.9804 18.1916 94.2293 18.6372C93.4909 19.0828 92.6506 19.3055 91.7086 19.3055ZM88.9014 13.1947H94.2675C94.2165 12.5455 93.9492 12.0108 93.4654 11.5907C92.9944 11.1578 92.3578 10.9414 91.5558 10.9414C90.8938 10.9414 90.3209 11.1451 89.8371 11.5525C89.3661 11.9598 89.0542 12.5073 88.9014 13.1947ZM110.812 9.64284L107.795 19H106L103.67 11.8198L101.359 19H99.5832L96.566 9.64284H98.3993L100.481 16.7084H100.5L102.81 9.64284H104.625L106.935 16.7084H106.954L109.017 9.64284H110.812ZM119.117 16.4029C119.117 17.2177 118.76 17.9051 118.048 18.4653C117.335 19.0255 116.437 19.3055 115.355 19.3055C114.413 19.3055 113.585 19.0637 112.872 18.5799C112.159 18.0834 111.65 17.4341 111.345 16.6321L112.911 15.9637C113.14 16.5239 113.471 16.9631 113.904 17.2813C114.349 17.5869 114.833 17.7396 115.355 17.7396C115.915 17.7396 116.38 17.6187 116.749 17.3768C117.131 17.1349 117.322 16.8485 117.322 16.5175C117.322 15.9191 116.864 15.4799 115.947 15.1998L114.343 14.7988C112.522 14.3405 111.612 13.4621 111.612 12.1635C111.612 11.3106 111.956 10.6295 112.643 10.1202C113.343 9.59828 114.235 9.3373 115.317 9.3373C116.144 9.3373 116.889 9.53462 117.551 9.92928C118.226 10.3239 118.697 10.8523 118.964 11.5143L117.398 12.1635C117.22 11.7689 116.927 11.4633 116.52 11.2469C116.125 11.0178 115.68 10.9032 115.183 10.9032C114.725 10.9032 114.311 11.0178 113.942 11.2469C113.585 11.4761 113.407 11.7562 113.407 12.0872C113.407 12.6219 113.91 13.0038 114.916 13.2329L116.329 13.5958C118.188 14.0541 119.117 14.9898 119.117 16.4029ZM126.904 19H125.148V5.32708H126.904V19ZM129.355 9.64284H131.035V10.9414H131.112C131.379 10.4831 131.787 10.1011 132.334 9.79561C132.894 9.49007 133.473 9.3373 134.072 9.3373C135.218 9.3373 136.096 9.6683 136.707 10.3303C137.331 10.9796 137.643 11.9089 137.643 13.1184V19H135.886V13.2329C135.848 11.7052 135.078 10.9414 133.575 10.9414C132.875 10.9414 132.289 11.2278 131.818 11.8007C131.347 12.3609 131.112 13.0356 131.112 13.8249V19H129.355V9.64284ZM141.978 6.41557C141.978 6.7593 141.857 7.05211 141.615 7.294C141.373 7.53588 141.08 7.65683 140.736 7.65683C140.393 7.65683 140.1 7.53588 139.858 7.294C139.616 7.05211 139.495 6.7593 139.495 6.41557C139.495 6.07184 139.616 5.77903 139.858 5.53714C140.1 5.29526 140.393 5.17431 140.736 5.17431C141.08 5.17431 141.373 5.29526 141.615 5.53714C141.857 5.77903 141.978 6.07184 141.978 6.41557ZM141.615 9.64284V19H139.858V9.64284H141.615ZM147.512 19.1528C146.749 19.1528 146.112 18.9172 145.603 18.4462C145.106 17.9752 144.852 17.3195 144.839 16.4793V11.2469H143.197V9.64284H144.839V6.7784H146.596V9.64284H148.887V11.2469H146.596V15.9064C146.596 16.5302 146.717 16.9567 146.959 17.1859C147.201 17.4023 147.474 17.5105 147.78 17.5105C147.92 17.5105 148.053 17.4978 148.181 17.4723C148.321 17.4341 148.448 17.3895 148.563 17.3386L149.117 18.9045C148.658 19.07 148.124 19.1528 147.512 19.1528ZM152.924 6.41557C152.924 6.7593 152.803 7.05211 152.561 7.294C152.32 7.53588 152.027 7.65683 151.683 7.65683C151.339 7.65683 151.046 7.53588 150.805 7.294C150.563 7.05211 150.442 6.7593 150.442 6.41557C150.442 6.07184 150.563 5.77903 150.805 5.53714C151.046 5.29526 151.339 5.17431 151.683 5.17431C152.027 5.17431 152.32 5.29526 152.561 5.53714C152.803 5.77903 152.924 6.07184 152.924 6.41557ZM152.561 9.64284V19H150.805V9.64284H152.561ZM156.034 16.1356C156.034 16.5939 156.225 16.9758 156.607 17.2813C157.002 17.5869 157.46 17.7396 157.982 17.7396C158.72 17.7396 159.376 17.4659 159.949 16.9185C160.534 16.3711 160.827 15.7282 160.827 14.9898C160.28 14.5569 159.516 14.3405 158.536 14.3405C157.823 14.3405 157.224 14.5124 156.741 14.8561C156.27 15.1998 156.034 15.6263 156.034 16.1356ZM158.306 9.3373C159.605 9.3373 160.63 9.68739 161.381 10.3876C162.132 11.0751 162.508 12.0235 162.508 13.2329V19H160.827V17.7015H160.751C160.025 18.7708 159.058 19.3055 157.848 19.3055C156.817 19.3055 155.951 19 155.251 18.3889C154.564 17.7778 154.22 17.014 154.22 16.0974C154.22 15.1298 154.583 14.3596 155.308 13.7867C156.047 13.2138 157.027 12.9274 158.249 12.9274C159.293 12.9274 160.152 13.1184 160.827 13.5003V13.0993C160.827 12.4882 160.585 11.9726 160.101 11.5525C159.618 11.1196 159.051 10.9032 158.402 10.9032C157.422 10.9032 156.645 11.3169 156.072 12.1444L154.525 11.1705C155.378 9.94838 156.639 9.3373 158.306 9.3373ZM168.007 19.1528C167.243 19.1528 166.607 18.9172 166.098 18.4462C165.601 17.9752 165.347 17.3195 165.334 16.4793V11.2469H163.692V9.64284H165.334V6.7784H167.091V9.64284H169.382V11.2469H167.091V15.9064C167.091 16.5302 167.212 16.9567 167.454 17.1859C167.695 17.4023 167.969 17.5105 168.275 17.5105C168.415 17.5105 168.548 17.4978 168.676 17.4723C168.816 17.4341 168.943 17.3895 169.058 17.3386L169.611 18.9045C169.153 19.07 168.618 19.1528 168.007 19.1528ZM173.419 6.41557C173.419 6.7593 173.298 7.05211 173.056 7.294C172.814 7.53588 172.522 7.65683 172.178 7.65683C171.834 7.65683 171.541 7.53588 171.299 7.294C171.058 7.05211 170.937 6.7593 170.937 6.41557C170.937 6.07184 171.058 5.77903 171.299 5.53714C171.541 5.29526 171.834 5.17431 172.178 5.17431C172.522 5.17431 172.814 5.29526 173.056 5.53714C173.298 5.77903 173.419 6.07184 173.419 6.41557ZM173.056 9.64284V19H171.299V9.64284H173.056ZM179.888 19H178.131L174.35 9.64284H176.259L179.009 16.8994H179.047L181.835 9.64284H183.707L179.888 19ZM188.775 19.3055C187.4 19.3055 186.267 18.8345 185.376 17.8924C184.485 16.9503 184.039 15.76 184.039 14.3214C184.039 12.8956 184.472 11.7116 185.338 10.7695C186.203 9.8147 187.311 9.3373 188.66 9.3373C190.048 9.3373 191.149 9.78924 191.964 10.6931C192.792 11.5843 193.205 12.8383 193.205 14.4551L193.186 14.6461H185.834C185.86 15.5627 186.165 16.3011 186.751 16.8612C187.336 17.4214 188.037 17.7015 188.851 17.7015C189.972 17.7015 190.85 17.1413 191.487 16.021L193.053 16.7848C192.632 17.5741 192.047 18.1916 191.296 18.6372C190.557 19.0828 189.717 19.3055 188.775 19.3055ZM185.968 13.1947H191.334C191.283 12.5455 191.016 12.0108 190.532 11.5907C190.061 11.1578 189.424 10.9414 188.622 10.9414C187.96 10.9414 187.387 11.1451 186.904 11.5525C186.432 11.9598 186.121 12.5073 185.968 13.1947Z"/>
<path fill-rule="evenodd" clip-rule="evenodd" d="M9.01618 20.2816C4.66139 20.2816 1 16.7365 1 12.3809C1 8.02606 4.66139 4.4801 9.01618 4.4801C11.4257 4.4801 13.1401 5.42388 14.4319 6.65708L12.9093 8.17968C11.9842 7.31229 10.7315 6.6384 9.01618 6.6384C5.83687 6.6384 3.35096 9.20155 3.35096 12.3809C3.35096 15.5602 5.83687 18.1233 9.01618 18.1233C11.0786 18.1233 12.2532 17.295 13.0052 16.543C13.6214 15.9268 14.027 15.0399 14.1807 13.8262H9.01618V11.6679H16.2812C16.3585 12.0533 16.3975 12.5158 16.3975 13.0166C16.3975 14.6359 15.9536 16.6397 14.5278 18.0656C13.1401 19.511 11.3671 20.2816 9.01618 20.2816Z"/>
<path fill-rule="evenodd" clip-rule="evenodd" d="M25.4389 15.1942C25.4389 13.3635 24.1336 12.1108 22.6195 12.1108C21.1062 12.1108 19.8009 13.3635 19.8009 15.1942C19.8009 17.0054 21.1062 18.2776 22.6195 18.2776C24.1336 18.2776 25.4389 17.0054 25.4389 15.1942ZM27.6337 15.1942C27.6337 18.1232 25.3821 20.2815 22.6195 20.2815C19.8577 20.2815 17.6061 18.1232 17.6061 15.1942C17.6061 12.2458 19.8577 10.107 22.6195 10.107C25.3821 10.107 27.6337 12.2458 27.6337 15.1942Z"/>
<path fill-rule="evenodd" clip-rule="evenodd" d="M36.6792 15.1942C36.6792 13.3635 35.3738 12.1108 33.8597 12.1108C32.3464 12.1108 31.0403 13.3635 31.0403 15.1942C31.0403 17.0054 32.3464 18.2776 33.8597 18.2776C35.3738 18.2776 36.6792 17.0054 36.6792 15.1942ZM38.874 15.1942C38.874 18.1232 36.6223 20.2815 33.8597 20.2815C31.0971 20.2815 28.8463 18.1232 28.8463 15.1942C28.8463 12.2458 31.0971 10.107 33.8597 10.107C36.6223 10.107 38.874 12.2458 38.874 15.1942Z"/>
<path fill-rule="evenodd" clip-rule="evenodd" d="M47.8676 15.2134C47.8676 13.4217 46.6726 12.1104 45.1509 12.1104C43.6096 12.1104 42.3178 13.4217 42.3178 15.2134C42.3178 16.9863 43.6096 18.2772 45.1509 18.2772C46.6726 18.2772 47.8676 16.9863 47.8676 15.2134ZM49.8333 10.4147V19.5495C49.8333 23.3068 47.6172 24.8489 44.9964 24.8489C42.53 24.8489 41.0464 23.1913 40.4871 21.8427L42.4332 21.033C42.7804 21.8614 43.6282 22.8442 44.9964 22.8442C46.6726 22.8442 47.714 21.8045 47.714 19.8576V19.1251H47.6359C47.1352 19.7421 46.1719 20.2811 44.9582 20.2811C42.4146 20.2811 40.0831 18.0659 40.0831 15.2134C40.0831 12.3421 42.4146 10.1066 44.9582 10.1066C46.1719 10.1066 47.1352 10.6464 47.6359 11.2439H47.714V10.4147H49.8333Z"/>
<path fill-rule="evenodd" clip-rule="evenodd" d="M51.5153 19.9731H53.7508V5.01947H51.5153V19.9731Z"/>
<path fill-rule="evenodd" clip-rule="evenodd" d="M57.2005 15.0401L61.7488 13.1517C61.4976 12.516 60.7465 12.0721 59.8604 12.0721C58.7231 12.0721 57.1436 13.0745 57.2005 15.0401ZM62.5381 16.8708L64.2729 18.0268C63.7145 18.856 62.365 20.2818 60.0335 20.2818C57.1436 20.2818 55.0558 18.0463 55.0558 15.1946C55.0558 12.1689 57.1623 10.1065 59.7832 10.1065C62.4227 10.1065 63.7145 12.2071 64.138 13.3444L64.3688 13.9223L57.5663 16.7358C58.0874 17.7569 58.8963 18.2771 60.0335 18.2771C61.17 18.2771 61.9601 17.7187 62.5381 16.8708Z"/>
</svg>
