<svg viewBox="0 0 145 60" fill="none" xmlns="http://www.w3.org/2000/svg">
<g fill="#A0A1AE">
<path d="M73.0727 18.7331C71.3537 18.7331 70.2076 17.5515 70.2076 16.0135C70.2076 14.4755 71.3537 13.3032 73.0727 13.3032C74.782 13.3032 75.928 14.4849 75.928 16.0135C75.928 17.5515 74.782 18.7331 73.0727 18.7331ZM73.0727 14.3254C72.0918 14.3254 71.5188 14.9631 71.5188 16.0228C71.5188 17.0919 72.0918 17.7203 73.0727 17.7203C74.0439 17.7203 74.6266 17.0919 74.6266 16.0228C74.6169 14.9631 74.0439 14.3254 73.0727 14.3254Z"/>
<path d="M79.3646 16.9044V18.6768H78.0826V13.3595H80.025C81.5789 13.3595 82.2394 14.1191 82.2394 15.0944C82.2394 16.1541 81.5498 16.895 80.025 16.895L79.3646 16.9044ZM79.3646 15.9666H80.025C80.6854 15.9666 80.9671 15.6477 80.9671 15.0944C80.9671 14.6068 80.6757 14.2785 80.025 14.2785H79.3646V15.9666Z"/>
<path d="M88.0181 13.3595V14.3067H85.7551V15.5446H87.4839V16.4542H85.7551V17.7202H88.0181V18.6674H84.473V13.3501L88.0181 13.3595Z"/>
<path d="M91.6989 13.547L94.3114 16.7356C94.292 16.5292 94.2823 16.3417 94.2823 16.1635V13.3501H95.4088V18.6674H94.7484C94.5542 18.6674 94.4279 18.6205 94.3017 18.4611L91.7086 15.2913C91.7281 15.4789 91.7378 15.6571 91.7378 15.8165V18.6674H90.6112V13.3501H91.2813C91.495 13.3595 91.5532 13.3876 91.6989 13.547Z"/>
<path d="M71.6824 24.9038H71.8864C72.0709 24.9038 72.2069 24.8475 72.2943 24.735L73.5374 23.0001C73.6734 22.8125 73.8385 22.7563 74.091 22.7563H75.1982L73.5666 24.9038C73.45 25.0632 73.3238 25.157 73.1878 25.2226C73.382 25.2883 73.5374 25.4008 73.6637 25.5978L75.3244 28.0642H74.1784C73.8871 28.0642 73.7802 27.9798 73.6831 27.8391L72.44 25.9916C72.3526 25.8603 72.2263 25.8041 71.9835 25.8041H71.6727V28.0642H70.3907V22.7469H71.6727V24.9038H71.6824Z"/>
<path d="M78.6557 22.9344L81.2682 26.1229C81.2488 25.9166 81.239 25.729 81.239 25.5508V22.7374H82.3656V28.0548H81.7052C81.511 28.0548 81.3847 28.0079 81.2585 27.8485L78.6654 24.6787C78.6848 24.8662 78.6946 25.0444 78.6946 25.2039V28.0548H77.568V22.7374H78.2381C78.4518 22.7468 78.51 22.7749 78.6557 22.9344Z"/>
<path d="M87.6682 28.1204C85.9491 28.1204 84.8031 26.9388 84.8031 25.4008C84.8031 23.8628 85.9491 22.6812 87.6682 22.6812C89.3775 22.6812 90.5235 23.8628 90.5235 25.4008C90.5235 26.9388 89.3775 28.1204 87.6682 28.1204ZM87.6682 23.7034C86.6872 23.7034 86.1142 24.3411 86.1142 25.4008C86.1142 26.4699 86.6872 27.0982 87.6682 27.0982C88.6394 27.0982 89.2221 26.4699 89.2221 25.4008C89.2124 24.3505 88.6394 23.7034 87.6682 23.7034Z"/>
<path d="M92.0194 22.7469H93.0877C93.3111 22.7469 93.4665 22.85 93.515 23.0095L94.2726 25.7853C94.3211 25.9635 94.3794 26.1698 94.4085 26.3949C94.4571 26.1604 94.5251 25.9635 94.5833 25.7853L95.4768 23.0095C95.5254 22.8782 95.6808 22.7469 95.8944 22.7469H96.2732C96.4966 22.7469 96.6423 22.85 96.7005 23.0095L97.5843 25.7853C97.6426 25.9541 97.7008 26.1511 97.7494 26.3668C97.7882 26.1511 97.8368 25.9541 97.8757 25.7853L98.6332 23.0095C98.672 22.8688 98.8371 22.7469 99.0508 22.7469H100.061L98.3612 28.0642H97.2055L96.1664 24.7725C96.1372 24.6694 96.0887 24.5474 96.0595 24.4068C96.0304 24.5381 95.9818 24.6694 95.9527 24.7725L94.9038 28.0642H93.7481L92.0194 22.7469Z"/>
<path d="M103.625 27.0795H105.665V28.0642H102.343V22.7469H103.625V27.0795Z"/>
<path d="M111.929 22.7468V23.694H109.666V24.9319H111.395V25.8416H109.666V27.1076H111.929V28.0548H108.384V22.7374H111.929V22.7468Z"/>
<path d="M116.746 28.0642H114.609V22.7469H116.746C118.455 22.7469 119.601 23.8722 119.601 25.4008C119.601 26.9388 118.455 28.0642 116.746 28.0642ZM116.746 23.6941H115.891V27.117H116.746C117.717 27.117 118.3 26.4699 118.3 25.4102C118.3 24.3505 117.727 23.6941 116.746 23.6941Z"/>
<path d="M125.224 27.0139V26.2074H124.681C124.515 26.2074 124.428 26.1136 124.428 25.9917V25.3164H126.39V27.5578C125.827 27.9517 125.176 28.1298 124.282 28.1298C122.67 28.1298 121.476 26.967 121.476 25.4102C121.476 23.8253 122.612 22.6906 124.389 22.6906C125.312 22.6906 125.992 23.0001 126.438 23.4033L126.069 23.9473C126.001 24.0504 125.895 24.1161 125.778 24.1161C125.7 24.1161 125.623 24.0879 125.545 24.041C125.137 23.8066 124.855 23.7128 124.341 23.7128C123.389 23.7128 122.787 24.388 122.787 25.4102C122.787 26.5356 123.467 27.1827 124.389 27.1827C124.719 27.1733 124.982 27.1076 125.224 27.0139Z"/>
<path d="M132.615 22.7468V23.694H130.352V24.9319H132.081V25.8416H130.352V27.1076H132.615V28.0548H129.07V22.7374H132.615V22.7468Z"/>
<path d="M73.9551 32.1342V33.0814H71.6923V34.4318H73.5764V35.3884H71.6923V37.4609H70.4103V32.1342H73.9551Z"/>
<path d="M81.3943 34.7882C81.3943 35.1727 81.3263 35.529 81.1904 35.8573C81.0544 36.1855 80.8602 36.4762 80.6077 36.72C80.3552 36.9639 80.0541 37.1514 79.7045 37.2921C79.3548 37.4328 78.9664 37.4984 78.5391 37.4984C78.1117 37.4984 77.7233 37.4328 77.3639 37.2921C77.0143 37.1514 76.7132 36.9639 76.4607 36.72C76.2082 36.4762 76.014 36.1855 75.878 35.8573C75.7421 35.529 75.6741 35.1727 75.6741 34.7882C75.6741 34.4037 75.7421 34.0473 75.878 33.7191C76.014 33.3909 76.2082 33.1001 76.4607 32.8563C76.7132 32.6125 77.0143 32.4249 77.3639 32.2843C77.7136 32.1436 78.1117 32.0779 78.5391 32.0779C78.9664 32.0779 79.3548 32.1436 79.7045 32.2843C80.0541 32.4249 80.3552 32.6125 80.6077 32.8563C80.8602 33.1001 81.0544 33.3909 81.1904 33.7191C81.3263 34.0473 81.3943 34.4037 81.3943 34.7882ZM80.0929 34.7882C80.0929 34.5256 80.0541 34.2911 79.9861 34.0755C79.9181 33.8691 79.8113 33.691 79.685 33.5409C79.5491 33.3909 79.3937 33.2877 79.1995 33.2033C79.0052 33.1283 78.7916 33.0908 78.5488 33.0908C78.306 33.0908 78.0826 33.1283 77.8884 33.2033C77.6941 33.2783 77.529 33.3909 77.4028 33.5409C77.2668 33.691 77.1697 33.8691 77.1017 34.0755C77.0337 34.2818 76.9949 34.5256 76.9949 34.7882C76.9949 35.0508 77.0337 35.2946 77.1017 35.5009C77.1697 35.7072 77.2765 35.8854 77.4028 36.0354C77.5387 36.1855 77.6941 36.2887 77.8884 36.3731C78.0826 36.4481 78.2963 36.4856 78.5488 36.4856C78.7916 36.4856 79.0149 36.4481 79.1995 36.3731C79.3937 36.298 79.5491 36.1855 79.685 36.0354C79.821 35.8854 79.9181 35.7072 79.9861 35.5009C80.0541 35.2946 80.0929 35.0508 80.0929 34.7882Z"/>
<path d="M85.6483 36.4762C85.8231 36.4762 85.9688 36.4481 86.1047 36.3918C86.2407 36.3355 86.3573 36.2605 86.4447 36.1574C86.5418 36.0542 86.6098 35.9323 86.6583 35.7822C86.7069 35.6322 86.736 35.4634 86.736 35.2852V32.1342H88.0181V35.2852C88.0181 35.6134 87.9598 35.9135 87.853 36.1855C87.7461 36.4575 87.5907 36.6919 87.3868 36.8888C87.1828 37.0858 86.9303 37.2358 86.6389 37.3484C86.3475 37.4609 86.0173 37.5172 85.6483 37.5172C85.2792 37.5172 84.949 37.4609 84.6576 37.3484C84.3662 37.2358 84.1137 37.0858 83.9097 36.8888C83.7058 36.6919 83.5504 36.4575 83.4436 36.1855C83.3367 35.9135 83.2784 35.6134 83.2784 35.2852V32.1342H84.5605V35.2758C84.5605 35.4634 84.5896 35.6322 84.6382 35.7729C84.6867 35.9229 84.7547 36.0448 84.8518 36.148C84.949 36.2511 85.0558 36.3262 85.1918 36.3824C85.318 36.4481 85.4734 36.4762 85.6483 36.4762Z"/>
<path d="M91.5143 32.1436C91.5531 32.153 91.5822 32.153 91.6211 32.1717C91.6502 32.1811 91.6794 32.1999 91.7085 32.228C91.7376 32.2561 91.7668 32.2843 91.8056 32.3312L94.4181 35.5197C94.4084 35.4165 94.3986 35.3228 94.3986 35.2196C94.3889 35.1258 94.3889 35.032 94.3889 34.9476V32.1342H95.5155V37.4516H94.8551C94.758 37.4516 94.6706 37.4328 94.6026 37.4047C94.5346 37.3765 94.4666 37.3203 94.4084 37.2453L91.8153 34.0755C91.825 34.1693 91.825 34.263 91.8347 34.3474C91.8445 34.4318 91.8445 34.5162 91.8445 34.6006V37.4516H90.7179V32.1342H91.388C91.4269 32.1342 91.4754 32.1342 91.5143 32.1436Z"/>
<path d="M103.266 34.7882C103.266 35.1727 103.198 35.529 103.062 35.8479C102.926 36.1761 102.732 36.4575 102.479 36.6919C102.227 36.9264 101.926 37.1139 101.576 37.2452C101.226 37.3765 100.838 37.4421 100.41 37.4421H98.2738V32.1342H100.41C100.838 32.1342 101.226 32.1999 101.576 32.3312C101.926 32.4624 102.227 32.65 102.479 32.8845C102.732 33.1189 102.926 33.4002 103.062 33.7285C103.198 34.0567 103.266 34.4037 103.266 34.7882ZM101.964 34.7882C101.964 34.5256 101.926 34.2912 101.858 34.0755C101.79 33.8598 101.683 33.6816 101.556 33.5409C101.42 33.3909 101.265 33.2783 101.071 33.2033C100.877 33.1283 100.663 33.0814 100.42 33.0814H99.5655V36.5044H100.42C100.663 36.5044 100.886 36.4668 101.071 36.3824C101.265 36.3074 101.42 36.1949 101.556 36.0448C101.692 35.8948 101.79 35.7166 101.858 35.5103C101.926 35.2946 101.964 35.0508 101.964 34.7882Z"/>
<path d="M110.453 37.4515H109.462C109.355 37.4515 109.258 37.4234 109.19 37.3765C109.122 37.3296 109.064 37.264 109.044 37.189L108.724 36.2605H106.626L106.306 37.189C106.277 37.2546 106.228 37.3203 106.16 37.3765C106.082 37.4328 105.995 37.4609 105.888 37.4609H104.888L107.015 32.1436H108.326L110.453 37.4515ZM106.917 35.4165H108.423L107.918 33.9629C107.889 33.8692 107.85 33.766 107.801 33.6347C107.753 33.5128 107.714 33.3721 107.675 33.2315C107.636 33.3815 107.597 33.5128 107.549 33.6441C107.51 33.766 107.461 33.8785 107.432 33.9723L106.917 35.4165Z"/>
<path d="M116.348 32.1342V33.1095H114.794V37.4516H113.512V33.1095H111.958V32.1342H116.348Z"/>
<path d="M120.029 37.4516H118.747V32.1342H120.029V37.4516Z"/>
<path d="M128.138 34.7882C128.138 35.1727 128.07 35.529 127.934 35.8573C127.798 36.1855 127.604 36.4762 127.351 36.72C127.099 36.9639 126.798 37.1514 126.448 37.2921C126.099 37.4328 125.71 37.4984 125.283 37.4984C124.855 37.4984 124.467 37.4328 124.108 37.2921C123.758 37.1514 123.457 36.9639 123.204 36.72C122.952 36.4762 122.758 36.1855 122.622 35.8573C122.486 35.529 122.418 35.1727 122.418 34.7882C122.418 34.4037 122.486 34.0473 122.622 33.7191C122.758 33.3909 122.952 33.1001 123.204 32.8563C123.457 32.6125 123.758 32.4249 124.108 32.2843C124.457 32.1436 124.855 32.0779 125.283 32.0779C125.71 32.0779 126.099 32.1436 126.448 32.2843C126.798 32.4249 127.099 32.6125 127.351 32.8563C127.604 33.1001 127.798 33.3909 127.934 33.7191C128.07 34.0473 128.138 34.4037 128.138 34.7882ZM126.837 34.7882C126.837 34.5256 126.798 34.2911 126.73 34.0755C126.662 33.8691 126.555 33.691 126.429 33.5409C126.293 33.3909 126.137 33.2877 125.943 33.2033C125.749 33.1283 125.535 33.0908 125.292 33.0908C125.05 33.0908 124.826 33.1283 124.632 33.2033C124.438 33.2783 124.273 33.3909 124.146 33.5409C124.01 33.691 123.913 33.8691 123.845 34.0755C123.777 34.2818 123.739 34.5256 123.739 34.7882C123.739 35.0508 123.777 35.2946 123.845 35.5009C123.913 35.7072 124.02 35.8854 124.146 36.0354C124.282 36.1855 124.438 36.2887 124.632 36.3731C124.826 36.4481 125.04 36.4856 125.292 36.4856C125.535 36.4856 125.759 36.4481 125.943 36.3731C126.137 36.298 126.293 36.1855 126.429 36.0354C126.565 35.8854 126.662 35.7072 126.73 35.5009C126.798 35.2946 126.837 35.0508 126.837 34.7882Z"/>
<path d="M131.421 32.1436C131.46 32.153 131.489 32.153 131.528 32.1717C131.557 32.1811 131.586 32.1999 131.615 32.228C131.644 32.2561 131.673 32.2843 131.712 32.3312L134.325 35.5197C134.315 35.4165 134.305 35.3228 134.305 35.2196C134.296 35.1258 134.296 35.032 134.296 34.9476V32.1342H135.422V37.4516H134.762C134.665 37.4516 134.577 37.4328 134.509 37.4047C134.441 37.3765 134.373 37.3203 134.315 37.2453L131.722 34.0755C131.732 34.1693 131.732 34.263 131.741 34.3474C131.751 34.4318 131.751 34.5162 131.751 34.6006V37.4516H130.624V32.1342H131.295C131.333 32.1342 131.382 32.1342 131.421 32.1436Z"/>
<path d="M74.9651 44.1755C74.9651 44.5694 74.8971 44.9352 74.7709 45.2634C74.6446 45.5916 74.4601 45.873 74.2173 46.098C73.9745 46.3325 73.6928 46.5107 73.3626 46.642C73.0324 46.7733 72.6634 46.8295 72.2555 46.8295H70.1965V41.5215H72.2555C72.6634 41.5215 73.0324 41.5872 73.3626 41.7091C73.6928 41.8404 73.9842 42.0186 74.2173 42.253C74.4504 42.4875 74.6349 42.7688 74.7709 43.0971C74.9068 43.4159 74.9651 43.7817 74.9651 44.1755ZM74.2076 44.1755C74.2076 43.8473 74.159 43.5566 74.0716 43.3034C73.9842 43.0502 73.8482 42.8251 73.6831 42.6469C73.518 42.4687 73.3141 42.3374 73.0713 42.2437C72.8285 42.1499 72.5662 42.103 72.2652 42.103H70.9541V46.2481H72.2652C72.5565 46.2481 72.8285 46.2012 73.0713 46.1074C73.3141 46.0136 73.518 45.8823 73.6831 45.7042C73.8482 45.526 73.9842 45.3103 74.0716 45.0571C74.159 44.7945 74.2076 44.5038 74.2076 44.1755Z"/>
<path d="M80.5203 41.5216V42.103H77.8787V43.8661H80.0153V44.4288H77.8787V46.2387H80.5203V46.8201H77.1309V41.5122H80.5203V41.5216Z"/>
<path d="M85.5901 46.2575C85.8134 46.2575 86.0174 46.22 86.2019 46.1449C86.3767 46.0699 86.5321 45.9667 86.6584 45.8354C86.7846 45.7042 86.8817 45.5447 86.94 45.3572C87.008 45.1696 87.0371 44.9727 87.0371 44.7476V41.5215H87.7752V44.7476C87.7752 45.0571 87.7267 45.3384 87.6198 45.601C87.5227 45.8636 87.377 46.0887 87.1828 46.2856C86.9983 46.4732 86.7652 46.6232 86.4933 46.7357C86.2213 46.8483 85.9203 46.8952 85.5804 46.8952C85.2404 46.8952 84.9394 46.8389 84.6675 46.7357C84.3955 46.6232 84.1624 46.4732 83.9779 46.2856C83.7934 46.098 83.6477 45.8636 83.5409 45.601C83.4438 45.3384 83.3855 45.0571 83.3855 44.7476V41.5215H84.1236V44.7476C84.1236 44.9727 84.1527 45.1696 84.2207 45.3572C84.2887 45.5447 84.3761 45.7042 84.5024 45.8354C84.6286 45.9667 84.7743 46.0699 84.9588 46.1449C85.1628 46.22 85.3667 46.2575 85.5901 46.2575Z"/>
<path d="M94.7678 41.5215V42.1217H92.9905V46.8295H92.2427V42.1217H90.4557V41.5215H94.7678V41.5215Z"/>
<path d="M100.439 42.3469C100.42 42.3844 100.391 42.4125 100.362 42.4313C100.333 42.45 100.304 42.4594 100.265 42.4594C100.226 42.4594 100.168 42.4407 100.109 42.3938C100.051 42.3563 99.983 42.3094 99.8859 42.2531C99.7985 42.2062 99.6917 42.1593 99.5654 42.1124C99.4392 42.0749 99.2935 42.0468 99.1187 42.0468C98.9536 42.0468 98.8079 42.0655 98.6816 42.1124C98.5554 42.1593 98.4485 42.2156 98.3611 42.2906C98.2737 42.3656 98.2155 42.45 98.1669 42.5532C98.128 42.6564 98.0989 42.7595 98.0989 42.8814C98.0989 43.0315 98.1378 43.1534 98.2155 43.2472C98.2931 43.3409 98.3903 43.4254 98.5165 43.5004C98.6428 43.566 98.7787 43.6317 98.9341 43.6786C99.0895 43.7254 99.2546 43.7817 99.4197 43.838C99.5848 43.8942 99.7499 43.9505 99.9053 44.0255C100.061 44.0912 100.206 44.1756 100.323 44.2787C100.449 44.3819 100.546 44.5132 100.624 44.6632C100.702 44.8133 100.741 45.0009 100.741 45.2165C100.741 45.451 100.702 45.6667 100.614 45.873C100.537 46.0793 100.41 46.2575 100.255 46.4075C100.1 46.5576 99.9053 46.6795 99.6722 46.7639C99.4392 46.8483 99.1866 46.8952 98.8953 46.8952C98.5359 46.8952 98.2155 46.8296 97.9241 46.7076C97.6327 46.5857 97.3802 46.4169 97.1763 46.2012L97.3899 45.8636C97.4094 45.8355 97.4385 45.8167 97.4676 45.798C97.4968 45.7792 97.5259 45.7698 97.5647 45.7698C97.623 45.7698 97.6813 45.798 97.7493 45.8542C97.8173 45.9105 97.9047 45.9668 98.0115 46.0418C98.1183 46.1075 98.2446 46.1731 98.3903 46.2294C98.5359 46.2856 98.7205 46.3138 98.9341 46.3138C99.109 46.3138 99.2643 46.2856 99.41 46.2387C99.546 46.1919 99.6625 46.1262 99.7597 46.0418C99.8568 45.9574 99.9248 45.8542 99.983 45.7323C100.032 45.6104 100.061 45.4791 100.061 45.3385C100.061 45.179 100.022 45.0477 99.9442 44.9446C99.8665 44.8414 99.7694 44.757 99.6431 44.6914C99.5168 44.6257 99.3809 44.5601 99.2255 44.5132C99.0701 44.4663 98.905 44.4194 98.7399 44.3632C98.5748 44.3163 98.4097 44.2506 98.2543 44.185C98.0989 44.1193 97.9532 44.0349 97.8367 43.9224C97.7104 43.8192 97.6133 43.6879 97.5356 43.5285C97.4579 43.3691 97.4191 43.1721 97.4191 42.9377C97.4191 42.7501 97.4579 42.572 97.5356 42.3938C97.6133 42.2156 97.7201 42.0655 97.8658 41.9249C98.0115 41.7936 98.1863 41.681 98.4 41.5966C98.6136 41.5122 98.8564 41.4747 99.1284 41.4747C99.4392 41.4747 99.7111 41.5216 99.9733 41.6154C100.226 41.7092 100.449 41.8498 100.634 42.0187L100.439 42.3469Z"/>
<path d="M107.636 45.7322C107.675 45.7322 107.714 45.751 107.743 45.7791L108.034 46.0886C107.811 46.3418 107.539 46.5387 107.219 46.6794C106.898 46.8201 106.51 46.8951 106.053 46.8951C105.655 46.8951 105.296 46.8295 104.975 46.6982C104.655 46.5669 104.373 46.3793 104.15 46.1449C103.926 45.9104 103.742 45.6197 103.615 45.2915C103.489 44.9539 103.431 44.5881 103.431 44.1943C103.431 43.791 103.499 43.4253 103.635 43.0971C103.771 42.7595 103.955 42.4781 104.198 42.2343C104.441 41.9905 104.732 41.8123 105.072 41.681C105.412 41.5497 105.781 41.4841 106.199 41.4841C106.607 41.4841 106.956 41.5403 107.248 41.6622C107.539 41.7842 107.801 41.9436 108.025 42.1593L107.782 42.4875C107.762 42.5156 107.743 42.5344 107.724 42.5531C107.704 42.5719 107.665 42.5813 107.626 42.5813C107.597 42.5813 107.558 42.5719 107.52 42.5438C107.481 42.5156 107.442 42.4875 107.384 42.4594C107.335 42.4219 107.277 42.3843 107.199 42.3468C107.131 42.3093 107.044 42.2718 106.956 42.2343C106.869 42.1968 106.752 42.1687 106.626 42.1499C106.5 42.1218 106.354 42.1124 106.189 42.1124C105.898 42.1124 105.626 42.1593 105.383 42.2624C105.14 42.3562 104.927 42.4969 104.752 42.6751C104.577 42.8532 104.441 43.0783 104.344 43.3315C104.247 43.5941 104.198 43.8848 104.198 44.2037C104.198 44.5319 104.247 44.832 104.344 45.0852C104.441 45.3478 104.577 45.5634 104.742 45.7416C104.917 45.9198 105.111 46.0605 105.344 46.1543C105.577 46.248 105.83 46.2949 106.092 46.2949C106.257 46.2949 106.403 46.2855 106.529 46.2668C106.655 46.248 106.782 46.2199 106.888 46.1824C106.995 46.1449 107.102 46.0886 107.199 46.0323C107.296 45.9761 107.393 45.9011 107.491 45.8167C107.549 45.751 107.588 45.7322 107.636 45.7322Z"/>
<path d="M115.338 46.8295H114.59V44.41H111.628V46.8295H110.88V41.5215H111.628V43.8942H114.59V41.5215H115.338V46.8295Z"/>
<path d="M119.592 46.2293H121.971V46.8295H118.844V41.5215H119.592V46.2293Z"/>
<path d="M129.391 46.8294H128.818C128.75 46.8294 128.701 46.8107 128.653 46.7826C128.614 46.7544 128.585 46.7075 128.565 46.6606L128.051 45.3759H125.584L125.069 46.6606C125.05 46.7075 125.02 46.745 124.982 46.7826C124.943 46.8201 124.885 46.8388 124.817 46.8388H124.244L126.438 41.5309H127.196L129.391 46.8294ZM125.788 44.8601H127.837L126.973 42.7031C126.914 42.5718 126.866 42.403 126.807 42.2061C126.778 42.3093 126.749 42.403 126.72 42.4874C126.691 42.5718 126.672 42.6469 126.642 42.7125L125.788 44.8601Z"/>
<path d="M132.683 41.5403C132.712 41.5591 132.751 41.5872 132.79 41.6341L135.976 45.6385C135.966 45.5729 135.966 45.5166 135.956 45.451C135.956 45.3947 135.956 45.329 135.956 45.2728V41.5122H136.607V46.8201H136.228C136.17 46.8201 136.121 46.8108 136.082 46.792C136.044 46.7732 136.005 46.7357 135.966 46.6888L132.78 42.6938C132.79 42.7595 132.79 42.8157 132.79 42.872C132.79 42.9283 132.79 42.9846 132.79 43.0314V46.8201H132.139V41.5122H132.528C132.606 41.5216 132.654 41.5216 132.683 41.5403Z"/>
<path d="M144.58 44.1755C144.58 44.5694 144.512 44.9352 144.386 45.2634C144.26 45.5916 144.075 45.873 143.833 46.098C143.59 46.3325 143.308 46.5107 142.978 46.642C142.648 46.7733 142.279 46.8295 141.871 46.8295H139.812V41.5215H141.871C142.279 41.5215 142.648 41.5872 142.978 41.7091C143.308 41.8404 143.6 42.0186 143.833 42.253C144.075 42.4875 144.25 42.7688 144.386 43.0971C144.522 43.4159 144.58 43.7817 144.58 44.1755ZM143.823 44.1755C143.823 43.8473 143.774 43.5566 143.687 43.3034C143.6 43.0502 143.464 42.8251 143.298 42.6469C143.133 42.4687 142.929 42.3374 142.687 42.2437C142.444 42.1499 142.182 42.103 141.881 42.103H140.569V46.2481H141.881C142.172 46.2481 142.444 46.2012 142.687 46.1074C142.929 46.0136 143.133 45.8823 143.298 45.7042C143.464 45.526 143.6 45.3103 143.687 45.0571C143.774 44.7945 143.823 44.5038 143.823 44.1755Z"/>
<path d="M52.4234 31.6747L63.2134 33.0721L62.9415 35.0321L52.1515 33.6254L52.4234 31.6747Z"/>
<path d="M52.8747 -0.0660345L43.0031 13.1665L44.6579 14.3176L54.5296 1.08506L52.8747 -0.0660345Z"/>
<path d="M43.2067 4.39035L39.7054 11.4844L41.5465 12.3317L45.0477 5.23757L43.2067 4.39035Z"/>
<path d="M39.1884 -0.406639L36.149 10.3987L38.1172 10.9149L41.1566 0.109534L39.1884 -0.406639Z"/>
<path d="M34.4854 10.1335L32.4459 9.94597L33.1452 2.11536L35.175 2.28416L34.4854 10.1335Z"/>
<path d="M28.7262 10.1335L27.8716 1.37451L29.9014 1.18695L30.756 9.94597L28.7262 10.1335Z"/>
<path d="M25.0939 10.9588L23.4041 5.16321L25.3756 4.62866L27.0557 10.4336L25.0939 10.9588Z"/>
<path d="M21.676 7.90717L19.8423 8.76917L21.6744 12.4032L23.5081 11.5412L21.676 7.90717Z"/>
<path d="M18.5772 14.4099L17.606 13.1345L19.257 11.9716L20.2185 13.247L18.5772 14.4099Z"/>
<path d="M15.8967 16.9231L11.031 12.4686L12.4392 11.0338L17.3049 15.4883L15.8967 16.9231Z"/>
<path d="M13.731 19.8491L6.2334 15.0757L7.35028 13.4252L14.8479 18.2079L13.731 19.8491Z"/>
<path d="M12.1383 23.1126L7.43774 21.1901L8.23412 19.3802L12.9347 21.2933L12.1383 23.1126Z"/>
<path d="M4.01905 27.9517L10.9534 28.2142L10.866 30.1836L3.93164 29.921L4.01905 27.9517Z"/>
<path d="M10.9491 31.8218L6.87073 32.3713L7.15259 34.3217L11.2309 33.7722L10.9491 31.8218Z"/>
<path d="M11.6158 35.3674L9.3927 36.0748L10.0311 37.9453L12.2542 37.2379L11.6158 35.3674Z"/>
<path d="M12.9242 38.7317L5.48267 42.6357L6.45633 44.3662L13.8979 40.4622L12.9242 38.7317Z"/>
<path d="M14.8338 41.8299L7.71936 47.3545L8.99752 48.8892L16.1119 43.3647L14.8338 41.8299Z"/>
<path d="M17.2911 44.5401L11.4668 51.0334L13.0085 52.3228L18.8328 45.8294L17.2911 44.5401Z"/>
<path d="M20.1999 46.7827L18.108 50.1966L19.8632 51.1994L21.9551 47.7855L20.1999 46.7827Z"/>
<path d="M22.6271 56.4232L20.7139 55.7386L23.4915 48.4987L25.4047 49.1833L22.6271 56.4232Z"/>
<path d="M27.04 49.6132L25.7588 56.5944L27.7671 56.9381L29.0483 49.9568L27.04 49.6132Z"/>
<path d="M32.7956 55.0164L30.7561 55.0258L30.7367 50.1023L32.7762 50.093L32.7956 55.0164Z"/>
<path d="M36.2627 59.3115L34.4659 49.943L36.4666 49.5773L38.273 58.9458L36.2627 59.3115Z"/>
<path d="M40.0152 48.4404L38.1086 49.1401L40.2274 54.5227L42.1339 53.8229L40.0152 48.4404Z"/>
<path d="M41.5266 47.7298L49.6361 60.5495L51.3843 59.5273L43.2748 46.7076L41.5266 47.7298Z"/>
<path d="M45.8387 46.8857L44.683 45.7885L46.1398 44.4006L47.2858 45.4978L45.8387 46.8857Z"/>
<path d="M52.5012 47.1952L47.3441 43.2565L48.6067 41.7091L53.7734 45.6478L52.5012 47.1952Z"/>
<path d="M54.7834 43.0408L49.5389 40.34L50.5004 38.605L55.7449 41.2965L54.7834 43.0408Z"/>
<path d="M53.6861 37.8736L51.161 37.0952L51.7826 35.2196L54.3077 35.998L53.6861 37.8736Z"/>
<path d="M52.4916 30.0335L52.3848 28.0642L57.435 27.8297L57.5321 29.7991L52.4916 30.0335Z"/>
<path d="M57.9084 23.136L51.6936 24.5322L52.1558 26.4504L58.3706 25.0542L57.9084 23.136Z"/>
<path d="M51.1707 22.972L50.3549 21.162L54.3562 19.4927L55.1623 21.3027L51.1707 22.972Z"/>
<path d="M49.5488 19.7271L48.4222 18.086L58.95 11.3057L60.0863 12.9469L49.5488 19.7271Z"/>
<path d="M47.3539 16.8106L45.9457 15.3945L47.5287 13.9128L48.937 15.3382L47.3539 16.8106Z"/>
<path d="M0.0856934 24.1911L11.1768 26.5919L11.6235 24.6694L0.542156 22.2686L0.0856934 24.1911Z"/>
<path d="M44.7367 30.5477L44.6687 29.1035L40.1332 29.3098L44.5522 28.3251L44.222 26.9184L39.7933 27.9031L43.9598 26.1776L43.3673 24.8459L39.2106 26.5808L42.9886 24.1613L42.1533 22.9516L38.3754 25.3805L41.6483 22.342L40.6091 21.301L37.3459 24.3395L39.9973 20.7853L38.7833 19.9412L36.1319 23.4861L38.084 19.538L36.7341 18.919L34.782 22.8672L35.9765 18.6377L34.5294 18.2626L33.3349 22.4827L33.7331 18.1219L32.2471 18L31.8295 22.5108L31.3828 18L29.8968 18.1407L30.3242 22.5014L29.1004 18.2813L27.6534 18.6752L28.8868 22.8953L26.8958 18.9566L25.5556 19.5943L27.5465 23.5236L24.8563 19.9975L23.652 20.8509L26.3423 24.377L23.0402 21.3667L22.0204 22.417L25.3128 25.4273L21.5154 23.036L20.6996 24.2457L24.497 26.6371L20.3111 24.9397L19.7381 26.2714L23.9143 27.9688L19.4856 27.0216L19.1651 28.4283L23.5841 29.3755L19.0583 29.2067L19 30.6509L23.5258 30.8197L19.0388 31.4292L19.2428 32.8641L23.7394 32.2545L19.4273 33.6237L19.9032 35.0023L24.2056 33.6237L20.2237 35.715L20.9327 36.9904L24.9243 34.8991L21.3891 37.6375L22.3215 38.7628L25.8567 36.0151L22.8945 39.3349L24.0211 40.2727L26.993 36.9623L24.6815 40.7322L25.9635 41.4731L28.2749 37.7031L26.7016 41.8107L28.1001 42.3077L29.6832 38.2001L28.8868 42.514L30.363 42.7672L31.1497 38.4534L31.1691 42.8329L32.6647 42.8235L32.6453 38.444L33.4805 42.7578L34.9471 42.4859L34.1215 38.1814L35.7337 42.2796L37.1322 41.7638L35.5201 37.675L37.8606 41.4262L39.1426 40.6759L36.802 36.9247L39.7933 40.2164L40.9199 39.2599L37.9189 35.9682L41.4735 38.6878L42.4058 37.5531L38.8513 34.8335L42.8526 36.8966L43.5519 35.6306L39.5602 33.5674L43.8724 34.8991L44.3288 33.5299L40.007 32.1889L44.5133 32.7609L44.7076 31.3261L40.2109 30.754L44.7367 30.5477Z"/>
<path d="M32.1792 29.1316C32.0044 28.7283 31.7616 28.372 31.4508 28.0813C31.1401 27.7812 30.7613 27.5561 30.3243 27.3873C29.8872 27.2185 29.3919 27.1341 28.8577 27.1341H26.1772V33.7925H28.8577C29.3919 33.7925 29.8872 33.708 30.3243 33.5392C30.7613 33.3704 31.1401 33.1454 31.4508 32.8453C31.7616 32.5452 32.0044 32.1982 32.1792 31.7856C32.3541 31.3729 32.4415 30.9322 32.4415 30.4539C32.4318 29.9756 32.3443 29.5349 32.1792 29.1316ZM30.6642 31.3542C30.5768 31.6168 30.4505 31.8418 30.2854 32.0294C30.1203 32.217 29.9164 32.3576 29.6736 32.4514C29.4308 32.5546 29.1588 32.6014 28.8577 32.6014H27.7894V28.3157H28.8577C29.1685 28.3157 29.4405 28.3626 29.6736 28.4658C29.9164 28.5689 30.1203 28.7096 30.2854 28.8878C30.4505 29.0753 30.5768 29.3004 30.6642 29.563C30.7516 29.8256 30.8001 30.1257 30.8001 30.4539C30.8001 30.7915 30.7516 31.0916 30.6642 31.3542Z" fill="white"/>
<path d="M37.4819 28.3157V27.1341H33.0338V33.7925H37.4819V32.6014H34.646V31.0166H36.8118V29.8725H34.646V28.3157H37.4819Z" fill="white"/>
</g>
</svg>
