<?xml version="1.0" encoding="utf-8"?>
<!-- Generator: Adobe Illustrator 19.2.1, SVG Export Plug-In . SVG Version: 6.00 Build 0)  -->
<svg version="1.1" id="layer" xmlns="http://www.w3.org/2000/svg" xmlns:xlink="http://www.w3.org/1999/xlink" x="0px" y="0px"
	 viewBox="0 0 652 652" style="enable-background:new 0 0 652 652;" xml:space="preserve">
<g fill="#A0A1AE">
	<path d="M144.7,347.6c-1.8,0-4.9-1.8-4.9-4.5l0-44.6c0-2.8,3.2-4.5,4.6-4.5c0.5,0,0.6-1.2,0-1.2h-19.9c-0.6,0-0.5,1.2,0,1.2
		c1.4,0,4.6,1.7,4.6,4.5v44.6c0,2.8-2.8,4.5-4.6,4.5c-0.5,0-0.7,1.4,0,1.4h20.1C145.4,349,145.2,347.6,144.7,347.6z M135.7,345.7
		c0,0.2-0.2,0.4-0.4,0.4h-1.4c-0.2,0-0.4-0.2-0.4-0.4v-49.5c0-0.2,0.2-0.4,0.4-0.4h1.4c0.2,0,0.4,0.2,0.4,0.4
		C135.7,296.2,135.7,345.7,135.7,345.7z M93.1,295.8c10.3,0,18.5,3.9,23.8,12c0.3,0.5,1.1,0.2,0.9-0.2c-0.3-0.7-6.2-14.8-6.2-14.8
		H70.5c-0.6,0-0.5,1.2,0,1.2c2.2,0,5.7,2.4,5.7,5.2V341c0,4-2.6,6.7-5.7,6.7c-0.5,0-0.6,1.4,0,1.4h41.2l5.9-14.1
		c0.2-0.5-0.6-1.1-0.9-0.4c-2.3,4.5-11.1,11.5-22.6,11.5h-7.9v-23.5h10.5c6.9,0,10.3,4.8,11.3,6.1c0.5,0.6,1.4,0.4,1-0.4
		c-0.3-0.8-3.6-7.3-3.6-7.3s3.3-6.5,3.6-7.3c0.3-0.8-0.4-1.1-0.8-0.5s-5.5,6-12.6,6h-9.4v-23.5H93.1z M82.3,345.7
		c0,0.2-0.2,0.4-0.4,0.4h-1.4c-0.2,0-0.4-0.2-0.4-0.4v-49.5c0-0.2,0.2-0.4,0.4-0.4h1.4c0.2,0,0.4,0.2,0.4,0.4
		C82.3,296.2,82.3,345.7,82.3,345.7z M64.7,334.4c-1.6,3.1-10.8,11.7-22.9,11.7h-8.2L66,292.8H35.5c-3.6,0-7.1-0.3-7.1-0.3
		s-5.7,12.9-6.2,14c-0.4,0.8,0.5,1.2,1,0.3c1.5-2.6,8.3-11.1,21.8-11.1h6.9L20,349h38.9c0,0,6.2-13.7,6.5-14.4
		C65.7,334,65.1,333.8,64.7,334.4z M28.3,346.1h-1.7c-0.2,0-0.3-0.2-0.1-0.4l30-49.6c0.1-0.2,0.4-0.4,0.6-0.4h1.7
		c0.2,0,0.3,0.2,0.1,0.4l-30,49.6C28.8,345.9,28.5,346.1,28.3,346.1z M197,307c-0.3-0.7-5.9-12.2-6.5-13.6c-0.5-1.4-1.6-0.6-2.5-0.6
		h-31.5c-1,0-2-0.8-2.5,0.6c-0.6,1.5-5.5,13.4-5.8,14.1c-0.3,0.7,0.7,1.2,1.2,0.3c2.2-3.9,9.5-11.9,17.5-11.9v47.3
		c0,2.8-2.8,4.5-4.6,4.5c-0.5,0-0.7,1.4,0,1.4h20.1c0.7,0,0.5-1.4,0-1.4c-1.8,0-4.9-1.8-4.9-4.5v-47.3c7.8,0,15.7,7.7,18.3,11.5
		C196.3,308.1,197.3,307.6,197,307z M173.3,345.7c0,0.2-0.2,0.4-0.4,0.4h-1.4c-0.2,0-0.4-0.2-0.4-0.4v-49.5c0-0.2,0.2-0.4,0.4-0.4
		h1.4c0.2,0,0.4,0.2,0.4,0.4V345.7z M595.3,295.8c10.3,0,18.5,3.9,23.8,12c0.3,0.5,1.1,0.2,0.9-0.2c-0.3-0.7-6.2-14.8-6.2-14.8
		h-41.1c-0.6,0-0.5,1.2,0,1.2c2.2,0,5.7,2.4,5.7,5.2V341c0,4-2.6,6.7-5.7,6.7c-0.5,0-0.6,1.4,0,1.4h41.2l5.9-14.1
		c0.2-0.5-0.6-1.1-0.9-0.4c-2.3,4.5-11.1,11.5-22.6,11.5h-7.9v-23.5h10.5c6.9,0,10.3,4.8,11.3,6.1c0.5,0.6,1.4,0.4,1-0.4
		c-0.3-0.8-3.6-7.3-3.6-7.3s3.3-6.5,3.6-7.3c0.3-0.8-0.4-1.1-0.8-0.5s-5.5,6-12.6,6h-9.4v-23.5H595.3z M584.5,345.7
		c0,0.2-0.2,0.4-0.4,0.4h-1.4c-0.2,0-0.4-0.2-0.4-0.4v-49.5c0-0.2,0.2-0.4,0.4-0.4h1.4c0.2,0,0.4,0.2,0.4,0.4
		C584.5,296.2,584.5,345.7,584.5,345.7z M502.6,347.6c-1.8,0-4.9-1.8-4.9-4.5l0-44.6c0-2.8,3.2-4.5,4.6-4.5c0.5,0,0.6-1.2,0-1.2
		h-19.9c-0.6,0-0.5,1.2,0,1.2c1.4,0,4.6,1.7,4.6,4.5v44.6c0,2.8-2.8,4.5-4.6,4.5c-0.5,0-0.7,1.4,0,1.4h20.1
		C503.3,349,503.1,347.6,502.6,347.6z M493.6,345.7c0,0.2-0.2,0.4-0.4,0.4h-1.4c-0.2,0-0.4-0.2-0.4-0.4v-49.5c0-0.2,0.2-0.4,0.4-0.4
		h1.4c0.2,0,0.4,0.2,0.4,0.4C493.6,296.2,493.6,345.7,493.6,345.7z M567.3,292.8h-17.2c-0.6,0-0.5,1.2,0,1.2c4,0,6.7,1.9,6.7,11.3
		v26.5l-32.7-39.1h-15.6c-0.6,0-0.5,1.2,0,1.2c2.8,0,8.8,3.2,8.8,7.9v31.8c0,11.7-2,14-6.2,14c-0.5,0-0.7,1.4,0,1.4h16.5
		c0.7,0,0.5-1.4,0-1.4c-4.6,0-6.5-2.3-6.5-14l0-28.9l39.6,46l0-45.5c0-9.3,2.9-11.3,6.7-11.3C567.8,294,567.9,292.8,567.3,292.8
		L567.3,292.8z M557.1,339c0,0.5-1.6,0.3-1.8,0.1L518.6,296c-0.2-0.2-0.2-0.3,0.1-0.3h2c0.3,0,0.6,0.3,0.7,0.5l35.5,41.7
		c0.2,0.2,0.2,0.4,0.2,0.7C557.1,338.7,557.1,339,557.1,339z M428.3,292.8h-17.2c-0.6,0-0.5,1.2,0,1.2c4,0,6.7,1.9,6.7,11.3v26.5
		L385,292.8h-15.6c-0.6,0-0.5,1.2,0,1.2c2.8,0,8.8,3.2,8.8,7.9v31.8c0,11.7-1.9,14-6.2,14c-0.5,0-0.7,1.4,0,1.4h16.5
		c0.7,0,0.5-1.4,0-1.4c-4.6,0-6.5-2.3-6.5-14l0-28.9l39.6,46v-45.5c0-9.3,2.9-11.3,6.7-11.3C428.8,294,428.9,292.8,428.3,292.8
		L428.3,292.8z M418,339.1c0,0.5-1.6,0.3-1.8,0.1L379.6,296c-0.2-0.2-0.2-0.3,0.1-0.3h2c0.3,0,0.6,0.3,0.7,0.5l35.4,41.8
		c0.2,0.2,0.2,0.4,0.2,0.7C418,338.8,418,339.1,418,339.1z M339.1,291.4c-13.2,0-29.4,9.9-29.4,30c0,17.5,11.1,28.4,29,28.4
		c23.2,0,29.9-17.1,29.9-28.9C368.6,304.2,355.8,291.4,339.1,291.4L339.1,291.4z M315,321.8c0-14.2,9-25,14.2-26.1
		c-4.6,2.7-12.1,12.6-11.8,26.1c0.3,12.7,4.1,18.5,9.8,23.7C321.5,341.9,315,336,315,321.8z M321.8,321c0-17.9,8.7-26.8,17.3-26.8
		c10.2,0,17.7,8.4,17.7,25.8c0,17.8-8.6,26.5-17.5,26.5C330,346.6,321.8,340.9,321.8,321z M349.2,345.5c4.6-2.7,12-11.7,11.8-25.3
		c-0.1-13-4.1-19.3-9.8-24.5c5.7,3.5,12.2,10.3,12.2,24.5C363.4,334.4,354.4,344.4,349.2,345.5z M479.1,333.9
		c-2.3,4.5-10.8,12.2-22.2,12.2h-6.6l0-47.6c0-2.8,3.7-4.5,5.1-4.5c0.5,0,0.6-1.2,0-1.2h-21.2c-0.6,0-0.5,1.2,0,1.2
		c2.2,0,5.7,2.4,5.7,5.2v41c0,5.3-3.2,7.5-6.2,7.5c-0.5,0-0.6,1.4,0,1.4h40.7c0,0,5.4-14.2,5.6-14.7
		C480.2,333.8,479.4,333.3,479.1,333.9z M446.2,345.7c0,0.2-0.2,0.4-0.4,0.4h-1.4c-0.2,0-0.4-0.2-0.4-0.4v-49.5
		c0-0.2,0.2-0.4,0.4-0.4h1.4c0.2,0,0.4,0.2,0.4,0.4C446.2,296.2,446.2,345.7,446.2,345.7z"/>
</g>
<g fill="#A0A1AE">
	<path d="M256.4,332.4c-2.8,0-5.1,2.2-5.1,5c0,2.8,2.3,5,5.1,5c2.8,0,5.1-2.2,5.1-5C261.5,334.6,259.3,332.4,256.4,332.4z
		 M252.4,339.1c0,0-0.7-1.8,0-3.4C253.2,337.5,252.4,339.1,252.4,339.1z M258.1,333.4c-1.8,0.8-3.4,0-3.4,0S256.6,332.7,258.1,333.4
		z M254.7,341.4c0,0,1.6-0.8,3.4,0C256.6,342.1,254.7,341.4,254.7,341.4z M259.5,340.4c-0.6,0.7-1.6-0.3-3-0.3c-1.5,0-2.4,1-3.1,0.2
		c-0.7-0.6,0.3-1.5,0.3-3s-1-2.4-0.2-3c0.6-0.7,1.6,0.3,3,0.3c1.5,0,2.4-1,3.1-0.2c0.7,0.6-0.3,1.5-0.3,3S260.2,339.8,259.5,340.4z
		 M260.5,335.7c0.7,1.6,0,3.4,0,3.4S259.7,337.5,260.5,335.7z"/>
	<path d="M256.4,330.4c-1,0-2,0.2-2.9,0.6c-0.1-0.1-0.3-0.2-0.3-0.4c-0.2-0.5-0.6-0.2-0.6-0.2s-0.3-0.6-0.3-1
		c-0.1-0.4-0.5-0.4-0.8-0.1c-0.3,0.3-0.6,0.4-0.6,0.4l-4.7-4.5l1.5-1.5l0.6,0.6l-1,1.1l1.9,1.8l5.2-5.3l-3-2.9l-2,2l1.3,1.3l0.6-0.6
		l0.4,0.4l-1.1,1.1l-4-3.8l1.1-1.1l0.4,0.4l-0.6,0.6l1.1,1.1l2-2.1l-3-2.9l-5.2,5.3l1.9,1.8l1-1.1l0.6,0.6l-1.5,1.5l-3.4-3.3
		c-0.5-0.5-1.2,0-1.6,0.4c-0.4,0.4-0.8,1.2-0.3,1.7l9.8,9.4c0,0-0.1,0.3-0.4,0.6c-0.3,0.3-0.3,0.7,0.1,0.8c0.4,0.1,1,0.3,1,0.3
		s-0.3,0.4,0.2,0.6c0.1,0,0.1,0.1,0.2,0.2c-0.5,1-0.8,2-0.8,3.2c0,3.9,3.2,7,7.2,7c4,0,7.2-3.1,7.2-7
		C263.6,333.5,260.4,330.4,256.4,330.4z M239.8,322.1c-0.3-0.3-0.3-0.5,0.1-0.9c0.2-0.2,0.5-0.6,0.9-0.1l3.6,3.4l2.5-2.6l-1.6-1.5
		l-1.1,1.1l-0.9-0.9l4.1-4.3l2.1,2l-1,1l-0.3-0.3l0.6-0.6l-1.2-1.1l-1.9,2l4.8,4.6l1.9-2l-1.2-1.2l-0.6,0.6l-0.4-0.4l1-1l1.9,1.9
		l-4.1,4.2l-0.7-0.7l1.1-1.1l-1.7-1.7l-2.5,2.6l5.2,5.1l-1,1.1L239.8,322.1L239.8,322.1z M250.2,332.8c-0.2-0.3-0.4-0.1-0.6-0.2
		c-0.1-0.1-0.1-0.3,0.2-0.6c0.3-0.3,1-1,1.3-1.4c0.4-0.4,0.6-0.6,0.8-0.4c0.2,0.2,0.1,0.4,0.3,0.7c0.3,0.3,0.5-0.1,0.8,0.5
		c-1.6,1.1-2.4,2.3-2.4,2.3C249.9,333.4,250.5,333.1,250.2,332.8z M256.4,343.4c-3.4,0-6.2-2.7-6.2-6c0-3.3,2.8-6,6.2-6
		c3.4,0,6.2,2.7,6.2,6C262.6,340.7,259.8,343.4,256.4,343.4z"/>
	<path d="M297.6,346.4c1.8-1.2,1.4-3.4,1.4-3.4s-1,0.7-2.4,1c-0.9,0.2-1.5,1.5-1.1,2.5c-0.5,0.4-0.6,1-0.6,1c-1,0.4-2,0.4-2,0.4
		c1.7-3.3,1.6-3.4,1.1-5.5c-0.3-1.4-0.5-1.9-1.1-1.7c-1,0.2-1.1-1.9-0.2-3.2c0,0,3.2,2.6,6.5-0.1c3.2-2.6,2.3-7-1.5-10.8
		c-3.7-3.8-4-5.4-4-7.8c2.5,0.1,2.8-1.8,2.5-2.1c1.7-0.7,1-2.3,1-2.3c0.6-1,0.3-2.5,0.3-2.5c-1.6-0.1-2.6,0.5-2.6,0.5
		c-1.1-0.3-1.9,1.1-1.9,1.1c-2,0-1.4,3.9-1.4,3.9s-0.9,2.3-0.3,4.1c1.6,5,4.5,6.4,6.3,9.6c0.7,1.3,0.7,3.8-0.9,4.4
		c-1.5,0.6-2.9-0.6-3.7-3.9c-0.8-3.3-1.1-3.4-3.1-6c-1.9-2.6-2-3.9-2.2-6.6c-0.1-2.7-0.4-5.5-0.4-5.5c0.4,0.1,0.6-0.2,0.6-0.2
		c-0.8-1.1-0.9-2.4-0.9-2.4c0.3,0,0.5-0.3,0.5-0.3c-1-1-0.5-1.3-1-2.2c0.6,0,0.7-0.4,0.7-0.4c-1.2-0.9-1.1-1.7-2.2-3
		c0.3,0,0.5-0.2,0.5-0.2c-0.9-1.1-1.3-2.1-3.1-1.7l-0.5-0.6c0,0,1.4-0.1,2.1-1c0.7-0.9-0.6-1.8-0.6-1.8s-0.3,0.3-0.5,0.3
		c-0.4-0.1,0-0.6-0.5-0.8c-0.5-0.2-0.2-1.1,0.5-1c0.7,0.1,0.2,1,0.7,1.2c0.5,0.2,0.7-0.8,1.1-0.7c0.3,0.1,0.3-0.1,1-1.3
		c0.4-0.7-0.3-0.7,0.2-1.6c0.3-0.7,0.4-1.6-2.5-2.1c-0.1-2.4-2.3-1.5-3.1-1.6c-0.4-1.5-1.8-1.8-3.8-1.7l-0.2,0.3
		c-1.4-0.1-2.2,0.3-2.2,0.3l0.1,0.6c-1.4-0.1-1.9,0.8-2.7,1l0.2,0.4c-1.2,0.8-1.1,1.7-2.3,2.4l0.5,0.5l-0.3,0.5
		c-1.3,0-2.1,0.6-2.1,0.6c-1.6-0.2-2,1.3-2,1.3c-1.7,0.3-2.1,2.2-2,2.9c-1.4,0.4-1.1,2.1-1.1,2.1c-0.9,0.4-1.3,1.7,0,2.4
		c0,0-0.6,1.5-2.3,0.8c-1.7-0.7-1.3-2-1-2.2c1.2,1,2.1,0.1,2-1c1.8-0.5,1.3-2.3,1.3-2.3c2.2-1.2,0.8-3.6,0.8-3.6c1-1,0-2.1,0-2.1
		c0-1.5-1-3-1-3c-1.6,0.3-2.2,1.3-2.2,1.3c-1.7,0-2,1.7-2,1.7c-1.7,0.1-2.3,1.6-2.1,2.9c-1.1,0.6-1.2,2.1-0.6,3.2
		c-0.9,1.1-0.1,2.3,0.9,2.4c0,0-0.2,1.6-2,1.6s-2.5-1.8-2-2.5c1.4,0.6,2-0.6,1.7-1.7c1.6-1.2,0.2-3,0.2-3c1-1.5,0.1-2.7-0.9-3.6
		c0-1-0.8-1.1-0.8-1.1c-0.7-1.8-2-2.5-2-2.5s-1.3,0.7-2,2.5c0,0-0.8,0.1-0.8,1.1c-1,1-1.9,2.1-0.9,3.6c0,0-1.4,1.7,0.2,3
		c-0.3,1.1,0.4,2.2,1.7,1.7c0.5,0.8-0.2,2.5-2,2.5c-1.8,0-2-1.6-2-1.6c1,0,1.8-1.3,0.9-2.4c0.6-1.1,0.4-2.6-0.6-3.2
		c0.2-1.3-0.4-2.9-2.1-2.9c0,0-0.4-1.7-2-1.7c0,0-0.6-1-2.2-1.3c0,0-1,1.4-1,2.9c0,0-1,1.2,0,2.1c0,0-1.4,2.5,0.8,3.6
		c0,0-0.5,1.8,1.3,2.3c-0.1,1.1,0.8,2,2,1c0.3,0.3,0.7,1.5-1,2.2c-1.7,0.7-2.3-0.8-2.3-0.8c1.3-0.7,0.9-2,0-2.4c0,0,0.3-1.6-1.1-2.1
		c0.2-0.8-0.3-2.6-2-2.9c0,0-0.4-1.5-2-1.3c0,0-0.8-0.6-2.1-0.6l-0.3-0.5l0.5-0.5c-1.2-0.7-1-1.6-2.3-2.4l0.2-0.4
		c-0.8-0.2-1.4-1.1-2.7-1l0.1-0.6c0,0-0.8-0.3-2.2-0.3l-0.2-0.3c-2-0.2-3.4,0.1-3.8,1.7c-0.8,0.1-3-0.8-3.1,1.6
		c-2.9,0.4-2.8,1.4-2.5,2.1c0.4,0.9-0.3,0.9,0.2,1.6c0.7,1.2,0.8,1.4,1,1.3c0.5-0.2,0.6,0.8,1.1,0.7s0-1.1,0.7-1.2s0.9,0.7,0.5,1
		c-0.6,0.3-0.1,0.7-0.5,0.8c-0.2,0.1-0.5-0.3-0.5-0.3s-1.2,0.9-0.6,1.8s2.1,1,2.1,1l-0.5,0.6c-1.8-0.3-2.1,0.6-3.1,1.7
		c0,0,0.2,0.2,0.5,0.2c-1.1,1.3-1,2.1-2.2,3c0,0,0.1,0.4,0.7,0.4c-0.5,0.9,0,1.2-1,2.2c0,0,0.1,0.3,0.5,0.3c0,0-0.1,1.3-0.9,2.4
		c0,0,0.1,0.3,0.6,0.2c0,0-0.3,2.8-0.4,5.5s-0.2,4-2.2,6.6c-1.9,2.6-2.2,2.7-3.1,6c-0.8,3.3-2.1,4.5-3.7,3.9
		c-1.6-0.6-1.7-3.1-0.9-4.4c1.8-3.2,4.7-4.6,6.3-9.6c0.6-1.9-0.3-4.1-0.3-4.1s0.7-3.8-1.4-3.9c0,0-0.8-1.5-1.9-1.1
		c0,0-1-0.6-2.6-0.5c0,0-0.3,1.6,0.3,2.5c0,0-0.8,1.6,1,2.3c-0.2,0.3,0.1,2.2,2.5,2.1c0.1,2.4-0.2,3.9-4,7.8
		c-3.7,3.8-4.6,8.2-1.5,10.8c3.3,2.7,6.5,0.1,6.5,0.1c0.9,1.3,0.8,3.4-0.2,3.2c-0.6-0.1-0.7,0.3-1.1,1.7c-0.5,2.1-0.6,2.3,1.1,5.5
		c0,0-1,0-2-0.4c0,0-0.1-0.6-0.6-1c0.4-1.1-0.2-2.4-1.1-2.5c-1.4-0.3-2.4-1-2.4-1s-0.4,2.2,1.4,3.4c0,0-2.1-0.5-3.3,1.1
		c1.4,0.5,1.4,1.4,2.6,1.7c1.4,0.4,2.1-1,2.1-1s0.4,0.3-0.1,1c-0.4,0.5-0.4,0.8,0.3,1c5.2,1.5,10.5,1.1,10.5,1.1s-1.1,0.6-1.5,2
		c2.2-0.6,6.3,1.1,8.7-2.5c0,0,2.9-0.8,6.8-1.5c0,0-0.9,0.5-1.4,1.4c0,0,3.5,1.7,8-0.9c0.2-0.1,0.5,0.2,0.2,0.4
		c-1.9,0.8-2.3,1.9-2.3,1.9s3.9,2.1,7.7-0.5c0,0-0.6,1.9,1.4,2.6c0,0,1.9-0.7,3.9-1.1c0,0-0.2,0.5,0.2,0.7c0,0,1.6-0.3,2.8-1.7
		c1.2,1.4,2.8,1.7,2.8,1.7c0.4-0.2,0.2-0.7,0.2-0.7c2,0.4,3.9,1.1,3.9,1.1c2-0.7,1.4-2.6,1.4-2.6c3.8,2.5,7.7,0.5,7.7,0.5
		s-0.4-1.1-2.3-1.9c-0.3-0.1,0-0.5,0.2-0.4c4.5,2.6,8,0.9,8,0.9c-0.5-0.9-1.4-1.4-1.4-1.4c4,0.7,6.8,1.5,6.8,1.5
		c2.5,3.5,6.5,1.9,8.7,2.5c-0.4-1.4-1.5-2-1.5-2s5.4,0.4,10.5-1.1c0.6-0.2,0.7-0.4,0.3-1c-0.5-0.7-0.1-1-0.1-1s0.7,1.4,2.1,1
		c1.3-0.3,1.3-1.3,2.6-1.7C299.7,346,297.6,346.4,297.6,346.4L297.6,346.4z M204,348.4c-0.8-0.1-1.5-0.8-1.5-0.8s0.6-0.6,1.6-0.5
		C205.1,347.2,205.2,348.5,204,348.4z M205,345.9c-1.3-0.5-1.2-1.6-1.2-1.6s0.3,0.2,1,0.4C206,345,205.8,346.3,205,345.9z
		 M205.9,347.5c-0.2,0.4-0.7-0.2-0.8-0.5C205.2,347,206.3,347,205.9,347.5z M284.6,304.6c0,0-0.5,0.1-0.8,0.1
		c-0.3-0.1-0.5,0.2,0,0.5c1.4,0.8,1.8,2,1.8,2s-0.7-0.1-1.5-0.8c-0.3-0.3-0.5,0-0.3,0.5c0.5,0.7,2.2,0.9,2.4,2.7c0,0-1-0.4-1.7-1.1
		c-0.3-0.3-0.6-0.1-0.3,0.3c0.6,1.1,2.4,1.3,2.5,3.3c0,0-0.7-0.2-1.5-1c-0.3-0.4-0.6,0-0.2,0.5c0.4,0.5,1.4,1,1.5,2.1
		s0.5,6.1,0.7,7.6s0.7,3.2,2.4,5.3c1.8,2.1,2,2.6,2.6,4.6c1.3,4.5,2.9,5.7,5,5.1c2.1-0.6,2.9-3.8,1.3-6.2c-2.1-3.1-7.8-7.7-5.7-12.9
		c0,0-0.7-1.2,0.2-2.3c0,0,0.3,0.2,0.4,0.5c0.6-0.5,0-1.2,0.8-1.9c0,0,0.3,0.3,0.2,0.7c0.7-0.2,0.5-1.8,2.5-1.7
		c0.2,1.8-0.9,1.4-1.3,2.4c0,0,0.6-0.2,0.9,0c-0.3,1.2-1.2,0.8-1.5,1.4c0,0,0.4,0,0.7,0.4c0,0-0.4,1.5-2.2,0.9c0,0-0.5,0.5-0.4,2.3
		c0.1,1.6,0.5,3.2,3.7,6.7c1.1,1.2,3.5,3.7,3.5,6.2c0,2.3-1.6,4.4-3.8,4.4c-2.8,0-4-2-4.3-3.9c-0.2-0.8-1-0.5-0.9,0.4
		c0.2,1.4,0.7,2.6,0.7,2.6s-0.4,0.7-0.7,1.7c-0.3,0.9-0.2,1.3,0,1.7c0.5,0.7,0.1,1.7,1,1.6c0.5-0.1,0.5,0.2,0.7,0.9
		c0.5,1.6,0.4,1.7,0.1,2.6c-0.3,0.9-0.9,2.4-1.1,2.7c-0.4,0.7-0.8-0.1-1.5,0.3c-0.6,0.3-1.4,0.1-0.9-0.5c0,0-0.3-0.2-0.6,0.1
		c0,0-0.5-1.5-1.7-0.8c0,0-0.6-0.6-1.1-0.5c0,0,0.6-1,3.8,0c0.5,0.2,0.9-0.7,0.2-0.9c0,0,0.5-1.7,0.6-2c0.1-0.3,0.2-0.4-0.3-0.9
		c-3.6-3-3.9-2.9-4.4-4.7c-0.5-1.9-0.7-2.2-1.3-3.6c-1.5-3.7-1.1-5-2.2-6.2c-2.2-2.4-3-3.9-3-3.9s-0.2,0-0.2,0.2
		c-0.8-0.6-0.4-1.2-1.1-1.8c0,0-0.2,0.1-0.3,0.6c-1.1-0.8-0.8-2.2-1.2-2.8c0,0-0.3,0.1-0.4,0.5c0,0-0.4-0.6-0.4-0.9
		c0-0.3-0.1-0.5,0.3-0.8c0.5-0.4,0.6-0.2,0.8,0.2c0.7-0.6,1-1.4,1.7-2.1c0,0,0.3,0.2,0.6,0.6c0,0,0.6-0.9,1-2.3c0.7,0.1,1,0,0.9-0.9
		c-0.2-1.7,0.7-2.1,0.6-4.1c0-0.7-0.7-0.5-0.7,0.1c0.1,1.6-0.5,1.6-0.6,3c-1-1.2-0.9,0.5-1.3,2.4c0,0-0.3-0.1-0.4-0.5
		c-0.2-0.8-0.6,0.5-1.5,2c-0.2-0.6-0.3-0.9-1-0.1c-0.7,0.8-3.2,2.9-5.5,4.6c-0.9,0.7-0.3,1.2-0.7,2c-0.3,0.6-0.8,1-0.8,1
		s-0.3-0.6-0.9-0.5c0,0,0.2-1.1-0.8-1.5c0,0,1.2-1.5-0.2-2.6c0.9-0.3,1.2-0.2,0.5-1.5c0,0,0.8-0.8-0.1-1.8c0.8-0.6,1.1,0.2,1.1,1
		c0.1,1.1,0.6,2.1,1.2,1.5c0.6-0.6,3.6-3.6,4.4-5c0.8-1.4,0.4-2.4,2.5-4.9c0.4-0.5,0-0.9-0.4-0.5c-0.2,0.2-0.8,0.4-0.8,0.4
		s-0.1-1.3,0.8-2.4c0.3-0.5,0.1-0.7-0.6-0.1c0,0-0.1-1,1.5-2.4c0.5-0.4,0.2-0.6-0.6-0.3c0,0,0.3-0.9,1.4-1.2c1-0.2,1.4,0.2,1.4,0.4
		c0.1,0.2,0.4,0.2,0.5,0c0-0.2,0.3-0.8,1.1-0.7c0.7,0.1,0.7,0.6,0.7,0.8s0.2,0.4,0.4,0.2C282.6,303.8,283.8,303.5,284.6,304.6
		L284.6,304.6z M288.1,347.8c-0.4,0.5-1,0.8-1,0.8c-0.1-0.7,0.4-1.1,0.4-1.1C288.1,347.5,288.1,347.8,288.1,347.8z M285.3,344.7
		c0,0-2.9-0.2-4.1,3.4c0,0-0.9,0.1-1.4-0.2c0,0,0.7-0.3,1.1-1.7s0.8-2.8,1.1-3.7c0.3-1.2-1-0.8-0.7-1.9c0.6-2,0.5-2.2,1.2-2.4
		c0.7-0.2,1-0.2,1.8-1.6c0,0,0.4,1,0.6,2.1c0.2,1.1,1.1,2,4.7,4.7c0,0-0.2,1-0.5,1.9c-3.7-0.7-3.5,0.4-4.8,3.1c0,0-0.6,0.1-1.2-0.1
		C283.1,348.4,285.4,347.3,285.3,344.7L285.3,344.7z M281.9,348.2c0.2-1.1,1.5-2.3,2.6-2.5C284.2,346.9,283,348,281.9,348.2z
		 M285.8,347.3c0.6,0,0.6,0.3,0.6,0.3c-0.8,0.7-1.2,1.1-1.2,1.1C285,347.8,285.8,347.3,285.8,347.3z M267,327.1c0,0-0.1,4.3-0.1,7.4
		c-0.1,5.3-2,11.9-16,11.9c-13.9,0-15.8-6.6-15.9-11.9c-0.1-3.1-0.1-7.4-0.1-7.4c0.4-0.2,0.6-0.4,0.6-0.4c-0.7-0.6-0.9-1.1-0.9-1.1
		c1.4,0.2,1.9-0.5,1.9-0.5c-1-1.1-1.4-1.8-1.4-1.8c0.9,0.1,1.7-0.2,1.7-0.2c0.2-1.7-1.6-1.8-1.7-3.1c0.4,0,0.8,0.3,0.8,0.3
		c1-2.2-1.2-2.2-0.8-4c0.7-0.2,1-0.7,1-0.7c-0.2,0-0.3-0.1-0.4-0.2c0.8-0.3,1-0.9,1-0.9c0.2,0.6,0.2,1.1,0.2,1.1
		c1.1-0.2,1.4-1,1.4-1c0.1,0.5,0.5,1,0.5,1c0.9-0.3,1.2-1,1.2-1s5.9,0.1,10.8,0.1c4.9,0,10.8-0.1,10.8-0.1s0.3,0.6,1.2,1
		c0,0,0.4-0.5,0.5-1c0,0,0.3,0.8,1.4,1c0,0,0-0.5,0.2-1.1c0,0,0.2,0.6,1,0.9c0,0-0.2,0.1-0.5,0.2c0,0,0.3,0.5,1,0.7
		c0.5,1.9-1.8,1.9-0.8,4c0,0,0.4-0.3,0.8-0.3c-0.1,1.3-1.8,1.4-1.7,3.1c0,0,0.8,0.3,1.7,0.2c0,0-0.4,0.7-1.4,1.8
		c0,0,0.5,0.7,1.9,0.5c0,0-0.2,0.5-0.9,1.1C266.4,326.6,266.6,326.9,267,327.1L267,327.1z M234,324.6c0,0-0.2-0.7,0.5-0.9
		c0,0,0.4,0.6,1,1.1C235.5,324.8,234.9,325.2,234,324.6z M234.3,326.6c0,0-0.8,0-1.4-0.5c0,0,0-0.5,0.5-0.5
		C233.4,325.5,233.9,325.8,234.3,326.6z M226.9,310.7c2.6,2.4,1.6,4.3,1.6,4.3s-0.7-0.8-0.8-1.6c0-0.8-1-2.1-1-2.1
		C226.9,311.1,226.9,310.7,226.9,310.7z M226.5,308.9c0.6,0,0.5-0.7,0.5-0.7s0.8,0.6,1.4,1.4c0.7,1.1,0.4,1.3,0.6,2.5
		C227.3,310.8,226.5,308.9,226.5,308.9z M225.7,303.4c0,0,1.2,0.7,1.2,2.6c0,0.7-0.7,1-1-0.1l0.3-0.4
		C226.2,305.5,225.2,304.5,225.7,303.4z M223.6,300.4c0,0,0.4,0.4,1.1,0.7c1,0.6,0.3,1.8,0.3,1.8s-0.2-0.3-1.1-0.8
		C223.1,301.7,223.4,300.6,223.6,300.4z M223.5,302.7c0,0-0.3,0.1-0.7-0.1l0.3-0.3C223.2,302.3,223.3,302.6,223.5,302.7z
		 M224.6,295.8c-1.3,0-1.6-0.9-1.2-1.4c0.4-0.5,1.2-0.2,1.1,0.3C224.4,295.1,224.6,295.8,224.6,295.8z M224,299.8
		c-0.5-0.3-0.2-2,0.7-1.1c0.7,0.7,0.5,1.9,0.5,1.9S224.8,300.2,224,299.8z M224.2,297.5c-0.6-0.9,0.1-1.5,0.7-0.8
		c0.6,0.7,0.4,1.6,0.4,1.6S224.6,298.1,224.2,297.5z M225.3,295.8c0,0-0.5-0.5-0.3-1.6c0,0,1.5,0.1,2,1.7
		C227,295.9,226.2,295.7,225.3,295.8z M226,298.4c1,0.9,2.2,1.2,1.9,3.2C226.4,300.5,225.9,300.1,226,298.4z M227.6,304.4
		c-1-1.6-2.2-1.7-1.6-3.4C226,301,228,301.8,227.6,304.4z M225.7,296.6c1.5-0.3,2.3,0.7,2.3,2.1
		C227.9,298.6,226.1,298.3,225.7,296.6z M227.3,307.5c0,0-0.1-0.7,0.3-1.2c2.6,1.5,2,3.9,2,3.9C228.9,309.3,228.9,308.5,227.3,307.5
		z M228.8,298.8c0,0,2.9,0.8,2.4,3.7c-0.9-1.7-2.6-1.5-2.9-2.8c0,0,0.4,0.2,0.7,0.1C229,299.7,228.8,299.3,228.8,298.8z
		 M228.8,301.4c2.2,0.9,1.9,3.5,1.9,3.5c-0.7-1.1-2.2-1.2-2.4-2.4c0.3,0,0.5-0.2,0.5-0.2C228.6,301.8,228.8,301.4,228.8,301.4z
		 M228.5,303.9c1,1.1,2,1.3,1.6,3.5c0,0-1.2-0.9-1.9-1.9C228.2,305.5,228.6,305,228.5,303.9z M229.6,314.2c0,0,0.6,0.2,1.5,0.3
		c0,0,0.4,1.4,2.2,1.3c0.1,0.5,0,0.6-0.5,0.7c-0.5,0.2-0.9,0.5-1,1.9c0,0.4-0.2,0.4-0.6,0l-1.9-2.2
		C229.4,316.1,229.7,315.2,229.6,314.2z M232.8,314.9c-1.1-0.3-0.7-1.6-0.5-1.8c0.2-0.2,0.3-0.7-0.3-0.5c-1,0.4-0.6,1-1.2,0.9
		c-0.6-0.1-1-0.3-1-0.3c0.3-0.6,0.4-1.3,0.4-1.3c0.2,0.2,0.5,0,0.5,0c-0.5-1,0.1-1.4,0.1-1.4s0.9,0.9,1.5,1.2
		c0.5,0.3,0.7,0.1,0.8-0.1c0.7-1.3,1.8-0.7,1.8-0.7c1.4-0.9,2.2-0.1,2.2-0.1c1.4-0.7,2.2,0.2,2.2,0.2l0.5,1.2
		c-0.8-0.3-1.6,0.1-1.6,0.1c-0.7-0.4-1.7-0.2-1.7-0.2c-1.1-0.5-1.8,0.3-1.8,0.3c-0.4-0.5-0.9-0.8-0.7-0.1c0.2,0.5,0.2,1.1-0.2,1.1
		s-0.6,0.2-0.3,0.6C233,314.2,232.8,314.9,232.8,314.9L232.8,314.9z M273.5,299.6c-0.3,1.4-2,1.2-2.9,2.8c-0.5-2.9,2.4-3.7,2.4-3.7
		c0,0.5-0.2,0.9-0.2,0.9C273,299.8,273.5,299.6,273.5,299.6L273.5,299.6z M277.3,294.6c-0.1-0.5,0.7-0.8,1.1-0.3
		c0.4,0.5,0.1,1.4-1.2,1.4C277.2,295.8,277.4,295.1,277.3,294.6z M277.9,302.1c-1,0.6-1.1,0.8-1.1,0.8s-0.7-1.3,0.3-1.8
		c0.6-0.3,1.1-0.7,1.1-0.7C278.4,300.6,278.7,301.7,277.9,302.1L277.9,302.1z M278.6,302.3l0.3,0.3c-0.4,0.1-0.7,0.1-0.7,0.1
		C278.5,302.6,278.6,302.3,278.6,302.3L278.6,302.3z M276.5,300.6c0,0-0.1-1.2,0.5-1.9c1-1,1.2,0.8,0.7,1.1
		C277,300.2,276.5,300.6,276.5,300.6L276.5,300.6z M277.5,297.5c-0.4,0.6-1.2,0.8-1.2,0.8s-0.2-0.8,0.4-1.6
		C277.5,296,278.1,296.6,277.5,297.5z M276.5,295.8c-0.9-0.2-1.7,0-1.7,0c0.5-1.6,2-1.7,2-1.7C276.9,295.3,276.5,295.8,276.5,295.8z
		 M275.9,305.9c-0.3,1.1-1,0.8-1,0.1c0-1.9,1.2-2.6,1.2-2.6c0.5,1.1-0.5,2.2-0.5,2.2L275.9,305.9L275.9,305.9z M275.1,311.3
		c0,0-1,1.2-1,2.1c0,0.8-0.8,1.6-0.8,1.6s-1-1.8,1.6-4.3C274.9,310.7,274.8,311.1,275.1,311.3z M272.8,312.1
		c0.2-1.2-0.2-1.4,0.6-2.5c0.6-0.9,1.4-1.4,1.4-1.4s-0.1,0.7,0.5,0.7C275.3,308.9,274.5,310.8,272.8,312.1z M274.2,304.4
		c-0.4-2.6,1.6-3.4,1.6-3.4C276.5,302.7,275.3,302.8,274.2,304.4z M276.1,296.6c-0.4,1.7-2.3,2.1-2.3,2.1
		C273.9,297.3,274.7,296.3,276.1,296.6z M275.8,298.4c0.1,1.7-0.4,2.1-1.9,3.2C273.6,299.6,274.8,299.3,275.8,298.4z M274.2,306.3
		c0.4,0.6,0.3,1.2,0.3,1.2c-1.6,1-1.5,1.8-2.3,2.6C272.2,310.1,271.5,307.8,274.2,306.3L274.2,306.3z M272.4,316.1l-1.9,2.2
		c-0.3,0.4-0.5,0.4-0.6,0c-0.1-1.4-0.5-1.7-1-1.9s-0.6-0.2-0.5-0.7c1.8,0.1,2.2-1.3,2.2-1.3c0.9-0.1,1.5-0.3,1.5-0.3
		C272.1,315.2,272.4,316.1,272.4,316.1z M273.5,305.5c-0.7,1-1.9,1.9-1.9,1.9c-0.3-2.2,0.6-2.4,1.6-3.5
		C273.2,305,273.5,305.5,273.5,305.5z M271.1,304.8c0,0-0.3-2.5,1.9-3.5c0,0,0.2,0.5,0,0.8c0,0,0.3,0.2,0.5,0.2
		C273.3,303.6,271.8,303.7,271.1,304.8z M271,310.5c0,0,0.6,0.4,0.1,1.4c0,0,0.3,0.2,0.5,0c0,0,0.1,0.7,0.4,1.3c0,0-0.4,0.2-1,0.3
		c-0.6,0.1-0.2-0.5-1.2-0.9c-0.6-0.2-0.5,0.3-0.3,0.5c0.2,0.2,0.6,1.6-0.5,1.8c0,0-0.2-0.7-0.8-0.9c0.4-0.4,0.2-0.7-0.3-0.6
		s-0.4-0.6-0.2-1.1c0.3-0.7-0.3-0.4-0.7,0.1c0,0-0.6-0.8-1.8-0.3c0,0-1-0.3-1.7,0.2c0,0-0.8-0.3-1.6-0.1l0.5-1.2
		c0,0,0.8-0.9,2.2-0.2c0,0,0.8-0.8,2.2,0.1c0,0,1.1-0.6,1.8,0.7c0.1,0.2,0.3,0.4,0.8,0.1C270.1,311.3,271,310.5,271,310.5z
		 M266.4,319.4c-0.1-0.9,0.7-1.5,0.7-1.5c0.6,0,0.5,0.7,0.5,0.7C266.9,318.9,266.4,319.4,266.4,319.4z M267.3,322.2
		c-0.9,0.6-1.6,0.2-1.6,0.2c0.6-0.8,1.3-1,1.3-1C267.5,321.6,267.3,322.2,267.3,322.2z M266.7,315.4c0.8-0.4,1.1-0.9,1.1-0.9
		c0.6,0.2,0.6,0.6,0.6,0.6C267.4,315.8,266.7,315.4,266.7,315.4L266.7,315.4z M266.3,314.5c-1.2-0.3-0.8-1.6-0.8-1.6
		c0.5-0.4,1.1,0.1,1.1,0.1C266.2,313.8,266.3,314.5,266.3,314.5L266.3,314.5z M264.8,312.8c-0.2,0.7-0.4,1.8-0.4,1.8
		c-1.1-0.8-0.5-1.7-0.5-1.7C264.3,312.6,264.8,312.8,264.8,312.8z M263.1,313c-0.4,0.8-0.5,1.6-0.5,1.6c-0.6-0.7-0.3-1.6-0.3-1.6
		C262.7,312.8,263.1,313,263.1,313L263.1,313z M250.9,311.4c-6.1,0-9.5,1.4-10.2,1.6s-0.8-0.3-0.3-0.5s4.5-1.8,10.5-1.8
		c5.9,0,10,1.6,10.4,1.8c0.5,0.2,0.4,0.7-0.3,0.5C260.4,312.8,257,311.4,250.9,311.4z M258.2,313.1c0,0-1.6,0.2-7.3,0.2
		c-5.7,0-7.3-0.2-7.3-0.2s1.6-1,7.3-1C256.6,312.1,258.2,313.1,258.2,313.1z M240,311.1c0,0,0.1,0,0.1,0c0.3,0,0.5,0.2,0.5,0.5
		c0,0.1-0.1,0.3-0.2,0.4C240.5,312,240,311.1,240,311.1z M241.2,311c0-0.3,0.2-0.5,0.5-0.5c0.3,0,0.5,0.2,0.5,0.5
		c0,0.3-0.2,0.5-0.5,0.5l0,0C241.4,311.5,241.2,311.3,241.2,311C241.2,311,241.2,311,241.2,311z M243,310.5c0-0.3,0.2-0.5,0.5-0.5
		c0.3,0,0.5,0.2,0.5,0.5c0,0.3-0.2,0.5-0.5,0.5l0,0C243.2,311.1,243,310.8,243,310.5z M244.8,310.1c0-0.3,0.2-0.5,0.5-0.5
		c0.3,0,0.5,0.2,0.5,0.5c0,0.3-0.2,0.5-0.5,0.5l0,0C245.1,310.6,244.8,310.4,244.8,310.1C244.8,310.1,244.8,310.1,244.8,310.1z
		 M246.7,309.8c0-0.3,0.2-0.5,0.5-0.5c0.3,0,0.5,0.2,0.5,0.5c0,0.3-0.2,0.5-0.5,0.5C246.9,310.4,246.7,310.1,246.7,309.8z
		 M248.5,309.7c0-0.3,0.2-0.5,0.5-0.5c0.3,0,0.5,0.2,0.5,0.5s-0.2,0.5-0.5,0.5C248.8,310.2,248.5,310,248.5,309.7z M250.4,309.6
		c0-0.3,0.2-0.5,0.5-0.5s0.5,0.2,0.5,0.5s-0.2,0.5-0.5,0.5S250.4,309.9,250.4,309.6z M252.2,309.7c0-0.3,0.2-0.5,0.5-0.5
		c0.3,0,0.5,0.2,0.5,0.5s-0.2,0.5-0.5,0.5C252.4,310.2,252.2,310,252.2,309.7z M254.1,309.8c0-0.3,0.2-0.5,0.5-0.5
		c0.3,0,0.5,0.2,0.5,0.5c0,0.3-0.2,0.5-0.5,0.5l0,0C254.3,310.4,254.1,310.1,254.1,309.8C254.1,309.8,254.1,309.8,254.1,309.8z
		 M255.9,310.1c0-0.3,0.2-0.5,0.5-0.5s0.5,0.2,0.5,0.5c0,0.3-0.2,0.5-0.5,0.5S255.9,310.4,255.9,310.1z M257.8,310.5
		c0-0.3,0.2-0.5,0.5-0.5s0.5,0.2,0.5,0.5c0,0.3-0.2,0.5-0.5,0.5S257.8,310.8,257.8,310.5z M259.6,311c0-0.3,0.2-0.5,0.5-0.5
		s0.5,0.2,0.5,0.5c0,0.3-0.2,0.5-0.5,0.5S259.6,311.3,259.6,311z M261.3,312c-0.1-0.1-0.2-0.2-0.2-0.4c0-0.3,0.2-0.5,0.5-0.5
		c0,0,0.1,0,0.1,0L261.3,312L261.3,312z M250.9,308.6c-5.6,0-11.1,2.1-11.1,2.1l-0.9-1.3c0,0,1.5,0.8,3.3,0.2c2-0.6,2.4-1.9,2.4-1.9
		s1.4,1,3.4,0.8c1.6-0.2,2.9-1.5,2.9-1.5s1.3,1.3,2.9,1.5c2,0.3,3.4-0.8,3.4-0.8s0.4,1.3,2.4,1.9c1.8,0.5,3.3-0.2,3.3-0.2l-0.9,1.3
		C262,310.7,256.5,308.6,250.9,308.6z M263.1,308.6c-1.4,0.8-4.6,1-5.7-1.8c0,0-1.3,1.2-3.4,1c-1.8-0.2-3.1-1.9-3.1-1.9
		s-1.4,1.7-3.1,1.9c-2.1,0.2-3.4-1-3.4-1c-1.1,2.8-4.3,2.6-5.7,1.8c-0.3-0.2-0.2-0.6,0.2-0.5c0.4,0.2,1.4,0.7,2.8,0.4
		c2-0.4,2.5-2.5,2.5-2.5s1.5,1.7,3.8,1.2c1.9-0.4,2.9-2.3,2.9-2.3s1,1.9,2.9,2.3c2.2,0.5,3.8-1.2,3.8-1.2s0.6,2.1,2.5,2.5
		c1.5,0.3,2.5-0.2,2.9-0.4C263.3,308,263.5,308.4,263.1,308.6L263.1,308.6z M239.1,314.6c0,0-0.1-0.9-0.5-1.6c0,0,0.4-0.2,0.8,0
		C239.4,313,239.7,313.9,239.1,314.6z M237.3,314.6c0,0-0.2-1.1-0.4-1.8c0,0,0.5-0.2,0.9,0.1C237.8,312.9,238.4,313.8,237.3,314.6z
		 M235.2,312.9c0,0,0.6-0.5,1.1-0.1c0,0,0.4,1.3-0.8,1.6C235.5,314.5,235.5,313.8,235.2,312.9z M234,314.5c0,0,0.3,0.5,1.1,0.9
		c0,0-0.8,0.5-1.7-0.3C233.5,315.1,233.4,314.6,234,314.5z M234.7,317.9c0,0,0.8,0.5,0.7,1.5c0,0-0.5-0.5-1.2-0.8
		C234.2,318.6,234.1,317.9,234.7,317.9z M234.8,321.4c0,0,0.8,0.2,1.3,1c0,0-0.7,0.4-1.6-0.2C234.5,322.2,234.2,321.6,234.8,321.4z
		 M266.2,324.8c0.6-0.5,1-1.1,1-1.1c0.7,0.3,0.5,0.9,0.5,0.9C266.9,325.2,266.2,324.8,266.2,324.8z M268.4,325.5
		c0.4,0.1,0.5,0.5,0.5,0.5c-0.6,0.5-1.4,0.5-1.4,0.5C267.9,325.8,268.4,325.5,268.4,325.5z M282.7,300.4c-0.4,0.2-0.9-0.2-0.3-0.6
		C282.8,300,282.7,300.4,282.7,300.4z M281.6,293.3c0.8-0.1,1,0.3,0.8,1c-0.1,0.3-0.1,0.6,0.7,0.6c2-0.1,2.4,0.4,2,0.8
		c-0.3,0.3-0.5,0.5-0.1,0.8c0.5,0.4,0,1.4-0.6,1.2c-1.7-0.6-2.2-0.6-2.8,0.9c-0.6,1.5-0.8,2.7,2,2.3c0,0-0.1,0.7-1.9,0.6
		c-1.8-0.1-2.1-2.9,0.1-5.2c0.5-0.5,0.4-0.8,0.1-1.2c0-0.7,0-1.3-1.3-0.7c-1.1,0.5-1,0.9-0.4,0.9c0.7,0,1.1,0.5,1.1,0.5
		s-1.1,1-1.5,2.9c-0.6,2.6,0.9,3.4,0.9,3.4s-0.9,0.7-1.9-0.5c0,0,0.4-1.1-0.2-1.8c0,0,0.3-1-0.5-2.2c0,0,0.6-0.6,0.2-1.8
		c0,0,1.2-0.5,0.6-1.9C279.1,294.1,280.2,293.5,281.6,293.3L281.6,293.3z M279.8,292.5l-0.6,0.3c-0.4-0.3-0.7-0.7-0.8-1.2
		C279.4,291.2,279.8,292.5,279.8,292.5L279.8,292.5z M278.6,293.1c-1,0.6-2.2-0.6-2.3-1.1C277.6,291.4,277.9,292.6,278.6,293.1z
		 M276.7,293.5c0,0-1.1,0.8-2.8-0.6C273.9,292.9,275.5,291.8,276.7,293.5z M275.1,294.2c-0.6,1.3-2.2,0.4-3.4,0.6
		C272.8,292.7,274.4,294.4,275.1,294.2z M273.9,295.5c-0.4,1.3-2,0.6-3.1,1.3C271.4,295.1,272.7,295.7,273.9,295.5z M273.5,296.9
		c0,1.3-2.1,1.5-3.2,2.6C270.4,296.8,273.5,296.9,273.5,296.9z M269.6,304c0,0,0.2,0.2,0.5,0.1c-0.2,0.9,0.2,1.5-0.2,2.7
		c0,0,0.3,0.2,0.6,0.1c0.2,1.1-0.5,1.5,0,2.7c0,0-0.4,0.6-1.3,1.1c0,0-1.2-1.1-2.4-0.6c0,0-1.2-0.8-2.3,0c0,0-0.4-0.3-1-0.2
		c0,0,0.8-1.1,0.6-2.5c0,0,1.5-1.5,2.7-3.3c1.2-1.8,1.5-3.3,2.3-4.2c0,0,0.2,0.6-0.2,1.2c0,0,0.2,0.2,0.5,0.3
		C269.3,302.8,269.8,303.2,269.6,304L269.6,304z M266,300.1c0.2,0.3,0.3,1.1,0.1,1.3C265.8,301.3,265.6,300.5,266,300.1z
		 M264.5,302.1c0.3,0.1,0.5-0.1,0.3-0.5c-0.4-0.6-0.3-1.9,0.8-2.4c0,0-1,2.2,0.4,3.5c0,0,0.7-0.2,0.7-1.4c0-1.6-0.6-3.2,0.7-3.5
		c0,0-0.3,0.6-0.1,1.4c0.1,0.3,0.4,0.2,0.3-0.3c0-0.5,0.5-1.5,1.8-1.3c0,0-0.9,1.2-1.6,2.6c-0.7,1.4-0.8,2.3-2.6,4.9
		c0,0-0.2-1.8-1.6-1.8C263.4,302.5,263.9,301.9,264.5,302.1z M260.7,303.8c-0.3,0.5-0.8,0.2-0.5-0.2c0.2-0.2,0-0.7-0.5-0.3
		c-1.3,1.2-1.4,3.5,0.5,4.1c1.9,0.6,3.6-0.9,3.7-2.7c0-0.4-0.5-0.6-0.5,0c0,0.5-1,0.4-0.7-0.3c0.4-1,1.9-0.4,1.8,0.8
		c-0.3,2-2.3,3.4-4.5,2.8c-2.2-0.6-2.7-3.4-0.8-5.1C260,302.2,261.2,302.9,260.7,303.8z M258.9,296.7c0.3,0.2,0.4,0.9,0.1,1.5
		C258.6,297.7,258.6,297,258.9,296.7z M257.6,298.8c-0.7-1-0.4-2.4,0.7-2.6c0,0-0.4,2.2,0.9,3.2c0,0,1.2-1.6,0.1-3.6
		c0,0-0.1-1.1,0.8-1.3c0,0,0.1,0.9,0.4,1.4c0.1,0.1,0.2-0.1,0.2-0.5c-0.1-0.6,0.5-1.7,1.6-1.9c0,0,1.3,1.6-0.1,2.6
		c-0.2,0.2-0.1,0.5,0.2,0.4c0.5-0.2,0.8-0.5,0.8-0.5s0.5,0.9-0.3,1.2c-2.8,1.1-2.7,2.6-2.7,2.6s1.8,0.3,3-1.5c0.3,1.1,0.1,2-1.1,2.3
		c-0.3,0.1-0.4,0.4-0.1,0.6c0.5,0.3,0.5,1.5-0.6,1.7c0,0-1.1-1.4-2.8-0.2c0,0-0.4-1.6-1.9-1.5C255.8,300.3,256.2,298.7,257.6,298.8
		L257.6,298.8z M262.6,297.9c-0.2,0.5-1.1,1.2-1.7,1.2C261.2,298.5,262,298,262.6,297.9z M253.5,302.1c-0.3,0.3-0.8,0.1-0.6-0.3
		c0.3-0.6-0.2-0.8-0.6-0.3c-1,1.3-0.5,3.9,1.5,4.5c1.9,0.5,3.1-0.9,3.4-1.7s0.3-2.2-0.2-2.1c-0.3,0.1,0,0.5-0.3,0.6
		c-0.6,0.2-0.9-0.9-0.1-1.1c0.8-0.2,1.2,0.3,1.4,0.8c0.5,1.5-0.9,4.7-4,4.1c-2.9-0.5-3.1-3.9-2.2-5.2
		C252.8,300.1,254.2,301.1,253.5,302.1L253.5,302.1z M248.3,298.5c0.4-0.1,0.2-0.3,0-0.4c-1.1-0.7-0.6-2.1,0.2-2.7
		c-0.3,2.6,2,2.8,2,2.8s0.5-1.4-0.9-2.6c-0.7-0.6-0.8-1.1-0.5-1.4c0.2-0.2,0.6,0.2,0.8,0.4c0.3,0.2,0.5,0.1,0.3-0.2
		c-1.1-1.4,0.7-2.5,0.7-2.5s1.8,1.1,0.7,2.5c-0.2,0.3,0,0.4,0.3,0.2c0.2-0.2,0.6-0.6,0.8-0.4c0.4,0.3,0.2,0.8-0.5,1.4
		c-1.4,1.2-0.9,2.6-0.9,2.6s2.3-0.2,1.9-2.8c0.8,0.5,1.2,2,0.2,2.7c-0.2,0.1-0.3,0.3,0,0.4c0.8,0.2,1.2,1.4,0.4,1.9
		c-0.8-0.5-2.1-0.5-3,1.1c-0.9-1.5-2.2-1.6-3-1.1C247.1,299.9,247.5,298.7,248.3,298.5L248.3,298.5z M249.1,296.3
		c0.4,0.1,1,0.7,0.9,1.3C249.3,297.5,248.9,296.5,249.1,296.3z M251.8,297.6c-0.1-0.6,0.5-1.3,0.9-1.3
		C252.8,296.5,252.5,297.5,251.8,297.6z M245.1,302.9c-0.3-0.1,0.1-0.5-0.3-0.6c-0.5-0.1-0.5,1.3-0.2,2.1c0.3,0.8,1.5,2.2,3.4,1.7
		c2-0.6,2.5-3.1,1.5-4.5c-0.4-0.5-0.9-0.3-0.6,0.3c0.2,0.3-0.3,0.6-0.6,0.3c-0.7-1,0.7-2,1.8-0.6c1,1.2,0.7,4.6-2.2,5.2
		c-3.1,0.6-4.5-2.6-4-4.1c0.2-0.5,0.6-1.1,1.4-0.8C246,302,245.7,303.1,245.1,302.9L245.1,302.9z M242.9,296.7
		c0.3,0.3,0.3,1-0.1,1.5C242.5,297.7,242.6,297,242.9,296.7z M240.4,302.7c-1.1-0.2-1.1-1.4-0.6-1.7c0.3-0.2,0.2-0.5-0.1-0.6
		c-1.1-0.3-1.4-1.2-1.1-2.3c1.2,1.9,3,1.5,3,1.5s0.1-1.4-2.7-2.6c-0.8-0.3-0.3-1.2-0.3-1.2s0.3,0.3,0.8,0.5c0.3,0.1,0.4-0.2,0.2-0.4
		c-1.4-1-0.1-2.6-0.1-2.6c1.1,0.2,1.8,1.4,1.6,1.9c-0.1,0.4,0.1,0.7,0.2,0.5c0.3-0.5,0.4-1.4,0.4-1.4c0.8,0.2,0.8,1.3,0.8,1.3
		c-1.1,2,0.1,3.6,0.1,3.6c1.4-1.1,0.9-3.2,0.9-3.2c1.1,0.2,1.4,1.6,0.7,2.6c1.3-0.1,1.7,1.6,0.9,2.3c-1.6-0.1-1.9,1.5-1.9,1.5
		C241.5,301.3,240.4,302.7,240.4,302.7L240.4,302.7z M239.2,297.9c0.7,0,1.5,0.6,1.7,1.2C240.3,299.1,239.3,298.5,239.2,297.9z
		 M239.1,304.4c0.3,0.7-0.7,0.8-0.7,0.3c0-0.5-0.5-0.4-0.5,0c0.1,1.7,1.8,3.3,3.7,2.7c1.9-0.6,1.8-2.9,0.5-4.1
		c-0.5-0.4-0.7,0.1-0.5,0.3c0.3,0.3-0.3,0.7-0.5,0.2c-0.4-0.8,0.8-1.6,1.5-0.9c1.9,1.7,1.4,4.5-0.8,5.1c-2.2,0.6-4.2-0.8-4.5-2.8
		C237.1,304,238.7,303.4,239.1,304.4z M235.8,300.1c0.4,0.4,0.2,1.1-0.1,1.3C235.5,301.3,235.5,300.5,235.8,300.1z M234.1,298.8
		c0,0.5,0.3,0.5,0.3,0.3c0.2-0.8-0.1-1.4-0.1-1.4c1.3,0.4,0.7,1.9,0.7,3.5c0,1.3,0.7,1.4,0.7,1.4c1.3-1.3,0.4-3.5,0.4-3.5
		c1.1,0.6,1.2,1.8,0.8,2.4c-0.2,0.3,0,0.5,0.3,0.5c0.6-0.2,1.1,0.4,0.8,1.1c-1.4,0-1.6,1.8-1.6,1.8c-1.8-2.6-1.9-3.5-2.6-4.9
		c-0.7-1.4-1.5-2.6-1.5-2.6C233.6,297.3,234.2,298.4,234.1,298.8z M231.7,304.1c0.3,0.1,0.5-0.1,0.5-0.1c-0.2-0.8,0.3-1.2,0.1-2.7
		c0.3,0,0.5-0.3,0.5-0.3c-0.4-0.6-0.2-1.2-0.2-1.2c0.7,0.9,1,2.4,2.3,4.2c1.2,1.8,2.7,3.3,2.7,3.3c-0.2,1.4,0.6,2.5,0.6,2.5
		c-0.6-0.2-1,0.2-1,0.2c-1-0.8-2.3,0-2.3,0c-1.2-0.5-2.4,0.6-2.4,0.6c-0.9-0.5-1.3-1.1-1.3-1.1c0.5-1.1-0.2-1.5,0-2.7
		c0.3,0.1,0.6-0.1,0.6-0.1C231.5,305.6,231.8,305,231.7,304.1z M231.5,299.5c-1.1-1.2-3.2-1.3-3.2-2.6
		C228.3,296.9,231.4,296.8,231.5,299.5z M230.9,296.8c-1-0.7-2.7-0.1-3.1-1.3C229.1,295.7,230.4,295.1,230.9,296.8z M230.1,294.8
		c-1.2-0.2-2.8,0.7-3.4-0.6C227.4,294.4,229,292.7,230.1,294.8z M227.9,292.9c-1.7,1.4-2.8,0.6-2.8,0.6
		C226.3,291.8,227.9,292.9,227.9,292.9z M225.5,292c-0.1,0.5-1.3,1.7-2.3,1.1C223.9,292.6,224.1,291.4,225.5,292z M223.4,291.6
		c0,0-0.1,0.7-0.8,1.2l-0.6-0.3C222,292.5,222.4,291.2,223.4,291.6z M219.4,299.8c0.6,0.5,0.1,0.8-0.3,0.6
		C219.1,300.4,219,300,219.4,299.8z M218.1,301.1c2.8,0.3,2.7-0.9,2-2.3c-0.6-1.4-1.1-1.5-2.8-0.9c-0.6,0.2-1.1-0.8-0.6-1.2
		c0.4-0.3,0.2-0.5-0.1-0.8c-0.4-0.4,0-0.9,2-0.8c0.8,0,0.8-0.2,0.7-0.6c-0.1-0.7,0.1-1.1,0.8-1c1.4,0.1,2.5,0.7,2.5,0.7
		c-0.6,1.4,0.6,1.9,0.6,1.9c-0.4,1.2,0.2,1.8,0.2,1.8c-0.8,1.2-0.5,2.2-0.5,2.2c-0.6,0.7-0.2,1.8-0.2,1.8c-0.9,1.2-1.9,0.5-1.9,0.5
		s1.5-0.8,0.9-3.4c-0.5-1.8-1.5-2.9-1.5-2.9s0.5-0.5,1.1-0.5c0.7,0,0.8-0.3-0.4-0.9c-1.3-0.6-1.3,0-1.3,0.7
		c-0.3,0.3-0.4,0.6,0.1,1.2c2.2,2.3,1.9,5.1,0.1,5.2C218.2,301.8,218.1,301.1,218.1,301.1z M208.8,345.2c-0.3-0.9-0.4-1,0.1-2.6
		c0.2-0.8,0.2-1,0.7-0.9c0.8,0.1,0.5-0.9,1-1.6c0.3-0.4,0.3-0.8,0-1.7s-0.7-1.7-0.7-1.7s0.5-1.3,0.7-2.6c0.1-0.9-0.7-1.2-0.9-0.4
		c-0.4,1.9-1.6,3.9-4.3,3.9c-2.2,0-3.8-2.1-3.8-4.4c0-2.5,2.4-5,3.5-6.2c3.1-3.5,3.5-5.1,3.7-6.7c0.1-1.8-0.4-2.3-0.4-2.3
		c-1.8,0.6-2.2-0.9-2.2-0.9c0.3-0.3,0.7-0.4,0.7-0.4c-0.4-0.5-1.2-0.2-1.5-1.4c0.3-0.2,0.9,0,0.9,0c-0.4-1-1.5-0.6-1.3-2.4
		c2.1-0.1,1.9,1.5,2.5,1.7c-0.1-0.5,0.2-0.7,0.2-0.7c0.8,0.7,0.3,1.4,0.8,1.9c0.1-0.3,0.4-0.5,0.4-0.5c0.9,1.1,0.2,2.3,0.2,2.3
		c2.1,5.2-3.6,9.7-5.7,12.9c-1.6,2.3-0.8,5.6,1.3,6.2s3.7-0.6,5-5.1c0.6-2,0.8-2.5,2.6-4.6s2.2-3.8,2.4-5.3c0.2-1.5,0.6-6.5,0.7-7.6
		c0.1-1.1,1.1-1.6,1.5-2.1s0.1-0.9-0.2-0.5c-0.7,0.7-1.5,1-1.5,1c0.1-2,1.9-2.2,2.5-3.3c0.2-0.4,0-0.6-0.3-0.3
		c-0.7,0.7-1.7,1.1-1.7,1.1c0.2-1.8,2-2,2.4-2.7c0.3-0.4,0.1-0.8-0.3-0.5c-0.8,0.7-1.5,0.8-1.5,0.8s0.4-1.2,1.8-2
		c0.5-0.3,0.3-0.5,0-0.5c-0.3,0.1-0.8-0.1-0.8-0.1c0.8-1.1,1.9-0.8,2.3-0.4c0.2,0.3,0.4,0.1,0.4-0.2s-0.1-0.7,0.7-0.8
		c0.7-0.1,1,0.5,1.1,0.7c0,0.2,0.4,0.2,0.4,0c0.1-0.2,0.4-0.6,1.4-0.4c1,0.2,1.4,1.2,1.4,1.2c-0.8-0.3-1.1-0.1-0.6,0.3
		c1.6,1.4,1.5,2.4,1.5,2.4c-0.7-0.6-1-0.4-0.6,0.1c0.8,1.1,0.8,2.4,0.8,2.4s-0.5-0.2-0.8-0.4c-0.4-0.4-0.8,0.1-0.4,0.5
		c2.1,2.5,1.7,3.5,2.5,4.9c0.8,1.4,3.7,4.4,4.4,5c0.6,0.5,1.1-0.5,1.2-1.5c0.1-0.8,0.3-1.5,1.1-1c-0.9,1-0.1,1.8-0.1,1.8
		c-0.7,1.2-0.4,1.2,0.4,1.5c-1.4,1.1-0.2,2.6-0.2,2.6c-0.9,0.5-0.8,1.5-0.8,1.5c-0.6,0-0.9,0.5-0.9,0.5s-0.5-0.4-0.8-1
		c-0.4-0.8,0.2-1.4-0.7-2c-2.4-1.7-4.8-3.8-5.5-4.6s-0.7-0.5-1,0.1c-0.9-1.5-1.2-2.8-1.5-2c-0.1,0.4-0.4,0.5-0.4,0.5
		c-0.4-1.9-0.3-3.6-1.3-2.4c-0.2-1.4-0.7-1.4-0.6-3c0-0.6-0.7-0.8-0.7-0.1c-0.1,2,0.7,2.4,0.6,4.1c-0.1,0.9,0.3,1,0.9,0.9
		c0.4,1.5,1,2.3,1,2.3c0.2-0.5,0.6-0.6,0.6-0.6c0.7,0.7,1,1.5,1.7,2.1c0.1-0.4,0.3-0.6,0.8-0.2c0.5,0.4,0.3,0.5,0.3,0.8
		c0,0.3-0.4,0.9-0.4,0.9c-0.1-0.2-0.2-0.4-0.4-0.5c-0.4,0.5-0.1,1.9-1.2,2.8c-0.1-0.5-0.3-0.6-0.3-0.6c-0.7,0.6-0.4,1.2-1.1,1.8
		c-0.1-0.2-0.2-0.2-0.2-0.2s-0.8,1.5-3,3.9c-1.1,1.2-0.7,2.5-2.2,6.2c-0.6,1.4-0.8,1.8-1.3,3.6c-0.5,1.9-0.8,1.7-4.4,4.7
		c-0.6,0.5-0.4,0.6-0.3,0.9s0.6,2,0.6,2c-0.7,0.2-0.3,1.1,0.2,0.9c3.2-1,3.8,0,3.8,0c-0.5-0.2-1.1,0.5-1.1,0.5
		c-1.2-0.7-1.7,0.8-1.7,0.8c-0.3-0.3-0.6-0.1-0.6-0.1c0.5,0.6-0.2,0.9-0.9,0.5c-0.8-0.4-1.2,0.4-1.5-0.3
		C209.7,347.6,209.1,346.1,208.8,345.2L208.8,345.2z M219.8,342.5c0.3,0.9,0.7,2.4,1.1,3.7c0.4,1.4,1.1,1.7,1.1,1.7
		c-0.5,0.2-1.4,0.2-1.4,0.2c-1.2-3.5-4.1-3.4-4.1-3.4c0,2.5,2.3,3.6,2.3,3.6c-0.6,0.1-1.2,0.1-1.2,0.1c-1.4-2.7-1.1-3.8-4.8-3.1
		c-0.3-0.9-0.5-1.9-0.5-1.9c3.5-2.8,4.5-3.6,4.7-4.7c0.2-1.1,0.6-2.1,0.6-2.1c0.9,1.4,1.1,1.3,1.8,1.6c0.7,0.2,0.6,0.4,1.2,2.4
		C220.8,341.7,219.4,341.3,219.8,342.5z M219.9,348.2c-1.1-0.3-2.3-1.4-2.6-2.5C218.5,346,219.7,347.2,219.9,348.2z M216.6,348.7
		c0,0-0.4-0.4-1.2-1.1c0,0,0.1-0.3,0.6-0.3C216,347.3,216.8,347.8,216.6,348.7z M214.7,348.6c0,0-0.6-0.3-1-0.8c0,0,0-0.3,0.6-0.4
		C214.3,347.4,214.8,347.9,214.7,348.6z M217,352c0.6-0.8,4.1-2.2,5.2-1.3C221.9,351.2,220.1,352.4,217,352z M217.5,350.1
		c-7.9,0.3-11-1.1-11-1.1l0.4-0.5c1.8,0.4,2.4,0.2,3.2,0.5c0.7,0.3,0.8-0.4,2.3,0.1c0.5,0.2,0.7,0,1-0.4c0.3,0,1,0.3,1.3,0.6
		c0.3,0.3,0.8,0.3,0.7,0.1c-0.1-0.2,0.1-0.6,0.1-0.6s0.7,0.1,1.4,0.7c0.5,0.4,0.4-0.1,0.9-0.4c3.4,0,5.3-0.4,5.3-0.4
		c1.4,0.4,1.9-0.6,1.9-0.6c0.5,0.3,1,0.3,1,0.3c0.7,0.4,1.5,0.4,1.5,0.4S223.9,349.8,217.5,350.1z M225.9,347.3c0,0,0.2-0.4,0.6-0.4
		c0,0,0.8,0.5,0.8,1.1C227.2,348,226.3,347.8,225.9,347.3z M226.9,346.3c-1.5-0.4-2,0.4-1.5,1.2c-1.5-0.6-1.2,0.4-1.2,0.4
		s-0.3,0.4-0.8,0.1c-0.3-0.2-1.2-1.1-1.5-2c-0.4-0.9-0.6-2.3-0.9-3.3c-0.3-1,0.8-0.6,0.6-1.8c-0.1-0.8-0.5-2.2-0.8-3.1
		c-0.4-0.9-1-0.5-1.6-1.2c-0.5-0.5-1.1-1.4-1.1-1.4s0.9-1.4,1.6-4.6c0.4-1.8,1.1-2.2,1.1-2.2s0.6,1.4,2.2,3.1c0.5,0.5,0.7,1,0.8,2.2
		c0.1,1.2,0.6,2.8,0.8,4.5c0.1,0.8,0.2,1.1-0.5,2.2c-0.8,1.3-1,1.5-0.2,4.3c0.2,0.8,0.6,1,1.1,0.8c1.4-0.4,2.1-0.4,2.6,0
		C227.1,345.8,226.9,346.3,226.9,346.3L226.9,346.3z M227.6,348.8c0,0,0.2-0.4,0.2-0.8c0,0,0.8,0,1.4,0.5
		C229.2,348.5,228.2,348.7,227.6,348.8z M227.6,346.7c0,0,0.1-0.5,0.6-0.6c0,0,1,0.7,1,1.5C229.2,347.6,228.5,347.2,227.6,346.7z
		 M225.2,344.7c-0.6,0.1-0.6,0.1-0.9-1.2c-0.3-1.3-0.1-1.4,0.5-2.4c0.5-0.8,0.8-1.3,0.7-2c-0.1-0.7-0.5-3.9-0.8-5.4
		c-0.3-1.5-0.4-1.7-2-3.8c-0.9-1.1-1.3-2.2-1.3-2.2l0.8-1c0.2,0.2,0.5,0.3,0.5,0.3c0.4-0.5,0.3-1.3,1-1.7c0.3-0.1,0.6,0.1,0.6,0.1
		c0.5-0.7,0-0.9,1.3-2.3c0.3,0,0.4,0.4,0.4,0.4c0.6-0.7,0.1-1.2,1-2.9c0.8,0.6,1.9,1.5,2.7,2s0.8,0.6,1.1,2c0.5,1.9,1.5,1.8,1.5,1.8
		c0.3,0.5,1.1,0.8,1.1,0.8l0.2,7.7c0.3,9.8,7,12.3,15.3,13.1c-0.3,0.6-0.2,1.1-0.2,1.1s-1.5-0.3-2.8,0.6c-0.5,0.4-0.8,0.2-0.8,0.2
		c-1.9-3.1-4.6-3.4-4.6-3.4c-0.6,0.4,0.6,2.2,0.6,2.2c-1.9-3.5-4.9-4.4-4.9-4.4c-0.1,2.2,1.4,3.3,1.4,3.3l-1.1-0.4
		c-0.7-3.8-3.4-4.4-3.4-4.4c-0.5,2.5,1.4,4,1.4,4l-0.8-0.1c-0.5-1.3-1.6-2.7-1.6-2.7c2.5-4.3,0.2-7.4,0.2-7.4
		c-1,1.3-1.4,2.6-1.4,2.6c-0.4-1-0.5-1.9-0.5-1.9c3.3-4.5,1.5-8.1,1.5-8.1c-1.3,0.9-1.9,2.5-1.9,2.5l-0.1-1.2
		c2.1-4.4-1.1-7.2-1.1-7.2c-2.5,4.5,0.5,7.2,0.5,7.2l0.1,1.2c-1.1-2.7-3.2-3.3-3.2-3.3c-0.7,4.7,3.1,6.9,3.1,6.9
		c0,0.8,0.2,1.6,0.2,1.6c-1-1.1-2.3-1.6-2.3-1.6c-0.3,5.5,3.5,7,3.5,7c0.2,0.6,0.3,1.2,0.3,1.2c-1.7-1.1-3.2-1.1-3.2-1.1
		c0.4,3.1,3,4.5,3,4.5c-0.7,0-1.3,0.3-1.3,0.3C228.3,344.6,227.7,344.2,225.2,344.7z M243.8,349.6c-1.2-0.2-2.1-1.2-2.3-2.1
		C242.2,347.7,243.3,348.2,243.8,349.6z M239.6,348.2c-1.2-0.2-2.3-1.8-2.3-2.5C238.3,345.9,239.6,347.3,239.6,348.2z M235.6,346.9
		c-1.2-0.5-1.9-2.4-1.8-3C234.8,344.3,235.5,346,235.6,346.9z M232.7,346.5c-1.1-0.3-3.1-1.7-3.4-3.2
		C230.8,343.7,232.5,345.5,232.7,346.5z M232.2,338.5c0.7,1.3,0.2,3.5-0.4,3.6C231.2,341.1,231.8,339,232.2,338.5z M230.5,340.9
		c-1.5-0.7-2.5-3.5-2.4-4.1C229.8,337.8,230.4,340,230.5,340.9z M229.7,329.5c-1.1-1-1-3.8-0.6-4.6
		C230.2,326.1,230,328.7,229.7,329.5z M230.3,335.7c-0.6-1.1,0.4-3.9,1.2-4.6C231.9,332.4,231,335.3,230.3,335.7z M229.3,333.9
		c-1.6-0.9-2.2-3.3-2.1-4C228.9,330.9,229.3,333,229.3,333.9z M230.9,350.2c0.6-0.8,3.8-1.9,4.9-1
		C235.5,349.7,233.5,350.8,230.9,350.2z M236.9,351.6c0.8-0.8,3.5-1.6,4.8-0.5C241.2,351.5,238.8,352.5,236.9,351.6z M237,348.9
		c-3.9-1.4-7.3-0.5-7.3-0.5l0.5-0.7c3.2-0.5,5.2-0.1,9,1.2c3.1,1.1,7,1.9,7,1.9l-1.6,0.4C244.6,351.2,242.1,350.6,237,348.9z
		 M244.5,353c-0.7-0.3-0.6-1-0.6-1c1.9-0.5,3.9-0.9,3.9-0.9c0.6,0.2,0.6,0.8,0.6,0.8S246.6,352.3,244.5,353z M249.2,352.2
		c-0.1-2-2.5-2-2.5-2c2.6-1.2,3.7,1,3.7,1L249.2,352.2z M250.9,347.9c1.8,0,1.5,1.5,0,2.3C249.4,349.4,249.1,347.9,250.9,347.9z
		 M252.5,352.2l-1.2-1.1c0,0,1.1-2.2,3.7-1C255.1,350.1,252.6,350.1,252.5,352.2z M257.3,353c-2.1-0.7-3.9-1.1-3.9-1.1
		s0-0.7,0.6-0.8c0,0,2,0.4,3.9,0.9C257.9,352,258,352.7,257.3,353L257.3,353z M264.9,351.6c-2,0.9-4.3-0.1-4.8-0.5
		C261.5,350,264.1,350.7,264.9,351.6z M266,349.2c1.1-0.9,4.3,0.3,4.9,1C268.3,350.8,266.3,349.7,266,349.2z M264.8,348.9
		c-5.1,1.8-7.6,2.3-7.6,2.3l-1.6-0.4c0,0,3.9-0.8,7-1.9c3.8-1.3,5.8-1.6,9-1.2l0.5,0.7C272.1,348.4,268.7,347.5,264.8,348.9
		L264.8,348.9z M258,349.6c0.6-1.4,1.7-1.9,2.3-2.1C260,348.4,259.1,349.4,258,349.6z M262.2,348.2c0.1-0.9,1.3-2.3,2.3-2.5
		C264.4,346.4,263.3,348,262.2,348.2z M266.2,346.9c0.1-0.9,0.8-2.6,1.8-3C268.2,344.5,267.4,346.5,266.2,346.9z M272.5,343.3
		c-0.3,1.5-2.3,2.9-3.4,3.2C269.3,345.5,271,343.7,272.5,343.3z M269.6,338.5c0.4,0.4,1,2.5,0.4,3.6
		C269.5,342,268.9,339.8,269.6,338.5z M270.8,346.6c0,0,2.6-1.4,3-4.5c0,0-1.4-0.1-3.2,1.1c0,0,0.1-0.6,0.3-1.2c0,0,3.8-1.4,3.5-7
		c0,0-1.3,0.5-2.3,1.6c0,0,0.1-0.7,0.2-1.6c0,0,3.8-2.2,3.1-6.9c0,0-2.1,0.6-3.2,3.3l0.1-1.2c0,0,3-2.8,0.5-7.2c0,0-3.1,2.9-1,7.2
		l-0.1,1.2c0,0-0.6-1.6-1.9-2.5c0,0-1.8,3.6,1.5,8.1c0,0-0.1,0.9-0.5,1.9c0,0-0.5-1.3-1.4-2.6c0,0-2.3,3.1,0.2,7.4
		c0,0-1.1,1.4-1.6,2.7l-0.8,0.1c0,0,1.9-1.6,1.4-4c0,0-2.7,0.6-3.4,4.4l-1.1,0.4c0,0,1.5-1.1,1.4-3.3c0,0-3.1,0.9-4.9,4.4
		c0,0,1.1-1.8,0.6-2.2c0,0-2.7,0.2-4.6,3.4c0,0-0.3,0.2-0.8-0.2c-1.2-0.9-2.8-0.6-2.8-0.6s0.2-0.5-0.1-1.1c8.3-0.8,15-3.3,15.3-13.1
		l0.2-7.7c0,0,0.9-0.3,1.1-0.8c0,0,1,0.1,1.5-1.8c0.3-1.4,0.3-1.5,1.1-2c0.8-0.5,1.9-1.4,2.7-2c0.9,1.8,0.5,2.3,1,2.9
		c0,0,0.1-0.4,0.4-0.4c1.3,1.4,0.8,1.6,1.3,2.3c0,0,0.3-0.2,0.6-0.1c0.7,0.4,0.6,1.2,1,1.7c0,0,0.3-0.1,0.5-0.3l0.8,1
		c0,0-0.5,1.1-1.3,2.2c-1.7,2.1-1.8,2.3-2,3.8c-0.3,1.5-0.7,4.7-0.8,5.4c-0.1,0.7,0.2,1.2,0.7,2c0.6,1,0.8,1.1,0.5,2.4
		c-0.3,1.3-0.3,1.3-0.9,1.2c-2.5-0.5-3.1-0.1-4.4,2.2C272.1,346.9,271.6,346.7,270.8,346.6L270.8,346.6z M273.7,336.7
		c0.1,0.6-0.8,3.4-2.4,4.1C271.4,340,272,337.8,273.7,336.7z M271.5,335.7c-0.7-0.4-1.7-3.3-1.2-4.6
		C271.1,331.8,272.2,334.6,271.5,335.7z M272.7,324.9c0.5,0.8,0.5,3.7-0.6,4.6C271.8,328.7,271.6,326.1,272.7,324.9z M272.5,333.9
		c0.1-0.9,0.5-3,2.1-4C274.7,330.5,274.1,333,272.5,333.9z M272.6,348.5c0.6-0.5,1.4-0.5,1.4-0.5c0,0.4,0.2,0.8,0.2,0.8
		C273.6,348.7,272.6,348.5,272.6,348.5z M272.6,347.6c0-0.8,1-1.5,1-1.5c0.6,0,0.6,0.6,0.6,0.6C273.3,347.2,272.6,347.6,272.6,347.6
		z M276.9,345.8c0.6,0.1,0.9-0.1,1.1-0.8c0.8-2.8,0.7-2.9-0.2-4.3c-0.7-1.1-0.5-1.4-0.5-2.2c0.2-1.7,0.7-3.3,0.8-4.5
		c0.1-1.2,0.3-1.6,0.8-2.2c1.6-1.6,2.2-3.1,2.2-3.1s0.8,0.4,1.1,2.2c0.7,3.2,1.6,4.6,1.6,4.6s-0.7,0.9-1.1,1.4
		c-0.7,0.7-1.2,0.3-1.6,1.2c-0.4,1-0.7,2-0.8,3.1c-0.2,1.2,0.9,0.8,0.6,1.8c-0.3,1-0.6,2.4-0.9,3.3s-1.2,1.8-1.5,2
		c-0.6,0.3-0.8-0.1-0.8-0.1s0.3-1.1-1.2-0.4c0.4-0.8-0.1-1.7-1.5-1.2c0,0-0.1-0.5-0.6-0.6C274.8,345.3,275.5,345.4,276.9,345.8z
		 M275.9,347.3c-0.4,0.6-1.3,0.8-1.3,0.8c-0.1-0.7,0.7-1.1,0.7-1.1C275.8,346.9,275.9,347.3,275.9,347.3z M279.6,350.7
		c1.1-0.9,4.6,0.5,5.2,1.3C281.7,352.4,279.9,351.2,279.6,350.7z M284.3,350.1c-6.4-0.3-10-1.3-10-1.3s0.8,0,1.5-0.4
		c0,0,0.4,0,1-0.3c0,0,0.5,1.1,1.9,0.6c0,0,1.9,0.4,5.3,0.4c0.5,0.3,0.5,0.8,0.9,0.4c0.7-0.6,1.4-0.7,1.4-0.7s0.3,0.3,0.1,0.6
		c-0.1,0.2,0.4,0.2,0.7-0.1c0.3-0.3,1-0.6,1.3-0.6c0.3,0.4,0.5,0.6,1,0.4c1.4-0.5,1.5,0.2,2.3-0.1c0.7-0.3,1.4-0.1,3.2-0.5l0.4,0.5
		C295.3,349,292.2,350.4,284.3,350.1z M295.8,347.5c-0.3-0.5,0.8-0.5,0.8-0.5C296.6,347.3,296.1,347.9,295.8,347.5z M297,344.7
		c0.7-0.2,1-0.4,1-0.4s0.1,1.1-1.2,1.6C295.9,346.3,295.8,345,297,344.7z M297.8,348.4c-1.1,0.1-1.1-1.2-0.1-1.3
		c1-0.1,1.6,0.5,1.6,0.5S298.6,348.3,297.8,348.4z"/>
	<path d="M256.4,335.5c-1.1,0-2,0.9-2,2c0,1.1,0.9,2,2,2c1.1,0,2-0.9,2-2C258.4,336.3,257.5,335.5,256.4,335.5z M256.4,338.6
		c-0.7,0-1.2-0.5-1.2-1.2s0.5-1.2,1.2-1.2c0.7,0,1.2,0.5,1.2,1.2S257.1,338.6,256.4,338.6z"/>
</g>
</svg>
